<?xml version="1.0" encoding="UTF-8" standalone="no"?>
<!-- Created with Inkscape (http://www.inkscape.org/) -->

<svg
   width="210mm"
   height="297mm"
   viewBox="0 0 210 297"
   version="1.1"
   id="svg1"
   xml:space="preserve"
   inkscape:version="1.4.2 (f4327f4, 2025-05-13)"
   sodipodi:docname="B-done.svg"
   xmlns:inkscape="http://www.inkscape.org/namespaces/inkscape"
   xmlns:sodipodi="http://sodipodi.sourceforge.net/DTD/sodipodi-0.dtd"
   xmlns="http://www.w3.org/2000/svg"
   xmlns:svg="http://www.w3.org/2000/svg"><sodipodi:namedview
     id="namedview1"
     pagecolor="#ffffff"
     bordercolor="#000000"
     borderopacity="0.25"
     inkscape:showpageshadow="2"
     inkscape:pageopacity="0.0"
     inkscape:pagecheckerboard="0"
     inkscape:deskcolor="#d1d1d1"
     inkscape:document-units="mm"
     inkscape:zoom="0.71891835"
     inkscape:cx="396.42889"
     inkscape:cy="561.25984"
     inkscape:window-width="1920"
     inkscape:window-height="1009"
     inkscape:window-x="-8"
     inkscape:window-y="-8"
     inkscape:window-maximized="1"
     inkscape:current-layer="layer1" /><defs
     id="defs1" /><g
     inkscape:label="Layer 1"
     inkscape:groupmode="layer"
     id="layer1"><path
       style="fill:#000000"
       d="m 33.292755,214.94794 c 0,-0.37757 2.605478,-1.70046 4.49792,-2.28374 1.8791,-0.57917 4.90144,-1.10154 9.99212,-1.727 3.30583,-0.40617 5.77923,-0.85085 6.74189,-1.21208 1.89757,-0.71206 4.21577,-2.78075 5.16601,-4.60996 0.62661,-1.20624 0.69989,-1.63788 0.70036,-4.12532 6.3e-4,-3.28051 -0.41688,-4.33567 -2.50938,-6.34194 -2.79842,-2.6831 -5.70804,-3.5532 -11.88892,-3.5553 -3.93196,-0.001 -4.4839,0.0553 -5.55625,0.57023 -1.57626,0.75687 -1.8484,1.00045 -3.0305,2.71242 -1.297321,1.87884 -2.218769,2.8664 -3.107924,3.33092 -0.876457,0.45788 -1.008066,0.4635 -0.995285,0.0425 0.0055,-0.1819 0.47332,-0.651 1.039549,-1.04244 0.56623,-0.39145 1.637023,-1.61202 2.37954,-2.71238 1.14354,-1.69466 1.59041,-2.122 2.92165,-2.79401 1.56066,-0.78782 1.60273,-0.79336 6.0285,-0.79336 6.40754,0 8.77199,0.57831 11.84235,2.89645 6.46096,4.87808 4.23134,15.32731 -3.72085,17.43798 -0.57965,0.15385 -3.523,0.58714 -6.54078,0.96286 -7.11273,0.88555 -8.28847,1.18642 -13.629271,3.48766 -0.181901,0.0784 -0.330729,-0.0312 -0.330729,-0.24351 z m 8.68443,0.0463 c 0.6291,-0.1238 3.84378,-0.47257 7.14375,-0.77504 3.29997,-0.30246 6.7018,-0.72586 7.55962,-0.94088 3.27465,-0.8208 5.87132,-2.95179 7.41717,-6.08697 0.73226,-1.48513 0.78377,-1.81079 0.93894,-5.93695 0.0903,-2.40109 0.29695,-4.60375 0.45924,-4.89479 0.97707,-1.75228 3.26604,-2.92711 6.52181,-3.34739 1.77615,-0.22928 3.12233,-0.20062 6.60769,0.14066 6.53597,0.64 7.60308,0.58799 8.12984,-0.39627 0.61537,-1.14983 -1.13931,-2.37319 -4.9619,-3.45946 -2.62566,-0.74613 -8.36102,-0.8206 -12.38496,-0.16081 -6.06115,0.99383 -8.86876,0.82495 -16.66876,-1.00259 -3.77872,-0.88536 -4.70886,-1.00413 -8.66153,-1.10597 l -4.42821,-0.11409 -1.73047,0.80978 c -1.15288,0.5395 -2.213803,1.31685 -3.178562,2.32896 -1.353441,1.41987 -1.448098,1.47378 -1.448098,0.82478 0,-0.84186 2.072082,-2.71732 4.1619,-3.76698 3.25018,-1.63247 6.79559,-1.53419 15.28497,0.42373 4.42493,1.02053 5.10197,1.10674 9.55158,1.21627 3.57901,0.0881 5.45885,0.0114 7.4399,-0.30355 3.32662,-0.52888 9.10607,-0.54235 11.58353,-0.027 2.30606,0.47971 5.59533,2.13175 6.16574,3.09676 0.37111,0.62785 0.37605,0.79801 0.0413,1.42344 -0.20909,0.39069 -0.76521,0.89396 -1.23583,1.11838 -0.77354,0.36887 -1.30702,0.36546 -5.55929,-0.0356 -8.84989,-0.83463 -11.44508,-0.47184 -13.85355,1.93663 l -1.27748,1.27748 0.15707,3.13328 c 0.24128,4.81315 -0.56712,7.46498 -3.13077,10.27002 -2.46542,2.69756 -5.0835,3.55897 -12.83964,4.22451 -5.33084,0.45744 -9.85235,0.53253 -7.80504,0.12962 z m 18.76722,-0.77447 c 3.72509,-1.86447 6.57907,-5.40532 8.67629,-10.76444 0.50219,-1.28327 1.35971,-2.91858 1.90559,-3.63402 1.14889,-1.50575 3.11211,-2.93835 4.56155,-3.32865 0.55509,-0.14946 3.48216,-0.3714 6.5046,-0.49318 l 5.49536,-0.22142 0.60371,-0.70185 c 0.77794,-0.90441 1.19779,-2.41265 0.89402,-3.21163 -0.37145,-0.97698 -1.27716,-1.66935 -4.05307,-3.09835 -3.10938,-1.60067 -5.81744,-3.34211 -8.56007,-5.50465 -2.6175,-2.06387 -2.93929,-2.1357 -4.66448,-1.04116 -5.9774,3.79232 -7.34092,4.39055 -10.98901,4.82128 -3.84745,0.45428 -6.49833,0.0149 -11.8874,-1.97048 l -4.42937,-1.63178 -3.43958,-0.0222 -3.43958,-0.0222 -2.315106,1.11228 c -1.707358,0.8203 -2.315104,1.01028 -2.315104,0.72372 0,-0.47852 1.248559,-1.2639 3.175,-1.99717 0.98365,-0.37441 2.31259,-0.59461 4.10104,-0.67953 3.0368,-0.14419 3.89002,0.0491 10.31875,2.33806 l 3.96875,1.41305 h 3.83646 c 5.22287,0 5.9374,-0.25416 12.6883,-4.51326 1.49921,-0.94584 2.76147,-1.15689 3.7512,-0.6272 0.29134,0.15592 1.83467,1.27146 3.42962,2.47897 1.59495,1.20751 4.41461,3.0033 6.26592,3.99064 4.23729,2.25984 4.99607,2.8194 5.22277,3.85154 0.30617,1.39401 -0.0989,3.09194 -0.97602,4.09089 l -0.80327,0.91488 -3.08145,0.0135 c -1.69479,0.007 -4.33587,0.11032 -5.86906,0.22869 -4.56296,0.35228 -6.85375,1.84618 -8.50443,5.54603 -2.35775,5.28466 -3.78639,7.8244 -5.23288,9.30268 -2.09612,2.14217 -4.57687,3.69455 -5.90402,3.69455 -1.04326,0 -1.03848,-0.005 1.06497,-1.05755 z m 8.61857,-0.99297 c 0.76774,-1.12779 2.189,-3.67328 3.15837,-5.65664 2.08936,-4.27491 3.62694,-6.13892 6.07155,-7.3605 3.69945,-1.84864 8.34814,-0.43049 7.78693,2.37552 -0.0917,0.45829 -0.88708,1.78935 -1.76761,2.9579 -2.47755,3.28796 -3.69446,6.11793 -3.69446,8.59164 0,0.62843 -0.11906,1.1426 -0.26458,1.1426 -0.15216,0 -0.26459,-0.81829 -0.26459,-1.9257 0,-1.65086 0.12821,-2.18895 0.8983,-3.77031 0.49406,-1.01454 1.44232,-2.61852 2.10726,-3.56441 2.25973,-3.21454 2.61109,-3.89068 2.31213,-4.44931 -0.44552,-0.83246 -2.11264,-1.46525 -3.86782,-1.46813 -3.36586,-0.006 -5.92586,2.2954 -8.58839,7.71918 -2.03974,4.15509 -4.17184,7.45868 -4.81377,7.45868 -0.3695,0 -0.17258,-0.43573 0.92668,-2.05052 z m 15.78811,0.60833 c 0,-3.15415 0.73823,-4.96366 4.48194,-10.98592 1.21875,-1.96052 2.73295,-4.55304 3.3649,-5.76117 1.13807,-2.1757 1.149,-2.22238 1.149,-4.90937 0,-2.91948 -0.0883,-3.17524 -1.69363,-4.90422 -1.06368,-1.14564 -2.06786,-1.63909 -5.45012,-2.67822 -5.16508,-1.58685 -7.51102,-3.29327 -10.63845,-7.73834 -1.4879,-2.11476 -2.29757,-2.7188 -3.3164,-2.47412 -0.46103,0.11073 -1.94675,1.43687 -4.03682,3.60324 -4.29829,4.45521 -4.59511,4.58087 -10.84792,4.59252 l -4.36562,0.008 -3.175,-1.0949 c -1.74625,-0.6022 -4.60308,-1.59952 -6.3485,-2.21626 -3.98594,-1.40842 -7.01181,-1.67919 -9.460356,-0.84656 -1.420937,0.48318 -1.521354,0.48705 -1.521354,0.0586 0,-0.76216 2.977684,-1.42671 5.48995,-1.22522 2.35709,0.18905 4.17911,0.68522 8.74699,2.38198 5.06676,1.88208 7.38185,2.39959 10.76618,2.40665 5.14043,0.0107 6.93775,-0.85053 10.62798,-5.09279 2.3282,-2.67649 3.08679,-3.22144 4.48438,-3.22144 1.42454,0 2.24741,0.67279 4.15838,3.39994 1.64203,2.34336 3.70607,4.30718 5.45588,5.19099 0.6614,0.33407 2.39318,0.98083 3.84839,1.43723 5.56502,1.7454 7.13609,3.01789 7.97857,6.46222 0.79865,3.26517 -0.0783,5.79612 -4.41655,12.74608 -3.60297,5.77207 -4.48807,7.89477 -4.48807,10.76365 0,1.19204 -0.0896,1.53948 -0.39687,1.53948 -0.30424,0 -0.39688,-0.33663 -0.39688,-1.44219 z m 3.60495,0.61537 c -0.73581,-3.67908 0.82025,-8.13272 4.61059,-13.1961 3.23976,-4.32786 4.55248,-6.39944 5.18968,-8.18971 0.58231,-1.63604 0.60709,-1.96864 0.44661,-5.99343 -0.16629,-4.17026 -0.15728,-4.27391 0.42214,-4.85332 0.5022,-0.50221 0.779045,-0.56839 1.824145,-0.43605 0.67765,0.0858 1.44045,0.18196 1.69511,0.21367 0.37368,0.0465 0.46098,0.31472 0.45243,1.39002 l -0.0106,1.33236 -0.41464,-0.79375 c -0.56907,-1.08938 -1.10176,-1.45521 -2.11897,-1.45521 -1.304475,0 -1.452585,0.51574 -1.164215,4.05382 0.27875,3.41993 0.0425,5.80393 -0.76091,7.67819 -0.58386,1.36209 -2.21372,3.81828 -5.03161,7.58258 -1.03487,1.38245 -2.44353,3.63329 -3.13034,5.00188 l -1.24874,2.48834 v 3.00158 c 0,2.0469 -0.0947,3.00164 -0.29766,3.00177 -0.16371,1e-4 -0.37207,-0.37189 -0.46302,-0.82664 z m 5.00792,0.58474 c -0.0823,-0.13314 -0.22108,-0.93681 -0.30843,-1.78593 -0.35252,-3.42671 0.88744,-6.63885 4.6262,-11.98429 2.681415,-3.83372 3.213565,-4.68856 4.423225,-7.10547 0.77176,-1.54198 0.886,-1.66695 0.89122,-0.97494 0.01,1.25818 -1.07276,3.26417 -4.351085,8.06486 -1.67978,2.45982 -3.40072,5.20522 -3.8243,6.10089 -1.08643,2.29724 -1.45761,4.75372 -0.9879,6.5379 0.29611,1.12477 0.30052,1.38906 0.0232,1.38906 -0.18838,0 -0.40983,-0.10894 -0.49211,-0.24208 z m 4.08843,-0.88399 c -0.7354,-1.66249 -1.09567,-4.27937 -0.7819,-5.67945 0.39712,-1.77206 1.59034,-3.93347 3.622245,-6.56138 2.05321,-2.65548 2.71568,-3.32433 2.71283,-2.73894 -9.7e-4,0.19972 -0.60246,1.13704 -1.33664,2.08292 -2.361575,3.04253 -3.429835,4.83158 -3.993945,6.6888 -0.74971,2.46826 -0.52333,4.01635 1.04346,7.13568 0.0548,0.10914 -0.0955,0.19844 -0.33413,0.19844 -0.25604,0 -0.63792,-0.46145 -0.93192,-1.12607 z m 20.291835,0.35634 c 3.14035,-1.23911 4.25005,-2.05118 8.74757,-6.40145 2.48217,-2.40089 4.7841,-4.3946 5.44135,-4.71277 2.63705,-1.27657 6.49144,-0.37068 8.14702,1.91479 1.25123,1.72727 1.69737,3.66128 1.33525,5.78835 -0.34509,2.02705 -1.2952,4.18081 -1.84432,4.18081 -0.25364,0 -0.30939,-0.1477 -0.17476,-0.46302 1.96852,-4.61039 1.9322,-7.15859 -0.13232,-9.28594 -1.33592,-1.37657 -2.37512,-1.9021 -4.11673,-2.08185 -2.12494,-0.21931 -3.20279,0.44698 -7.29694,4.51075 -5.2963,5.25701 -8.3516,7.32894 -10.78081,7.31095 l -1.22991,-0.009 z m 24.86693,-0.86674 c 1.90895,-4.64297 0.50967,-9.52093 -3.3559,-11.69885 -1.34695,-0.75889 -1.64221,-0.81946 -3.96875,-0.81417 -3.57577,0.008 -4.40315,0.48399 -9.39271,5.40207 -2.66865,2.63041 -4.42714,4.14369 -5.36804,4.6195 -1.55462,0.78616 -4.86251,1.62331 -5.47922,1.38666 -0.7184,-0.27568 -0.4154,-0.69833 0.50064,-0.69833 1.39519,0 4.12497,-0.95216 5.58412,-1.94776 1.4416,-0.98363 2.28883,-1.77406 5.67967,-5.29886 4.16606,-4.33064 8.41865,-5.43879 12.68679,-3.30597 1.81359,0.90626 3.00188,2.1441 3.89076,4.053 0.52886,1.13576 0.62206,1.74386 0.61093,3.98605 -0.0147,2.96153 -0.77876,5.73796 -1.62378,5.90059 -0.39337,0.0757 -0.36307,-0.12811 0.23549,-1.58393 z m 3.61682,0.81028 c 0.0899,-0.49148 0.24148,-2.27566 0.33676,-3.96484 0.15188,-2.69245 0.10365,-3.30035 -0.39103,-4.929 -0.63625,-2.09469 -2.26926,-4.51326 -3.94176,-5.8379 -0.59025,-0.46749 -1.88843,-1.23609 -2.88484,-1.708 -1.71633,-0.81289 -1.97173,-0.85803 -4.85435,-0.85803 -2.66491,0 -3.20056,0.0777 -4.31404,0.62596 -1.79955,0.88604 -3.89069,2.51447 -7.21963,5.62211 -4.24244,3.9604 -5.16262,4.63651 -6.60463,4.85275 -0.69769,0.10463 -1.34909,0.077 -1.48925,-0.0632 -0.15579,-0.15579 0.1648,-0.31533 0.85565,-0.4258 1.48188,-0.23696 2.64871,-1.0954 6.85177,-5.04089 3.81086,-3.57731 5.37492,-4.7434 7.80179,-5.81668 1.45751,-0.64458 1.69022,-0.67023 4.58212,-0.50506 2.80929,0.16045 3.20896,0.2525 5.13029,1.18163 3.39345,1.64104 5.33714,3.77306 6.62158,7.2632 0.48233,1.31058 0.57149,2.08481 0.54601,4.74136 -0.0348,3.62292 -0.30481,5.46091 -0.82802,5.63531 -0.27838,0.0928 -0.32418,-0.0856 -0.19842,-0.77296 z m 5.24173,-2.22447 c -1.44879,-7.43388 -2.91861,-10.69285 -6.38391,-14.15477 -3.68223,-3.67864 -6.88515,-5.01957 -11.98966,-5.01957 -2.70336,0 -2.82949,0.0271 -4.8566,1.04362 -2.74474,1.37639 -4.56164,3.04603 -7.47644,6.87048 -1.32334,1.73633 -2.72066,3.40441 -3.10514,3.70685 -0.68844,0.54153 -1.7701,0.70407 -2.59044,0.38928 -0.79211,-0.30396 -0.41641,-0.63315 0.72261,-0.63315 1.33586,0 1.4663,-0.11993 4.53572,-4.17029 4.35156,-5.74227 8.03213,-8.00054 13.0394,-8.00054 5.42315,0 9.92381,2.23316 13.68119,6.7884 2.4662,2.98989 3.74694,6.17179 5.04031,12.52227 0.77117,3.78643 0.76441,3.70808 0.31988,3.70808 -0.22594,0 -0.54457,-1.03746 -0.93692,-3.05066 z m 4.71912,0.73555 c -2.72705,-10.36542 -5.96151,-15.98039 -11.5983,-20.13442 -3.69969,-2.7265 -6.21437,-3.57122 -10.62694,-3.56975 -2.75567,9.1e-4 -3.24888,0.0784 -5.2283,0.82184 -2.66935,1.00252 -4.61642,2.16522 -7.65776,4.57288 -1.27776,1.01153 -2.47299,1.83914 -2.65607,1.83914 -1.63472,0 3.29367,-5.60357 6.70992,-7.62916 2.81404,-1.66852 5.08775,-2.41952 7.87016,-2.59949 5.77515,-0.37354 10.56934,1.52927 14.63385,5.80814 3.25134,3.42281 11.59834,15.43204 14.06867,20.24127 1.49275,2.90608 1.51368,2.96608 1.03297,2.96152 -0.1819,-0.002 -0.86651,-1.04157 -1.52135,-2.31076 -2.74351,-5.31736 -12.09994,-18.56368 -15.02544,-21.27218 -3.43403,-3.1793 -7.21651,-4.76779 -11.43189,-4.80092 -4.8156,-0.0379 -8.4861,1.47654 -12.10294,4.9935 l -2.31786,2.25386 1.70156,-1.21799 c 5.38595,-3.85528 10.5228,-5.2812 15.36407,-4.26486 4.24691,0.89156 8.95353,3.98577 12.43695,8.17627 2.69374,3.24051 4.98951,8.31909 6.75759,14.94877 0.37718,1.41427 0.7451,2.77977 0.81761,3.03443 0.0812,0.28504 -0.0122,0.46302 -0.24279,0.46302 -0.24817,0 -0.58024,-0.7815 -0.98371,-2.31511 z m 9.50524,0.68894 c -1.07217,-2.12397 -1.32769,-4.81851 -0.65312,-6.88744 1.229,-3.76938 4.47785,-6.97975 8.08098,-7.98528 1.74769,-0.48772 10.84791,-0.91387 10.84791,-0.50798 0,0.29835 -2.68793,0.59709 -5.42396,0.60282 -5.97721,0.0125 -9.91433,2.17613 -12.17204,6.68903 -0.81404,1.62715 -0.92481,2.09001 -0.92462,3.86359 2.1e-4,2.04157 -0.005,2.02394 1.79739,5.65299 0.0542,0.10914 -0.0882,0.19844 -0.31654,0.19844 -0.24302,0 -0.75541,-0.67413 -1.236,-1.62617 z m 2.05187,1.15001 c -0.75345,-0.83256 -1.30784,-2.77195 -1.33873,-4.68322 -0.0265,-1.63726 0.0751,-2.04606 0.87572,-3.52449 1.51779,-2.80284 4.69416,-5.03289 7.95566,-5.58547 2.45711,-0.4163 8.73125,-0.51036 8.73125,-0.13089 0,0.22988 -0.91067,0.37038 -3.10885,0.47966 -6.99706,0.34784 -9.23206,1.05121 -11.557,3.6371 -1.63296,1.81625 -2.09554,2.93589 -2.11701,5.12409 -0.023,2.33776 0.18501,3.06828 1.20368,4.22848 0.7195,0.81947 0.75562,0.9309 0.30177,0.9309 -0.28357,0 -0.70949,-0.21427 -0.94649,-0.47616 z m 13.84265,-0.71447 c 2.17284,-1.29716 2.38125,-1.36884 2.38125,-0.819 0,0.50515 -2.7259,2.01035 -3.63401,2.00664 -0.61459,-0.003 -0.4142,-0.19248 1.25276,-1.18764 z m -80.33496,-0.56235 c -0.92024,-1.33704 -1.02398,-1.65445 -1.02015,-3.12154 0.004,-1.38669 0.13384,-1.83508 0.86292,-2.97125 0.47226,-0.73596 1.09542,-1.55237 1.3848,-1.81426 0.83593,-0.75651 0.64739,0.0558 -0.39133,1.68593 -0.6,0.94165 -0.96364,1.89666 -1.08157,2.84048 -0.16384,1.31134 -0.10847,1.52995 0.71226,2.81219 l 0.88991,1.39031 0.16089,-1.0558 c 0.15717,-1.0314 0.16176,-1.02371 0.19844,0.33327 0.0498,1.84406 -0.39639,1.81823 -1.71617,-0.0993 z m 70.47167,-0.46486 c -0.37409,-0.34669 -0.82704,-1.1206 -1.00656,-1.7198 -0.87824,-2.93128 2.11856,-6.03586 6.42785,-6.65902 2.21507,-0.32033 6.82325,-0.31942 6.82325,0.001 0,0.3446 -1.17461,0.49838 -4.76525,0.62387 -3.33962,0.1167 -4.38985,0.46698 -6.22111,2.07485 -1.75551,1.54135 -2.22285,3.47372 -1.16527,4.81821 0.45999,0.58477 0.7587,0.69714 1.85331,0.69714 1.07509,0 1.80572,-0.26385 4.14799,-1.49794 4.01501,-2.11543 4.6348,-2.41239 5.47506,-2.62328 1.69315,-0.42495 0.32906,0.50205 -3.90559,2.65415 -3.7471,1.90432 -4.64844,2.26082 -5.71606,2.26082 -0.96857,0 -1.42787,-0.14865 -1.94762,-0.63034 z m -138.832535,-0.8033 c 0,-0.22773 0.650235,-0.58268 1.653646,-0.90269 2.256964,-0.71979 2.365844,-0.74056 8.594234,-1.63909 6.33637,-0.91411 7.78715,-1.27976 10.0406,-2.53061 3.73699,-2.07432 5.09432,-5.43552 3.48662,-8.63401 -1.68187,-3.34605 -5.92895,-5.76407 -10.28135,-5.85354 -3.82567,-0.0787 -4.68693,0.41731 -7.58775,4.3695 -1.88076,2.56241 -2.869685,3.31525 -4.681033,3.56352 -1.602191,0.21961 -1.589128,-0.22604 0.01923,-0.65621 1.428712,-0.38213 3.104163,-1.95662 5.191433,-4.87862 1.64984,-2.30963 2.70121,-2.86632 5.73049,-3.03421 4.0932,-0.22687 7.5086,0.88672 10.09052,3.29 4.56063,4.24509 3.61009,9.84818 -2.16947,12.78826 -2.01765,1.02639 -3.68173,1.40983 -10.29485,2.37217 -3.20638,0.46659 -6.525923,1.10942 -7.612346,1.47412 -2.264944,0.76031 -2.179978,0.74974 -2.179978,0.27141 z m 0,-3.99859 c 0,-0.45906 0.925765,-0.69905 6.08542,-1.57758 12.15619,-2.06982 14.13871,-3.08091 12.68175,-6.46772 -0.8983,-2.08816 -3.07708,-3.71147 -4.99145,-3.71891 -1.07734,-0.004 -2.59212,1.11315 -3.55223,2.62022 -1.24587,1.95562 -3.51649,4.12933 -4.99777,4.78446 -0.61857,0.27358 -2.047413,0.58101 -3.175199,0.68317 -1.725295,0.15628 -2.050521,0.12307 -2.050521,-0.20944 0,-0.30115 0.460417,-0.43 1.935127,-0.54153 3.398573,-0.25703 5.063193,-1.3058 7.229333,-4.55471 1.50007,-2.24991 2.0608,-2.77145 3.51742,-3.2716 3.57606,-1.22791 8.23825,3.44325 6.91372,6.92702 -0.67536,1.77633 -3.47379,2.73699 -12.43516,4.26883 -2.99236,0.5115 -5.827602,1.0416 -6.300544,1.178 -0.67701,0.19525 -0.859896,0.16968 -0.859896,-0.12021 z m 127.699165,-5.15877 c -0.41581,-0.1245 -0.99716,-0.4416 -1.29187,-0.70466 -0.77484,-0.69164 -4.1074,-4.85772 -7.82584,-9.78321 -1.77623,-2.3528 -3.83778,-4.82472 -4.58123,-5.49314 -1.71969,-1.54615 -5.0855,-3.20099 -7.63773,-3.75516 -2.76913,-0.60127 -7.82081,-0.59716 -10.05417,0.008 -5.19466,1.408 -9.992,5.97355 -13.23486,12.59541 -1.30548,2.66576 -1.353,2.72544 -1.21124,1.52126 0.28374,-2.41029 3.06761,-6.76018 6.59085,-10.29841 2.07563,-2.08447 4.12328,-3.38531 6.66463,-4.23393 1.64229,-0.54841 2.34658,-0.61847 6.21771,-0.61847 4.92854,0 6.69473,0.38121 10.15451,2.19172 2.67761,1.4012 4.21628,2.96624 8.46202,8.60703 6.32899,8.40856 7.7222,9.84898 9.03783,9.34412 1.038,-0.39832 0.69291,-1.00038 -2.18514,-3.8123 -1.59695,-1.56025 -4.09405,-4.3251 -5.54911,-6.14411 -1.45507,-1.81901 -3.95896,-4.57373 -5.56421,-6.1216 -2.4274,-2.34064 -3.32958,-3.02003 -5.36031,-4.03662 -1.34293,-0.67227 -3.58889,-1.57919 -4.99104,-2.01538 -1.40214,-0.43618 -2.91896,-1.01842 -3.3707,-1.29386 -1.42367,-0.86804 -1.40963,-2.94537 0.0262,-3.88619 1.604,-1.05098 6.64413,0.34267 10.62606,2.93822 2.85323,1.85983 6.95394,5.91557 10.83002,10.71126 3.60395,4.45901 4.76728,5.60157 6.63249,6.51413 1.88885,0.92413 3.55073,1.05329 6.84403,0.53192 1.45177,-0.22983 4.1874,-0.53802 6.07917,-0.68486 4.26127,-0.33077 5.05756,-0.55288 6.73454,-1.87845 0.82387,-0.65123 1.33525,-0.91289 1.33525,-0.68322 0,0.47152 -1.92742,2.22705 -2.81603,2.5649 -0.36943,0.14045 -2.65516,0.43581 -5.07939,0.65635 -2.42424,0.22053 -5.16239,0.53108 -6.08479,0.6901 -0.9224,0.15901 -2.70833,0.23919 -3.96875,0.17815 -1.9818,-0.096 -2.52009,-0.23296 -3.98104,-1.01319 -1.77227,-0.9465 -2.68284,-1.88805 -6.77749,-7.00812 -6.19779,-7.74989 -11.69441,-11.87909 -17.37716,-13.05415 l -2.11495,-0.43733 -0.77103,0.86294 c -0.42407,0.47461 -0.77103,0.9858 -0.77103,1.13598 0,0.66845 1.54018,1.57678 4.00911,2.36439 3.4826,1.11098 5.26301,1.9106 7.36797,3.30911 2.1942,1.4578 6.76365,6.07763 9.55022,9.65552 1.19003,1.52797 3.51665,4.09267 5.17028,5.69934 1.9838,1.92747 3.00658,3.11362 3.00658,3.48683 0,0.56362 -0.62976,1.39716 -1.05559,1.39716 -0.12322,0 -0.38261,0.0492 -0.57641,0.10935 -0.19381,0.0601 -0.69259,0.007 -1.10841,-0.11701 z m -45.82653,-8.72359 c 0.19076,-1.09759 1.37829,-3.46641 4.44345,-8.86354 2.7046,-4.76226 4.35852,-8.02871 5.65226,-11.16309 1.23337,-2.98811 1.95618,-4.21301 3.20223,-5.42659 1.36289,-1.32739 2.6162,-1.79948 4.76727,-1.79572 3.15866,0.006 6.05236,1.07964 9.13094,3.3893 2.35136,1.76407 8.05244,7.53911 11.55325,11.7031 3.589,4.2689 6.3778,7.17558 7.88656,8.2199 2.73284,1.89161 5.91089,2.5866 9.64072,2.10827 4.45704,-0.57159 6.77666,-1.67007 11.27412,-5.33898 1.39454,-1.13763 1.65364,-1.26489 1.65364,-0.81222 0,0.69317 -4.55631,4.15868 -6.90752,5.25382 -2.77633,1.29316 -4.02373,1.53518 -7.90914,1.53455 -4.10369,-6.7e-4 -5.30988,-0.30622 -7.95327,-2.01473 -2.06424,-1.33418 -3.49449,-2.78155 -7.81319,-7.90673 -3.82435,-4.5385 -9.41641,-10.23647 -11.87561,-12.10051 -0.87691,-0.66469 -2.42783,-1.59674 -3.44648,-2.07121 -5.60981,-2.61297 -9.09585,-1.5723 -11.4912,3.4304 -0.56422,1.17839 -1.79375,3.75712 -2.73227,5.73052 -0.93853,1.97339 -2.83897,5.6048 -4.2232,8.06979 -1.38423,2.46499 -2.94445,5.31524 -3.46715,6.33388 -1.30202,2.53739 -1.58954,2.89429 -1.38541,1.71979 z m -0.11234,-7.61337 c -0.002,-0.33106 0.41291,-1.42989 0.92252,-2.44185 1.57359,-3.12473 2.4042,-5.50067 3.69368,-10.56572 0.68306,-2.68304 1.51963,-5.42625 1.85903,-6.09604 1.21488,-2.39745 4.08872,-4.39572 7.27905,-5.06135 2.00769,-0.41888 6.05683,-0.1452 8.33438,0.56332 5.45584,1.69727 8.96587,4.56322 15.22297,12.4296 2.89169,3.63541 6.86591,7.57698 8.85411,8.78138 4.61906,2.7981 9.93065,3.01696 14.80213,0.60991 1.04992,-0.51877 3.32817,-2.07215 5.06278,-3.45196 2.31644,-1.84263 3.1778,-2.3957 3.24408,-2.08301 0.0496,0.23415 -0.12896,0.58357 -0.39688,0.77649 -0.26791,0.19291 -1.6182,1.25996 -3.00065,2.37122 -4.60752,3.70367 -7.8045,4.82297 -13.08129,4.57991 -3.0308,-0.1396 -4.79612,-0.72561 -7.42613,-2.46516 -2.17138,-1.4362 -5.79894,-5.11147 -9.26156,-9.38337 -7.6665,-9.45829 -12.62365,-12.43258 -20.20071,-12.12039 -2.31151,0.0952 -3.08693,0.23942 -4.31765,0.80287 -1.62826,0.74544 -3.61449,2.42476 -4.43154,3.74677 -0.28273,0.45747 -1.04829,2.97311 -1.70125,5.59032 -1.38122,5.53623 -2.1822,7.87235 -3.7634,10.97627 -1.50365,2.95169 -1.68844,3.218 -1.69367,2.44079 z m 52.12432,-2.17949 c -5.51602,-1.48516 -10.72727,-5.26727 -14.91198,-10.82251 -2.46273,-3.26931 -3.16994,-4.73236 -3.30526,-6.83782 -0.12838,-1.99759 0.22306,-2.95393 1.49638,-4.07192 l 0.94646,-0.831 3.53034,0.16931 c 5.74692,0.27562 6.65541,-0.10696 9.72987,-4.09742 3.06436,-3.97733 4.31078,-4.74832 6.70272,-4.14602 2.04088,0.5139 5.55485,4.4092 7.56788,8.38913 0.62726,1.24015 0.71941,1.72507 0.69833,3.67499 -0.0309,2.85762 -0.31056,3.86427 -1.61711,5.82084 -2.28674,3.42442 -5.52611,5.14812 -10.53401,5.60523 -2.59004,0.23641 -3.3641,0.70352 -2.58763,1.56152 0.94719,1.04663 3.05639,1.73861 5.32126,1.74578 1.83827,0.006 2.27905,-0.0887 3.35123,-0.71903 0.67901,-0.39915 1.6687,-1.23259 2.19932,-1.85208 1.11809,-1.30536 3.61108,-5.28654 5.07631,-8.1066 0.90584,-1.74346 1.01371,-2.15651 1.00455,-3.84678 -0.009,-1.61194 -0.15111,-2.19019 -0.9572,-3.8876 -0.52082,-1.0967 -1.71165,-3.17565 -2.64629,-4.61989 -0.93463,-1.44424 -2.13065,-3.3998 -2.65781,-4.34568 -1.53279,-2.75029 -2.54255,-3.42244 -4.39291,-2.92419 -1.5463,0.41637 -3.23717,1.84996 -5.56222,4.71587 -3.84509,4.73955 -5.43524,5.83539 -8.02291,5.52892 -1.79632,-0.21275 -3.43958,-1.10567 -7.643,-4.15308 -1.99904,-1.44927 -5.166,-3.5406 -7.03768,-4.64739 -7.89024,-4.66581 -9.34302,-6.17758 -13.33958,-13.88131 -2.91765,-5.62403 -5.00555,-7.60495 -8.52393,-8.0872 -1.38452,-0.18977 -4.24788,0.48071 -5.2859,1.23774 l -0.7276,0.53065 v -0.55195 c 0,-1.26895 4.44577,-2.22355 7.44966,-1.5996 3.10597,0.64516 4.90812,2.56193 7.85389,8.35343 3.68832,7.2514 5.58737,9.17587 13.40723,13.58676 1.60265,0.90399 4.69828,2.96612 6.87917,4.5825 2.18089,1.61637 4.44151,3.15778 5.02359,3.42535 1.15703,0.53184 3.14921,0.6457 4.21408,0.24084 1.01084,-0.38432 2.89031,-2.21478 5.20293,-5.06727 2.29025,-2.8249 3.56058,-3.94338 5.40571,-4.75957 2.21297,-0.97891 3.85991,-0.18736 5.45855,2.62347 0.47156,0.82913 1.67499,2.79436 2.67429,4.36718 0.9993,1.57282 2.28553,3.82871 2.85828,5.01308 0.95431,1.9734 1.04137,2.33616 1.04137,4.33941 0,2.05939 -0.0659,2.31304 -1.13793,4.37962 -0.62587,1.2065 -1.84184,3.32473 -2.70217,4.70717 -3.00308,4.8256 -4.76382,6.08542 -8.50505,6.08542 -3.24798,0 -5.67403,-1.05098 -6.26025,-2.71198 -0.3931,-1.11384 0.48583,-1.61345 3.39186,-1.92803 5.38505,-0.58294 8.77787,-2.63382 10.71914,-6.47946 0.7605,-1.50654 0.83834,-1.88699 0.83834,-4.09757 0,-1.99791 -0.10635,-2.64596 -0.59046,-3.59791 -1.759,-3.4589 -5.26402,-7.38 -7.08443,-7.9254 -2.00478,-0.60065 -3.0167,0.0617 -5.84685,3.82713 -1.80923,2.40712 -3.08931,3.54468 -4.65033,4.13259 -0.50647,0.19074 -2.29344,0.26791 -4.93745,0.21322 -4.10853,-0.085 -4.14974,-0.0801 -4.85379,0.57574 -0.39054,0.36381 -0.89062,1.00861 -1.11128,1.43291 -1.21985,2.34557 1.31271,7.0821 6.66919,12.47305 2.67644,2.69366 5.27983,4.43345 8.77797,5.86614 2.05663,0.84231 2.67366,0.97054 5.18343,1.07723 3.458,0.147 4.70377,-0.23639 6.63521,-2.04206 1.44923,-1.35486 3.94199,-4.82992 5.89329,-8.21559 1.10138,-1.91099 1.30326,-2.13905 1.37229,-1.55018 0.0893,0.76148 -1.0511,2.776 -3.79339,6.70121 -3.19305,4.57043 -4.97065,5.73161 -8.98755,5.87091 -1.76422,0.0612 -2.89402,-0.0555 -4.36017,-0.45023 z m -114.040865,-4.1241 c -5.02799,-1.34201 -10.52534,-5.61377 -13.90405,-10.80424 -2.659622,-4.0858 -5.219139,-10.99753 -4.072547,-10.99753 1.190332,0 3.389377,2.40393 7.459347,8.15434 3.18051,4.49369 5.34304,6.5705 8.41844,8.08476 2.90547,1.43058 4.73566,1.84073 7.12589,1.59692 2.06839,-0.21099 2.85949,-0.58636 4.53111,-2.14995 1.5817,-1.4795 2.32868,-3.34154 2.52004,-6.28187 0.12051,-1.85176 0.0155,-2.60923 -0.80874,-5.83232 -1.08374,-4.23796 -1.12329,-4.66125 -0.48772,-5.21937 0.90175,-0.79184 1.59569,-0.81576 2.33108,-0.0804 0.81879,0.81879 2.08901,3.53054 2.6342,5.62369 0.45809,1.75869 0.52201,7.25978 0.10538,9.06876 -0.70963,3.08119 -3.11364,6.31851 -5.76278,7.76036 -2.68507,1.4614 -6.94531,1.91607 -10.08965,1.07682 z m 5.97068,-0.39519 c 5.89483,-1.08612 9.62344,-6.05127 9.63583,-12.83144 0.006,-3.3836 -1.63428,-8.63954 -3.11468,-9.9793 -0.46648,-0.42215 -0.52585,-0.41331 -1.06291,0.15836 l -0.56883,0.60549 0.82512,2.89984 c 0.73509,2.58344 0.82825,3.30402 0.85381,6.60402 0.0273,3.52375 -0.005,3.76859 -0.67135,5.02708 -0.8749,1.65338 -2.628,3.40663 -4.13654,4.1369 -1.02441,0.49591 -1.48505,0.54419 -4.11166,0.43093 -3.50215,-0.151 -5.06013,-0.66108 -7.976,-2.61134 -2.41737,-1.61683 -3.85392,-3.1777 -7.26199,-7.89047 -2.61581,-3.61721 -5.406283,-6.89831 -5.866791,-6.89831 -0.602194,0 2.599981,7.22537 4.338601,9.78958 3.39786,5.01137 9.30733,9.42772 13.96798,10.43875 2.12232,0.46039 3.16915,0.48477 5.14941,0.11991 z M 115.049,179.66621 c 0,-0.14453 0.29011,-1.26967 0.6447,-2.50031 0.35458,-1.23064 1.13553,-4.44018 1.73545,-7.13231 1.24226,-5.57469 1.89408,-7.15545 3.59819,-8.72625 2.60673,-2.4028 6.16939,-3.23116 11.59726,-2.6965 4.31127,0.42467 6.51797,0.40155 7.19896,-0.0754 0.30286,-0.21212 0.8097,-0.98786 1.12631,-1.72385 1.07825,-2.50646 0.3533,-3.59479 -4.8665,-7.30589 -1.69827,-1.20741 -4.23976,-3.39669 -6.10223,-5.25657 -2.5632,-2.55963 -3.49636,-3.70847 -4.73813,-5.83321 -0.85047,-1.45521 -2.00877,-3.09232 -2.57401,-3.63802 -0.92655,-0.89453 -1.16686,-0.99219 -2.44155,-0.99219 -1.02967,0 -1.79378,0.19847 -2.81202,0.73041 -0.76899,0.40172 -1.43966,0.85489 -1.49037,1.00704 -0.0507,0.15215 0.5078,0.43042 1.24116,0.61837 2.32953,0.59705 3.74567,2.6861 2.79962,4.12995 -0.23187,0.35388 -1.06944,1.05785 -1.86126,1.56437 -2.3222,1.48549 -2.33092,1.51413 -1.86663,6.12642 0.65343,6.4911 0.40028,12.09625 -0.80562,17.83802 l -0.3612,1.7198 0.13688,-2.51355 c 0.0753,-1.38244 0.31883,-4.11968 0.54121,-6.08274 0.37108,-3.27569 0.36619,-4.04033 -0.0595,-9.29824 -0.55479,-6.85264 -0.54185,-6.91276 1.79271,-8.33093 1.851,-1.12443 2.32559,-1.89642 1.78584,-2.90495 -0.39773,-0.74316 -1.72579,-1.51904 -3.11269,-1.8185 -2.67707,-0.57804 0.10669,-3.27766 3.60955,-3.50046 2.6929,-0.17127 3.56092,0.58909 6.91933,6.06115 1.73274,2.82325 5.14943,6.21502 9.74684,9.67572 2.22866,1.67763 4.35998,3.45387 4.73626,3.94721 1.43328,1.87912 0.89694,5.22782 -1.03131,6.4391 -0.78767,0.4948 -1.14981,0.53632 -3.52373,0.40397 -7.94326,-0.44287 -8.84875,-0.45918 -10.13811,-0.18266 -2.937,0.62987 -5.254,2.23431 -6.48026,4.48736 -0.47078,0.86498 -1.18039,3.27332 -2.01591,6.84181 -1.28669,5.49543 -2.15781,8.41321 -2.66248,8.91788 -0.17396,0.17397 -0.26678,0.17535 -0.26678,0.004 z m -29.504495,-0.56533 c -3.0484,-1.09598 -5.80306,-3.45858 -9.0295,-7.74438 -2.21887,-2.94741 -3.00558,-4.54313 -3.00558,-6.09635 0,-1.41543 0.46206,-1.98375 1.94597,-2.39347 1.85109,-0.51111 2.56517,0.20411 5.32336,5.33194 2.9063,5.40317 3.6822,5.94509 8.47338,5.91818 2.65304,-0.0149 4.04133,-0.1981 8.44483,-1.11441 2.898395,-0.60312 5.374115,-1.24994 5.501595,-1.43738 0.15601,-0.2294 0.20639,-0.12457 0.15413,0.32066 -0.0745,0.63435 -0.26745,0.70123 -4.707855,1.63177 -8.19023,1.71635 -11.54391,1.86163 -14.02291,0.60744 -1.73522,-0.87789 -2.38474,-1.693 -4.63059,-5.81108 -2.38257,-4.36878 -2.69959,-4.7448 -3.96993,-4.70879 -1.28484,0.0364 -1.71823,0.47218 -1.71823,1.72758 0,2.87006 6.18536,10.55418 10.01204,12.43805 1.49709,0.73701 2.05262,0.86019 4.2835,0.9498 2.39052,0.096 2.92073,0.0118 7.86571,-1.24924 2.91633,-0.74371 5.671515,-1.3522 6.122655,-1.3522 0.75641,0 0.81745,0.0669 0.78422,0.8599 -0.0261,0.62184 -0.0678,0.69509 -0.15069,0.26458 -0.0631,-0.32742 -0.21651,-0.59531 -0.34099,-0.59531 -0.12448,0 -2.58674,0.60381 -5.471695,1.3418 -6.25812,1.60086 -9.62397,1.91604 -11.86342,1.11091 z m -31.49361,-4.27004 c -3.21133,-0.83817 -6.45746,-3.70205 -10.83571,-9.55975 -3.31228,-4.43154 -5.57335,-7.24169 -8.117885,-10.08922 -0.9925,-1.11068 -1.804545,-2.23429 -1.804545,-2.4969 0,-0.39607 0.140419,-0.34499 0.823713,0.29964 1.306502,1.23257 6.117277,7.05391 9.169667,11.09585 1.53852,2.03729 3.43782,4.44376 4.22066,5.3477 1.55843,1.79949 4.80994,4.13051 6.3634,4.56195 1.56956,0.4359 4.28672,0.32848 5.48402,-0.21681 2.55812,-1.16506 4.40411,-4.88167 3.22535,-6.49373 -0.31377,-0.4291 -0.44445,-0.30648 -1.38217,1.29697 -0.56961,0.97397 -1.44651,2.1316 -1.94867,2.57251 -0.85267,0.74865 -1.0198,0.79308 -2.52822,0.67199 -0.91359,-0.0733 -2.12899,-0.38863 -2.79803,-0.72587 -2.63426,-1.32782 -3.9093,-2.75446 -8.98872,-10.05742 -4.25182,-6.11308 -6.92217,-9.56608 -9.348092,-12.08789 -1.426757,-1.48315 -2.303572,-2.60291 -2.249398,-2.87265 0.06285,-0.31293 0.830471,0.32271 2.628009,2.17615 2.780391,2.86685 4.578981,5.19968 10.162671,13.18127 2.03604,2.91042 4.35682,5.95413 5.15729,6.76382 2.64794,2.67842 6.06926,3.74675 7.54851,2.35707 0.36318,-0.34118 1.20309,-1.49117 1.86646,-2.55551 1.73008,-2.7758 2.75605,-2.56381 2.75605,0.56947 0,2.52123 -1.2545,4.7037 -3.26245,5.67574 -1.27655,0.61796 -4.74934,0.94909 -6.14191,0.58562 z m 108.288265,-1.91013 c -2.37159,-0.55874 -4.07995,-1.95791 -4.70574,-3.85404 -0.29128,-0.88261 -0.27074,-1.02313 0.206,-1.40917 0.29126,-0.23584 1.49101,-0.63541 2.66613,-0.88793 2.83245,-0.60866 4.85782,-1.95351 6.88013,-4.56839 1.83292,-2.37 2.62598,-2.78723 3.94635,-2.07616 1.19525,0.64369 2.07354,1.94837 2.72603,4.04946 1.38644,4.4645 -0.17821,7.56027 -4.36205,8.63066 -1.70853,0.43711 -5.72428,0.5002 -7.35685,0.11557 z m 5.74526,-0.5021 c 3.83292,-0.62765 5.70208,-2.43293 5.70208,-5.5072 0,-3.44844 -2.55896,-7.31136 -4.10737,-6.20033 -0.149,0.10691 -0.88017,0.96829 -1.62483,1.91417 -2.3492,2.98405 -4.2212,4.18244 -7.63477,4.88753 -1.1527,0.2381 -2.14091,0.47799 -2.19601,0.53309 -0.0551,0.0551 0.038,0.51892 0.20693,1.03072 0.86972,2.63528 5.07653,4.0916 9.65397,3.34202 z m -80.155205,-1.27309 c -1.59863,-0.78055 -2.486,-1.62093 -6.67285,-6.31949 -1.05069,-1.1791 -3.71306,-3.60212 -5.91639,-5.38449 -4.28365,-3.46524 -4.62799,-3.87871 -6.87853,-8.25952 -1.19341,-2.32303 -1.39815,-2.57968 -2.05789,-2.57968 -0.94176,0 -1.85853,0.97429 -2.9228,3.10619 -0.83471,1.67208 -1.12094,3.04937 -1.9958,9.60336 -0.86933,6.51266 -2.13017,8.22992 -5.83491,7.94716 -1.58178,-0.12072 -3.20507,-2.27234 -8.41804,-11.15784 -4.02939,-6.86807 -7.78754,-11.29829 -11.818078,-13.9315 -0.943407,-0.61634 -1.820201,-1.15559 -1.948429,-1.19833 -0.128229,-0.0428 -0.189788,-0.2723 -0.136798,-0.51013 0.135599,-0.60858 3.795755,1.82 6.325205,4.1969 3.44244,3.23482 4.80041,5.16095 10.60149,15.03701 1.42905,2.43288 3.05251,4.82102 3.82213,5.6224 1.18363,1.23249 1.46169,1.39311 2.41171,1.39311 2.75931,0 3.83744,-2.44549 4.72414,-10.71562 0.46876,-4.3721 1.77675,-7.90344 3.48192,-9.40061 1.66668,-1.46336 3.03239,-0.87492 4.26019,1.83559 1.65355,3.65039 3.16711,5.44464 7.63151,9.04677 1.76542,1.42445 4.08714,3.57335 5.15937,4.77533 4.96581,5.56673 5.83052,6.28797 8.16722,6.81217 1.68701,0.37845 4.28771,-0.0405 8.93622,-1.43951 2.142835,-0.64491 4.044895,-1.17395 4.226795,-1.17564 0.1819,-0.002 0.33073,0.23133 0.33073,0.5178 0,0.32831 -0.13191,0.47024 -0.35683,0.38393 -0.19626,-0.0753 -2.19056,0.41748 -4.431765,1.09508 -3.23965,0.97947 -4.59017,1.25688 -6.58848,1.35335 -2.36671,0.11424 -2.60627,0.076 -4.10104,-0.65379 z m -54.527737,-5.65809 c -0.0077,-4.23135 0.03261,-4.71221 0.317758,-3.78822 0.418495,1.35611 0.424623,6.60969 0.009,7.75697 -0.268399,0.74097 -0.319342,0.12231 -0.326806,-3.96875 z m 55.982947,1.32172 c -1.20466,-0.45616 -2.00187,-1.10471 -4.63021,-3.76672 -1.74625,-1.76863 -4.85276,-4.65967 -6.90336,-6.42452 -2.0506,-1.76486 -4.2293,-3.77793 -4.84156,-4.4735 -1.47355,-1.67405 -3.1753,-5.15539 -3.38044,-6.91551 l -0.16189,-1.38906 h 0.79577 c 0.73045,0 0.8076,0.0883 0.94001,1.07546 0.36031,2.6863 2.5238,5.46239 7.64122,9.80488 1.77962,1.51013 4.6709,3.97713 6.42505,5.48222 3.61002,3.09745 4.89598,3.84854 7.36959,4.30432 2.55072,0.46999 4.73378,0.0416 7.839035,-1.53841 3.06748,-1.56076 2.92969,-1.50641 2.92969,-1.15557 0,0.47639 -2.90348,2.18605 -4.879685,2.8733 -1.59059,0.55316 -2.20773,0.62719 -4.50109,0.53995 -2.297,-0.0874 -2.8912,-0.21163 -4.37755,-0.91539 -0.94588,-0.44787 -2.67229,-1.6395 -3.83646,-2.64807 -1.16416,-1.00856 -4.02166,-3.44961 -6.35,-5.42454 -4.47569,-3.79635 -6.20542,-5.5059 -7.40501,-7.3186 -0.92731,-1.40125 -1.14917,-1.44166 -0.37756,-0.0688 1.17417,2.08916 2.88862,3.94427 6.4881,7.0204 2.02165,1.72772 5.04494,4.52656 6.71843,6.21965 5.46033,5.5243 7.32549,5.885 15.555555,3.00833 1.4978,-0.52353 2.80404,-0.8711 2.90275,-0.77238 0.35012,0.35011 -1.76653,1.26647 -5.606495,2.4272 -2.76898,0.83701 -6.22906,0.85992 -8.35389,0.0553 z m -34.57501,-3.77641 c -0.41078,-0.50349 -2.17562,-3.48707 -3.92187,-6.63018 -2.46416,-4.43528 -3.60324,-6.19638 -5.08773,-7.86601 -3.67612,-4.13455 -7.40122,-6.97512 -10.890924,-8.30482 -0.884307,-0.33695 -1.520397,-0.74816 -1.574311,-1.01774 -0.118219,-0.5911 0.480173,-0.41797 3.265466,0.94475 2.659799,1.30133 5.170359,3.18208 8.092469,6.06235 2.59069,2.55358 4.07911,4.67973 6.85323,9.78958 2.56552,4.72561 4.13434,7.14375 4.63468,7.14375 0.5713,0 0.817,-0.795 1.3166,-4.26004 0.23917,-1.6588 0.73629,-4.37865 1.10471,-6.0441 0.79288,-3.58424 0.89707,-3.40234 -2.34072,-4.08642 -2.80685,-0.59303 -5.74688,-2.03198 -7.35799,-3.60125 -0.97866,-0.95324 -1.68616,-2.10777 -3.14018,-5.12427 -1.03229,-2.14159 -2.1954,-4.31138 -2.58469,-4.82176 -1.42618,-1.86982 -4.00872,-2.74725 -8.099463,-2.75183 -1.410223,-0.002 -1.785937,-0.0855 -1.785937,-0.39887 0,-0.47645 0.37525,-0.48753 4.00686,-0.1183 3.34012,0.3396 5.05594,1.04607 6.27314,2.58292 0.47363,0.59801 1.6764,2.79483 2.67281,4.88184 1.37961,2.88962 2.10712,4.08584 3.05055,5.01594 1.6572,1.6338 4.32313,2.99133 7.18096,3.65667 3.18466,0.74144 3.20455,0.74848 3.37594,1.19513 0.083,0.21616 -0.13801,1.72967 -0.49102,3.36337 -0.35301,1.63369 -0.88683,4.5699 -1.18628,6.52491 -0.29944,1.95502 -0.72507,3.83025 -0.94584,4.16719 -0.592,0.9035 -1.53224,0.78587 -2.42046,-0.30281 z m 35.38034,-1.1975 c -0.79399,-0.44601 -2.04414,-1.28658 -2.77812,-1.86793 -0.73398,-0.58135 -3.36351,-2.58944 -5.84341,-4.46241 -4.94976,-3.73836 -7.30273,-6.05782 -8.205,-8.08815 -0.72728,-1.63657 -1.01203,-3.57691 -0.52492,-3.57691 0.19271,0 0.39734,0.45094 0.47821,1.05383 0.37584,2.80209 2.55935,5.39853 7.84855,9.33284 1.97403,1.46836 4.42259,3.3463 5.44123,4.1732 1.01865,0.82691 2.56646,1.9671 3.43959,2.53378 1.5624,1.01402 1.62723,1.03029 4.10104,1.02903 2.24373,-0.001 2.66585,-0.0813 3.93249,-0.7472 1.39264,-0.73211 4.012235,-3.10628 4.866855,-4.4109 l 0.43331,-0.66146 0.0139,0.75498 c 0.0108,0.59007 -0.38577,1.15462 -1.8158,2.58465 -2.467465,2.46748 -3.618445,2.96132 -7.166145,3.07475 -2.68671,0.0859 -2.82563,0.0621 -4.22175,-0.7221 z m 2.50196,-0.58747 c -1.70961,-0.59741 -2.71714,-1.99016 -2.25201,-3.11306 0.33211,-0.8018 0.91784,-1.151 4.03372,-2.40482 2.20881,-0.88881 3.21152,-1.80002 3.51843,-3.19737 0.10733,-0.48868 -0.0153,-2.04906 -0.29074,-3.70044 -0.58023,-3.47828 -0.40711,-4.71915 1.21787,-8.72942 0.98622,-2.43387 1.127045,-3.05019 1.242065,-5.43575 0.11764,-2.44008 0.0716,-2.80967 -0.494805,-3.96875 -0.34349,-0.70296 -1.232,-1.89335 -1.97447,-2.64531 -1.70509,-1.72688 -2.85742,-2.09233 -8.30735,-2.63462 -5.08348,-0.50582 -5.39819,-0.63388 -5.50277,-2.23918 -0.0583,-0.89418 0.057,-1.37675 0.4419,-1.84999 0.50289,-0.61836 0.62327,-0.63765 3.51839,-0.56384 7.54803,0.19244 12.814955,2.54805 14.900825,6.66433 0.3826,0.75502 0.65746,1.63082 0.6108,1.94621 -0.066,0.44591 -0.28273,0.20725 -0.97466,-1.0731 -2.36837,-4.38247 -6.616025,-6.46314 -14.005555,-6.86047 -3.08973,-0.16613 -3.14527,-0.15902 -3.57724,0.45769 -0.60321,0.86121 -0.55219,1.75231 0.12094,2.11256 0.30785,0.16475 2.30214,0.46679 4.43177,0.67119 2.12963,0.2044 4.40784,0.49836 5.06268,0.65324 2.61694,0.61895 4.53927,2.31986 5.894215,5.21534 0.74659,1.59541 0.78228,1.82449 0.66153,4.24587 -0.1115,2.23614 -0.26212,2.87699 -1.192325,5.07301 -1.86325,4.39876 -1.92433,4.94706 -1.17905,10.58333 0.30855,2.33343 0.0126,3.41494 -1.23816,4.5249 -0.59735,0.53011 -1.83204,1.23668 -2.74375,1.57016 -3.70449,1.355 -4.29296,1.95108 -3.04673,3.08617 0.94595,0.8616 1.66445,1.13752 2.96205,1.13752 2.4348,0 4.86344,-1.84968 6.352745,-4.83834 0.65965,-1.32373 0.67322,-1.46787 0.67322,-7.14781 0,-5.90608 0.18095,-7.38468 1.20315,-9.83115 0.72478,-1.73465 0.72633,-0.80293 0.004,2.2193 -0.65844,2.75373 -0.69498,3.24797 -0.62244,8.41748 l 0.0771,5.49198 -0.90559,1.67021 c -1.976855,3.64599 -5.615465,5.54264 -8.619405,4.49293 z m 88.451145,-6.81105 c -4.00578,-6.69586 -4.44008,-7.64558 -4.44336,-9.71669 -0.002,-1.37076 0.10686,-1.76341 0.67819,-2.4424 0.40385,-0.47994 1.12761,-0.92937 1.77923,-1.10483 1.77583,-0.47818 5.21291,0.1821 5.21291,1.00144 0,0.276 -0.14296,0.34085 -0.46302,0.21 -1.29737,-0.53039 -2.44892,-0.70764 -3.73511,-0.57489 -1.67769,0.17315 -2.59119,0.88566 -2.8407,2.21566 -0.33148,1.76694 0.50881,3.59672 5.03125,10.95588 1.40357,2.28396 2.02244,3.53969 1.96264,3.9823 -0.068,0.50352 -0.77159,-0.49729 -3.18203,-4.52647 z m -26.32011,1.72982 c -0.6074,-0.34733 -2.09386,-1.43042 -3.30324,-2.40685 -1.20938,-0.97643 -3.62944,-2.60876 -5.37792,-3.6274 -4.50366,-2.62375 -7.23241,-4.48782 -8.56289,-5.8495 -1.00082,-1.02429 -1.38886,-1.80958 -2.98245,-6.03574 -1.0554,-2.79891 -2.24126,-5.45523 -2.7976,-6.26661 -1.26641,-1.84697 -3.20326,-3.51575 -5.49916,-4.73806 -1.81937,-0.9686 -1.9271,-0.99104 -5.21031,-1.08537 -2.43351,-0.0699 -3.7209,0.0117 -4.69635,0.29761 -1.14957,0.33699 -1.34383,0.3398 -1.34383,0.0195 0,-0.67699 1.39983,-0.95431 5.42396,-1.07451 l 3.96875,-0.11855 2.22685,1.27575 c 2.68725,1.53951 4.41707,3.04852 5.68588,4.96005 0.92572,1.39466 1.29648,2.23809 3.61427,8.22196 1.02894,2.65642 1.27984,3.0605 2.8749,4.6302 1.34045,1.31914 2.76348,2.29244 6.10826,4.17783 2.62448,1.47937 5.4141,3.30717 7.0065,4.59075 3.10535,2.50312 4.24264,3.13767 5.62356,3.13767 1.93319,0 3.52589,-1.29077 7.67212,-6.2177 6.178,-7.34129 8.15261,-9.0963 11.70346,-10.40191 1.25545,-0.46162 2.49653,-0.6724 4.56805,-0.77582 2.6044,-0.13003 2.84427,-0.10227 2.84427,0.32919 0,0.40855 -0.17208,0.45082 -1.29412,0.31793 -2.15436,-0.25515 -4.70728,0.2488 -7.13675,1.40882 -1.83273,0.87509 -2.63084,1.47702 -4.64299,3.50176 -1.3364,1.34476 -3.97329,4.29049 -5.85976,6.54607 -4.22036,5.04612 -5.2546,5.82218 -7.75305,5.81764 -1.36205,-0.002 -2.00382,-0.14487 -2.86041,-0.63469 z m -29.14658,-0.8263 c -2.99825,-0.65078 -4.8598,-2.14807 -5.72719,-4.60652 -1.05989,-3.00406 0.13516,-5.43547 2.40153,-4.88605 1.54389,0.37427 10.22034,4.98615 11.55005,6.13931 0.70238,0.60912 0.60543,2.20526 -0.1858,3.05901 -0.62727,0.67684 -0.74374,0.6994 -3.50573,0.67906 -1.5713,-0.0116 -3.61109,-0.18473 -4.53286,-0.38481 z m 7.41272,-0.68267 c 0.24481,-0.12861 0.52427,-0.48326 0.62103,-0.78812 0.27858,-0.87775 -0.87047,-1.83135 -4.86043,-4.03364 -4.84098,-2.67202 -7.01107,-3.66521 -7.55354,-3.45704 -0.70618,0.27099 -1.27592,1.61889 -1.08781,2.57361 0.50832,2.57999 1.5457,3.97029 3.72258,4.98897 2.41758,1.13132 7.59703,1.53639 9.15817,0.71622 z m -48.149015,-0.22579 c -4.10631,-1.10656 -8.02174,-4.08259 -9.60648,-7.30165 -0.74421,-1.5117 -0.81454,-1.8644 -0.71934,-3.60738 0.092,-1.68433 0.31397,-2.38955 1.73232,-5.50375 0.89475,-1.96453 1.76948,-4.14452 1.94386,-4.84443 0.6598,-2.64832 -0.17184,-5.72487 -2.52223,-9.33069 -0.87568,-1.34341 -1.4602,-2.51832 -1.41302,-2.84022 0.06,-0.4093 0.49763,0.0867 1.71983,1.94932 1.9241,2.93227 2.59351,4.40811 2.98921,6.5903 0.47798,2.63587 -0.0517,4.62869 -2.77071,10.4249 -0.5665,1.2076 -1.0381,2.67893 -1.12331,3.50456 -0.12734,1.23386 -0.0352,1.64995 0.69295,3.12903 2.14208,4.35117 8.96504,8.13402 13.97236,7.74668 3.47516,-0.26882 4.207,-1.34681 4.59155,-6.76326 0.29649,-4.17619 0.58372,-5.20994 2.12614,-7.65221 1.37565,-2.17818 1.82725,-3.47893 1.82725,-5.26303 0,-1.83629 -0.5442,-3.11734 -1.92218,-4.52483 -1.5119,-1.54428 -2.97253,-2.0211 -8.68461,-2.83509 -5.40614,-0.7704 -5.97844,-1.00463 -6.54257,-2.67776 -0.75836,-2.2492 0.26248,-4.43931 2.46049,-5.27874 1.78769,-0.68272 9.10766,-0.44075 11.51387,0.38061 2.03089,0.69324 6.731495,2.96475 7.668955,3.70592 1.07606,0.85075 0.33595,1.00014 -1.00429,0.20271 -2.238605,-1.33195 -5.436385,-2.75918 -7.590705,-3.38787 -1.76778,-0.51589 -2.72722,-0.61826 -5.82083,-0.62107 -3.12544,-0.003 -3.86407,0.076 -4.7276,0.50462 -1.45185,0.72065 -2.07607,1.8209 -1.93843,3.4167 0.17923,2.07806 0.51812,2.26127 5.51528,2.98174 4.9945,0.72009 6.5123,1.01923 7.70291,1.51815 3.0227,1.26665 4.75444,5.07466 3.9095,8.59678 -0.17688,0.73732 -0.95757,2.41681 -1.73485,3.7322 -0.77729,1.31539 -1.47663,2.6013 -1.5541,2.85757 -0.0775,0.25628 -0.26778,2.1913 -0.42292,4.30006 -0.32564,4.42641 -0.77188,5.70225 -2.33159,6.6662 -1.37401,0.84919 -5.21438,0.95754 -7.93671,0.22393 z m 69.379885,-1.43994 c -1.46965,-0.46016 -4.65103,-2.10374 -6.58579,-3.40237 -0.87804,-0.58934 -2.8585,-2.33247 -4.40104,-3.87361 -3.02734,-3.02459 -5.06291,-5.8579 -8.57117,-11.93019 -2.27494,-3.93758 -3.81238,-6.07287 -5.33542,-7.41011 -1.83091,-1.60756 -4.13955,-2.91679 -6.36919,-3.61195 -1.9609,-0.61138 -2.5224,-0.67377 -5.10568,-0.56734 -2.96059,0.12198 -3.55501,-0.0376 -2.06924,-0.55555 1.52102,-0.53023 5.02019,-0.35538 7.28905,0.36422 5.03413,1.59666 8.16512,4.44278 11.96099,10.87271 3.8508,6.52301 5.76803,9.30505 8.08135,11.72663 4.9958,5.22961 11.16193,8.52955 15.24598,8.15922 2.68837,-0.24377 3.69831,-1.03908 8.3295,-6.55932 1.77802,-2.11935 4.1084,-4.64465 5.17861,-5.61178 1.42885,-1.29122 1.86761,-1.83665 1.65139,-2.05288 -0.47031,-0.47031 -2.22545,0.13822 -3.46919,1.20281 -0.60222,0.51548 -2.13797,2.33284 -3.41278,4.03857 -4.29956,5.75296 -5.57956,6.65808 -9.42929,6.66771 -4.08176,0.0102 -6.88002,-1.33322 -10.67204,-5.12359 -2.69883,-2.69767 -4.09885,-4.86452 -6.86522,-10.62555 -1.2086,-2.51694 -2.68227,-5.34389 -3.27481,-6.28211 -1.90114,-3.01024 -6.38507,-6.92453 -10.06374,-8.78523 -2.8853,-1.45941 -4.16908,-1.77211 -7.8717,-1.91737 -1.92508,-0.0755 -3.4361,-0.24094 -3.35783,-0.36758 0.0783,-0.12664 1.63234,-0.23026 3.45348,-0.23026 2.8461,0 3.59645,0.0951 5.3422,0.67674 5.29079,1.76291 10.88819,6.28367 13.48241,10.88912 2.10234,3.73224 3.27789,6.19177 3.13605,6.56139 -0.0726,0.18913 0.0916,0.54618 0.36483,0.79345 0.27323,0.24727 1.18794,1.71697 2.03268,3.26601 4.2397,7.77449 12.11728,12.34196 17.20275,9.97425 1.7551,-0.81715 3.09327,-2.16385 5.95502,-5.993 3.22495,-4.31513 4.74628,-5.53046 6.92298,-5.53046 2.34192,0 2.30302,0.77843 -0.14739,2.94932 -1.04353,0.92449 -3.41979,3.48108 -5.28059,5.68131 -3.95157,4.67239 -5.60029,6.23175 -7.04719,6.66525 -1.35851,0.40702 -4.91887,0.37398 -6.29997,-0.0585 z m 28.82862,-2.06068 c -2.06872,-2.16187 -3.54105,-4.18801 -3.54105,-4.87301 0,-0.87961 1.3395,-2.21831 2.21963,-2.21831 1.06177,0 2.54287,0.81787 2.54287,1.40419 0,0.48297 -0.0342,0.48761 -0.59531,0.0806 -1.25161,-0.90787 -1.8406,-1.01798 -2.5652,-0.47955 -1.22351,0.90916 -1.03116,1.5761 1.18304,4.10192 1.10905,1.26513 1.97792,2.4852 1.93082,2.71128 -0.0615,0.29512 -0.39282,0.09 -1.1748,-0.72714 z m -97.726295,-0.10714 c -1.55413,-0.41763 -3.17314,-1.27445 -4.46983,-2.36555 -0.99922,-0.84079 -2.68033,-4.1371 -2.68033,-5.25558 0,-0.52245 0.59551,-1.90131 1.60569,-3.71784 3.11051,-5.59341 5.49241,-8.469 7.58788,-9.16056 1.38821,-0.45815 4.33754,-0.14515 5.67527,0.60231 1.65996,0.9275 2.19678,1.81909 2.19678,3.64859 0,1.47565 -0.0816,1.66409 -1.82574,4.21797 -2.14724,3.14406 -2.53988,4.38506 -2.53988,8.02769 0,2.70118 -0.34801,3.93488 -1.20248,4.26277 -0.71981,0.27621 -2.81967,0.15073 -4.34736,-0.2598 z m 4.18791,-0.59517 c 0.41253,-0.41254 0.51162,-1.05254 0.62567,-4.04143 0.15469,-4.05385 0.24186,-4.29873 2.95129,-8.29064 1.2609,-1.85773 1.6094,-2.58576 1.6094,-3.36209 0,-2.08183 -2.17876,-3.65944 -5.0539,-3.65944 -1.96647,0 -2.64349,0.22892 -3.87507,1.31027 -1.99845,1.75466 -6.80171,9.56396 -6.80171,11.05844 0,1.17843 0.87122,2.85593 2.21048,4.25617 2.29011,2.39439 7.09494,3.96762 8.33384,2.72872 z m 64.034795,-2.39456 c -3.09755,-1.01195 -6.64897,-3.91202 -8.15047,-6.6556 -0.5485,-1.00224 -0.17836,-0.7061 2.51355,2.01105 1.80066,1.81756 3.38408,3.19869 3.68592,3.21506 0.29104,0.0158 1.06495,0.23774 1.71979,0.49323 1.86812,0.72885 4.57364,0.62778 6.47311,-0.24183 3.02548,-1.38511 6.70209,-6.12305 8.63696,-11.13018 1.75031,-4.52952 2.17184,-6.74164 2.19711,-11.52993 0.0183,-3.47782 -0.0774,-4.74227 -0.47072,-6.21771 -0.67373,-2.52719 -1.86967,-4.87709 -3.80897,-7.48426 -1.83202,-2.46294 -2.26003,-3.57922 -1.88842,-4.92511 0.50326,-1.82264 3.46128,-3.63415 5.23448,-3.20562 1.18389,0.28611 3.46519,1.96108 5.72456,4.20307 3.75416,3.72528 5.15401,6.49475 5.15393,10.19657 -4e-5,1.96521 -0.22065,3.39802 -1.30743,8.49139 -0.7666,3.59279 -0.72499,4.31033 0.31529,5.43702 0.62427,0.67613 1.14989,0.96898 1.91823,1.06874 2.40345,0.31206 2.77812,0.41317 2.77812,0.74977 0,0.26155 -0.32397,0.32016 -1.25677,0.22736 -2.23314,-0.22214 -3.16347,-0.57769 -3.99767,-1.5278 -1.23438,-1.40587 -1.27484,-2.27785 -0.30432,-6.55826 0.61792,-2.72528 0.8889,-4.67415 0.98304,-7.06975 l 0.12996,-3.30729 -1.13271,-2.24649 c -1.91637,-3.80071 -7.61635,-8.9983 -9.86807,-8.9983 -1.53527,0 -3.86804,1.97989 -3.86804,3.28292 0,0.73299 1.02472,2.51191 2.81149,4.88073 1.90598,2.52688 2.68653,4.56138 3.43531,8.95414 1.63463,9.58976 -3.75397,23.46127 -10.51344,27.06403 -1.45051,0.77312 -1.92461,0.88595 -4.04601,0.96289 -1.32164,0.0479 -2.71565,-0.015 -3.09781,-0.13984 z m -95.808385,-2.66782 c -0.68928,-0.12288 -1.87991,-0.44015 -2.64584,-0.70505 -1.23168,-0.42597 -1.30702,-0.49189 -0.65202,-0.57043 0.40733,-0.0488 1.4865,0.0983 2.39816,0.3269 2.08443,0.52275 3.14939,0.52341 4.90172,0.003 1.92838,-0.57267 2.60945,-0.35032 1.08766,0.35509 -1.43666,0.66596 -3.39313,0.89293 -5.08968,0.59047 z m 96.752225,-1.73192 c 0.28248,-0.21366 0.61284,-0.38846 0.73415,-0.38846 0.12131,0 0.33646,-0.30482 0.47811,-0.67738 0.28114,-0.73947 0.78769,-0.64627 0.78769,0.14493 0,0.7494 -0.73332,1.32718 -1.67254,1.31778 -0.79675,-0.008 -0.81398,-0.0289 -0.32741,-0.39687 z M 39.601445,140.82019 c -1.11413,-0.48901 -2.989366,-1.21004 -4.167191,-1.60229 -1.33671,-0.44517 -2.141499,-0.85417 -2.141499,-1.08833 0,-0.20633 0.0372,-0.37515 0.08266,-0.37515 0.389592,0 4.96626,1.70328 6.57719,2.44781 l 2.02963,0.93805 0.55005,-0.58551 c 0.72643,-0.77325 0.69569,-1.14419 -0.21369,-2.57813 -1.14843,-1.81089 -2.65414,-2.39486 -7.769068,-3.01314 -0.75984,-0.0918 -1.256771,-0.28478 -1.256771,-0.48794 0,-0.27049 0.570594,-0.26677 2.925781,0.0191 3.387918,0.41119 4.292388,0.73365 5.749048,2.04966 1.93748,1.7504 2.32886,3.46181 1.06166,4.64238 -0.76147,0.70942 -1.04574,0.67902 -3.4278,-0.36649 z m 9.30173,-3.06894 c -3.45981,-6.46511 -6.04726,-8.14028 -13.692191,-8.86462 -1.380195,-0.13077 -1.918229,-0.28553 -1.918229,-0.55177 0,-0.20351 0.09687,-0.37002 0.215259,-0.37002 0.73582,0 6.377581,0.83874 7.284611,1.08298 2.45495,0.66105 4.77787,2.27608 6.34572,4.41192 1.43208,1.95088 3.13604,5.27254 3.04089,5.92785 -0.0647,0.44528 -0.3752,0.047 -1.27606,-1.63634 z m 110.794265,1.40829 c -0.97435,-0.25463 -0.40077,-0.61137 0.98298,-0.61137 1.23572,0 1.58011,-0.11775 2.36821,-0.80971 1.04667,-0.91899 1.83951,-2.78704 2.4637,-5.80487 0.77339,-3.73913 0.44625,-14.97738 -0.4962,-17.04581 -0.7431,-1.63094 -3.07854,-1.79961 -2.76727,-0.19986 0.99649,5.12141 1.32578,8.17727 1.31663,12.21858 -0.0106,4.67166 -0.36138,7.08603 -1.13075,7.7823 -0.40883,0.36998 -0.52371,0.3788 -0.78789,0.0605 -0.24067,-0.29 -0.22282,-0.40583 0.0805,-0.52222 0.76492,-0.29353 1.05709,-2.29589 1.06816,-7.32057 0.009,-3.97191 -0.10957,-5.61979 -0.62758,-8.7401 -0.35111,-2.11492 -0.56077,-4.15452 -0.46592,-4.53245 0.20425,-0.81379 0.92086,-1.05947 2.12253,-0.72767 1.27943,0.35327 1.94184,1.22352 2.26086,2.97022 0.44659,2.44516 0.65739,11.88428 0.32904,14.73417 -0.74163,6.43711 -3.13613,9.48464 -6.71699,8.54887 z m -85.379835,-1.18863 c -0.008,-0.53578 0.35308,-1.96453 0.80227,-3.175 0.75192,-2.02626 0.80887,-2.41077 0.71783,-4.8467 -0.0817,-2.18681 -0.22341,-2.91532 -0.8167,-4.19916 -1.29117,-2.79398 -0.74021,-3.08359 0.65753,-0.34563 1.55001,3.03625 1.28343,7.05823 -0.80979,12.21771 l -0.53672,1.32292 z m 106.387575,-0.13178 c -4.27143,-0.91202 -5.7725,-1.52925 -7.21597,-2.96714 -2.06288,-2.05493 -2.2095,-4.35711 -0.60855,-9.55552 0.95659,-3.10614 1.19256,-7.97374 0.49418,-10.19406 -0.49908,-1.5867 -2.05314,-4.07119 -4.35713,-6.96574 -1.23842,-1.55585 -1.31216,-1.72725 -0.96757,-2.24896 0.53882,-0.81575 2.30095,-0.90114 3.48574,-0.1689 1.23848,0.76542 4.26371,4.0772 5.19728,5.68957 2.26786,3.91682 2.36959,7.44659 0.39099,13.56553 -1.86193,5.7581 -1.64848,7.13949 1.27202,8.23219 0.78244,0.29275 2.44661,0.67552 3.69814,0.8506 1.58352,0.22152 2.27552,0.42753 2.27552,0.67742 0,0.82012 -6.37698,-0.52261 -7.86223,-1.65546 -1.74143,-1.32826 -1.80603,-2.71591 -0.34454,-7.40047 1.41089,-4.52237 1.68065,-6.04341 1.54162,-8.69228 -0.15584,-2.96922 -1.26756,-5.27784 -3.93348,-8.16834 -2.39539,-2.59719 -4.24744,-3.63213 -4.9516,-2.767 -0.19652,0.24144 0.26313,1.00193 1.70264,2.81701 3.43472,4.33082 4.18034,6.35588 3.9912,10.83988 -0.10632,2.52035 -0.30377,3.66294 -1.08985,6.30658 -2.20967,7.43129 -0.84349,9.32132 8.10197,11.20863 1.89346,0.39948 2.84427,0.71799 2.84427,0.95279 0,0.43064 0.0388,0.43441 -3.66465,-0.35633 z M 47.580255,132.33242 c -2.27925,-2.29211 -2.83415,-2.69291 -5.95313,-4.29988 -3.66574,-1.88868 -5.303926,-3.23133 -6.562133,-5.3783 -1.233073,-2.10408 -1.537878,-4.22425 -1.691943,-11.76885 -0.132344,-6.4809 -0.10589,-7.03452 0.4425,-9.26042 0.320793,-1.30208 1.002571,-3.438985 1.515063,-4.748675 1.479463,-3.78081 6.120683,-12.70832 7.308063,-14.05726 1.02506,-1.16452 1.11695,-1.20886 2.24261,-1.08198 1.74898,0.19714 2.56668,1.12441 2.56668,2.91062 0,1.25444 -0.23088,1.79941 -2.44258,5.76558 -4.98698,8.94298 -6.39573,12.686735 -6.61622,17.582565 -0.30809,6.84097 1.82875,10.32691 8.27308,13.49631 1.61665,0.79509 3.07988,1.44562 3.25161,1.44562 0.17173,0 0.31223,0.1786 0.31223,0.39688 0,0.54278 -0.17375,0.51342 -2.40355,-0.40608 -4.52528,-1.86607 -8.14388,-4.93215 -9.22212,-7.81398 -1.28566,-3.43624 -1.33562,-8.26999 -0.12908,-12.48792 0.66783,-2.33465 3.04694,-7.383195 6.45037,-13.687855 2.08656,-3.86524 2.30543,-4.91776 1.23229,-5.92593 -0.45225,-0.42486 -0.8833,-0.56996 -1.51252,-0.50914 -1.21807,0.11775 -2.31824,1.64871 -5.09257,7.08666 -4.523283,8.86608 -5.728536,13.026785 -5.724813,19.762885 0.0034,6.18452 0.62921,10.42206 1.921117,13.00886 0.884821,1.77168 2.786086,3.2853 6.496746,5.17214 1.84884,0.94012 3.91543,2.19687 4.59241,2.79277 1.73512,1.52732 3.44825,3.63833 3.34596,4.12307 -0.0577,0.27359 -0.92291,-0.43107 -2.60007,-2.11769 z m 93.330765,-2.07874 c -1.99945,-5.17371 -4.21475,-8.35965 -7.18247,-10.32951 -0.8021,-0.5324 -3.02506,-1.56072 -4.93993,-2.28516 -1.91487,-0.72444 -4.19074,-1.69514 -5.05749,-2.15712 -3.10633,-1.65566 -4.59033,-4.30977 -4.55945,-8.15455 0.0224,-2.78408 0.61063,-3.83819 4.4409,-7.957555 7.405,-7.96393 7.44469,-8.03013 7.44202,-12.41536 -0.002,-3.05316 -0.31755,-3.99689 -2.37955,-7.11337 -0.93978,-1.420352 -1.01895,-1.972966 -0.20953,-1.462394 0.74142,0.467675 2.69057,4.141054 3.14301,5.923314 0.60619,2.38793 0.41641,5.25095 -0.47431,7.1556 -0.72575,1.55188 -1.75022,2.79624 -6.61421,8.03386 -1.70319,1.834015 -3.40785,3.865505 -3.78815,4.514425 -1.32505,2.26103 -1.11178,5.88767 0.48691,8.27978 1.2216,1.82787 3.464,3.21403 7.17248,4.43376 7.17266,2.3591 10.27696,5.54873 13.48518,13.85588 0.86921,2.25065 0.98343,2.95725 0.47518,2.93938 -0.10055,-0.004 -0.74881,-1.47098 -1.44059,-3.26098 z m 18.16001,1.91935 c -0.18903,-0.23766 -0.35304,-2.70983 -0.45472,-6.85403 -0.15265,-6.22152 -0.19101,-6.5868 -0.95369,-9.0804 -2.06033,-6.73627 -1.51095,-10.914 1.84843,-14.0563 1.6546,-1.54769 3.72943,-2.557835 8.44944,-4.113675 4.32507,-1.42565 7.50003,-2.90704 9.93957,-4.63767 1.93582,-1.37329 4.58256,-4.15248 5.59521,-5.87522 0.64939,-1.10475 0.7532,-1.18563 0.82959,-0.64632 0.11176,0.78903 -0.92653,2.36118 -2.97655,4.50699 -3.1783,3.32681 -6.17571,5.01851 -12.72119,7.17969 -6.83045,2.255255 -9.07017,3.677495 -10.58807,6.723525 -0.58684,1.17763 -0.65672,1.6476 -0.65672,4.4166 0,2.82642 0.0934,3.4244 1.06327,6.80457 l 1.06326,3.70585 -0.0711,6.14906 c -0.053,4.58595 -0.14624,6.05456 -0.36676,5.77733 z m -2.00996,-1.97182 c -0.0927,-0.0927 -0.1049,-1.43748 -0.0271,-2.98839 0.23061,-4.59801 -0.58037,-7.02657 -4.76676,-14.27446 -2.79368,-4.8367 -3.38675,-6.33133 -3.55136,-8.95005 -0.11956,-1.90198 -0.0586,-2.31532 0.53117,-3.60363 1.28627,-2.809595 3.47877,-4.508275 6.68964,-5.182925 0.73285,-0.15398 2.81907,-0.46321 4.63604,-0.68717 5.4491,-0.67167 9.44335,-1.91852 13.22944,-4.12971 3.58287,-2.09251 7.59337,-5.75364 9.65313,-8.81221 0.82139,-1.21969 0.91457,-1.28696 0.91457,-0.6602 0,1.59325 -4.56296,6.40681 -8.65304,9.12825 -4.3567,2.89885 -8.96952,4.45576 -15.56697,5.25415 -2.02585,0.24516 -4.41234,0.6709 -5.30331,0.9461 -3.28905,1.01588 -5.53325,4.028005 -5.4868,7.364315 0.0306,2.19792 0.60831,3.72317 3.01326,7.95539 2.63938,4.64474 3.83919,7.0755 4.66567,9.45237 0.62154,1.78749 0.71351,2.45567 0.7019,5.09971 -0.0125,2.83881 -0.2856,4.48233 -0.67947,4.08846 z m -11.69714,-1.90564 c -0.7215,-2.31882 -2.36727,-5.30686 -4.01889,-7.29667 -2.47505,-2.98184 -4.72607,-4.66373 -9.58148,-7.15898 -5.1846,-2.66442 -6.26915,-3.47209 -6.67218,-4.96884 -0.65287,-2.42459 0.0834,-3.80424 4.63597,-8.68749 3.49058,-3.744095 4.56838,-5.348555 5.54279,-8.251275 1.21193,-3.61028 0.84579,-6.85426 -1.24701,-11.04841 -1.41689,-2.839575 -1.35606,-2.660734 -0.905,-2.660734 0.45793,0 2.00801,2.893124 2.80029,5.226574 0.68642,2.02165 0.76699,6.04543 0.16716,8.34832 -0.78311,3.00655 -1.97584,4.75297 -7.04955,10.322145 -1.40219,1.53911 -2.8149,3.34677 -3.13936,4.01701 -0.57462,1.187 -0.57822,1.24927 -0.13893,2.39955 0.57133,1.49601 1.20506,1.96569 6.19005,4.58777 5.86397,3.08441 8.10439,4.82399 10.73937,8.33861 1.676,2.23551 4.07504,7.50658 3.69578,8.12023 -0.30825,0.49876 -0.56348,0.1762 -1.01901,-1.28781 z m 38.18922,-0.14071 c -1.24419,-0.95526 -1.3429,-2.94393 -0.33946,-6.8391 1.21868,-4.73071 0.62503,-7.97186 -2.39252,-13.06238 -2.72106,-4.59037 -3.23096,-6.20693 -2.44016,-7.73617 0.60624,-1.172335 5.83393,-5.967165 5.94705,-5.454615 0.0541,0.24527 -1.03778,1.48991 -2.71637,3.09629 -2.76318,2.644325 -2.80682,2.704855 -2.8025,3.886755 0.004,0.97541 0.28005,1.67017 1.47406,3.70417 0.80832,1.37696 2.02871,3.63466 2.71198,5.01711 1.23369,2.49609 1.24292,2.53475 1.32936,5.56745 0.0743,2.60519 -0.0165,3.4756 -0.61786,5.92376 -0.7654,3.11615 -0.72902,4.36775 0.1488,5.11936 0.88249,0.75562 0.6035,1.47288 -0.30238,0.77737 z m -37.55753,-3.43117 c -1.07429,-1.49159 -3.15643,-4.31932 -4.62697,-6.28385 -3.26585,-4.36291 -4.58404,-6.30302 -5.57285,-8.20209 -0.71062,-1.36479 -0.76374,-1.68883 -0.85497,-5.21549 -0.10943,-4.23045 0.046,-4.95789 1.8633,-8.719985 1.19816,-2.48041 2.65413,-4.32077 3.4183,-4.32077 0.60475,0 1.59141,0.47304 1.87616,0.8995 0.35318,0.52894 0.21125,1.93228 -0.48891,4.83401 -0.59821,2.479225 -0.67375,3.257725 -0.56043,5.775865 0.19098,4.24417 1.21821,6.74453 5.7932,14.10113 3.11538,5.00954 3.58016,6.0853 3.42417,7.92543 -0.0649,0.76621 -0.4989,0.24599 -0.6338,-0.7598 -0.18366,-1.36928 -0.93141,-2.81092 -3.94797,-7.61154 -2.92439,-4.65394 -4.26364,-7.45314 -4.96435,-10.37611 -0.73737,-3.07588 -0.69829,-5.90417 0.12537,-9.074285 0.83167,-3.2009 0.85436,-4.26943 0.0993,-4.67355 -0.45742,-0.24481 -0.69165,-0.20432 -1.25677,0.21724 -0.93831,0.69996 -2.79053,4.20397 -3.63994,6.885985 -0.61791,1.95109 -0.68066,2.50105 -0.57356,5.02708 0.0899,2.12135 0.26159,3.15353 0.68092,4.09464 0.71389,1.6022 3.11564,5.17282 6.53937,9.7219 2.91306,3.87057 5.95594,8.13011 5.95594,8.33737 0,0.0711 -0.15799,0.1293 -0.3511,0.1293 -0.1931,0 -1.23006,-1.22039 -2.30436,-2.71198 z m 6.19767,0.57037 c -0.16183,-0.20456 -0.37737,-0.72912 -0.47896,-1.16568 -0.1016,-0.43656 -1.55335,-3.63438 -3.22613,-7.10626 -3.76392,-7.81209 -4.64769,-10.30318 -4.80594,-13.54646 -0.0643,-1.31805 0.0192,-3.0522 0.18559,-3.853645 0.64599,-3.11175 2.86188,-6.57917 5.18994,-8.12121 2.36976,-1.56966 3.66102,-1.87581 9.73557,-2.30823 7.42559,-0.52858 10.30951,-1.25532 14.52601,-3.66051 2.75707,-1.5727 4.38668,-2.9855 6.1573,-5.33809 1.34634,-1.788874 1.98275,-2.350599 1.98275,-1.750084 0,0.330773 -2.0516,3.224884 -3.00342,4.236804 -2.12405,2.25817 -7.12717,5.03603 -10.99055,6.10223 -1.07548,0.2968 -3.51626,0.66486 -5.42396,0.8179 -8.61833,0.69137 -9.18954,0.76925 -10.69437,1.45819 -3.09324,1.41613 -5.38048,4.12007 -6.44235,7.61605 -0.463,1.524335 -0.53157,2.279885 -0.42119,4.641195 0.1675,3.58324 0.82589,5.46989 4.51165,12.92817 2.68798,5.43924 3.75003,8.10136 3.57984,8.97318 -0.0737,0.37752 -0.13403,0.3896 -0.38178,0.0765 z M 48.172225,119.10599 c -3.68735,-4.02409 -5.04604,-9.22879 -3.88126,-14.86784 0.22818,-1.10469 1.19565,-4.22506 2.14992,-6.934155 0.95428,-2.70909 2.15328,-6.2353 2.66445,-7.83603 1.58156,-4.95265 1.25967,-7.56914 -1.25661,-10.2143 -0.91087,-0.957528 -0.93793,-1.030494 -0.38203,-1.030494 0.71984,0 1.99011,1.513524 2.81361,3.352404 1.18055,2.63618 0.77365,4.78847 -2.80786,14.85243 -2.23194,6.271705 -2.80462,8.649145 -2.79801,11.615785 0.01,4.31987 1.25707,7.58682 4.0303,10.55498 1.43546,1.53636 1.83062,2.22232 1.28021,2.22232 -0.13263,0 -0.94835,-0.7718 -1.81272,-1.7151 z m 53.384645,0.23114 c -0.79948,-0.36284 -2.704475,-1.09707 -4.233335,-1.6316 l -2.77974,-0.97189 -8.73125,-0.13909 -8.73125,-0.13909 -1.32291,-0.69449 c -0.92944,-0.48792 -1.35062,-0.88118 -1.41604,-1.32219 -0.0877,-0.59134 -0.0647,-0.60271 0.39687,-0.19623 0.2695,0.23731 1.02578,0.71323 1.68062,1.05761 1.17995,0.62052 1.25541,0.62542 8.41528,0.54674 7.89634,-0.0868 9.94975,0.13057 13.62769,1.4424 2.198755,0.78424 4.944525,2.17826 4.944525,2.51032 0,0.33001 -0.2322,0.27197 -1.85046,-0.46249 z m -0.0771,-2.76792 c -2.048555,-0.66231 -6.466115,-1.23565 -12.095355,-1.56983 -7.86792,-0.46707 -10.91641,-0.94201 -13.09339,-2.0399 -1.63687,-0.82551 -3.62709,-2.53584 -4.79969,-4.12473 -0.73388,-0.99439 -1.13423,-1.37939 -1.01728,-0.97825 0.25279,0.86712 1.12114,2.59186 1.76501,3.50573 0.50908,0.72257 0.50894,0.72761 -0.0201,0.72761 -0.72854,0 -1.9802,-2.60355 -4.07037,-8.46667 -1.39161,-3.903605 -1.73368,-4.630205 -2.17981,-4.630205 -0.47744,0 -0.52674,0.16812 -0.50436,1.719785 0.0309,2.14161 0.93799,5.7793 2.13985,8.58122 0.50354,1.17393 0.97936,2.28324 1.05739,2.46514 0.078,0.1819 -0.0335,0.33073 -0.2479,0.33073 -0.8166,0 -2.74365,-5.30865 -3.49106,-9.61721 -0.53633,-3.091725 -0.22691,-4.405705 1.03747,-4.405705 0.82216,0 1.30061,0.63851 2.0817,2.778115 l 0.67613,1.85209 0.0197,-1.32292 c 0.0729,-4.895605 1.43857,-8.071365 5.71108,-13.280535 0.47775,-0.58248 0.63951,-1.01417 0.52053,-1.38907 -0.40476,-1.27527 -2.16198,-0.36953 -5.98753,3.08621 -4.94453,4.46654 -6.15456,6.45297 -6.16959,10.12819 l -0.009,2.248955 2.19744,4.63021 c 2.77418,5.84544 2.58576,5.3629 2.05094,5.25236 -0.48773,-0.10082 -3.73137,-6.64608 -4.56199,-9.20554 -0.27066,-0.83403 -0.47966,-2.27261 -0.48274,-3.322855 -0.005,-1.55275 0.13561,-2.15016 0.86726,-3.69635 0.72151,-1.52474 1.45482,-2.42333 4.23275,-5.18672 1.84803,-1.83836 4.0133,-3.77664 4.81172,-4.3073 2.0624,-1.37075 3.55218,-1.28014 3.71235,0.22578 0.11297,1.06202 -0.0378,1.36042 -1.73733,3.43958 -2.00576,2.45373 -3.64595,5.54284 -4.09723,7.71668 -1.32396,6.377465 2.40201,13.125625 8.38354,15.183575 1.80265,0.6202 4.20592,0.91354 11.86616,1.44837 5.85267,0.40862 8.13922,0.67262 10.583335,1.22194 1.53707,0.34545 2.77812,0.92237 2.77812,1.29144 0,0.32251 -0.0622,0.31316 -1.92755,-0.28992 z m -51.983175,-3.75777 c -1.96512,-5.0829 -1.29806,-10.60779 2.61457,-21.655225 2.15589,-6.08722 2.87741,-8.48509 2.87741,-9.56268 0,-0.40817 -0.29966,-1.33348 -0.66591,-2.05624 -0.55006,-1.085485 -0.59384,-1.314124 -0.25165,-1.314124 0.66493,0 1.43441,2.049094 1.44067,3.836454 0.004,1.21948 -0.27584,2.38488 -1.20828,5.02709 -4.39229,12.44621 -5.26552,15.953675 -5.06544,20.346125 0.0803,1.76382 0.3121,3.4326 0.58013,4.17729 0.2455,0.68204 0.40645,1.57501 0.35767,1.98437 -0.0785,0.6585 -0.15674,0.56824 -0.67917,-0.78306 z m 51.926355,-0.2204 c -0.72761,-0.12666 -4.775725,-0.34617 -8.995835,-0.48779 -8.71592,-0.2925 -10.79207,-0.63912 -13.9926,-2.33611 -2.47351,-1.31152 -5.22886,-4.0075 -6.17434,-6.04131 -0.55872,-1.20186 -0.74695,-2.06061 -0.82368,-3.757865 -0.092,-2.03517 -0.0372,-2.32646 0.73132,-3.88759 1.55553,-3.15971 5.26574,-5.84948 12.13771,-8.7994 5.5516,-2.38313 11.40202,-3.86016 16.690545,-4.21379 2.07003,-0.13842 2.46297,-0.10397 2.36,0.20694 -0.0881,0.26607 -0.80401,0.42137 -2.49712,0.54172 -9.209015,0.65459 -22.317465,5.74311 -26.348085,10.22797 -2.92393,3.25346 -3.20036,7.189425 -0.75458,10.744235 1.55159,2.25517 4.51952,4.4042 7.49736,5.42873 2.12463,0.73098 5.31697,1.05367 13.29014,1.34341 7.183205,0.26103 8.607845,0.42403 8.802195,1.00709 0.11732,0.35196 -0.0275,0.35375 -1.92303,0.0238 z m -46.381805,-1.22881 c -2.13955,-3.03676 -3.06743,-7.96261 -2.45459,-13.030725 0.42246,-3.49366 0.89589,-5.06042 2.99643,-9.9163 2.52032,-5.8263 2.94006,-7.72876 2.15598,-9.772029 -0.10437,-0.271983 -0.017,-0.420005 0.2478,-0.420005 0.28324,0 0.46513,0.374517 0.59165,1.218174 0.35227,2.3491 -0.0196,3.85101 -2.23583,9.03014 -2.73416,6.38947 -2.93271,7.26535 -2.9376,12.958945 -0.004,5.07209 0.19008,5.94786 1.98069,8.92146 1.05925,1.75906 1.05261,1.73795 0.54696,1.73795 -0.20837,0 -0.60954,-0.32743 -0.89149,-0.72761 z m 4.51338,-1.88473 c -5.00095,-7.89354 -4.91261,-11.657185 0.49534,-21.103525 2.45971,-4.2965 3.27803,-6.62797 3.06178,-8.72323 -0.11028,-1.068526 -0.0611,-1.427574 0.19559,-1.427574 0.46808,0 0.68875,1.875304 0.41701,3.543814 -0.30003,1.84223 -0.90515,3.28731 -2.61537,6.24577 -2.55103,4.41292 -2.68748,4.68076 -3.52739,6.92398 -0.70479,1.88235 -0.82724,2.57111 -0.83873,4.71769 -0.0194,3.632265 0.53861,4.939035 5.04887,11.822555 0.37039,0.56528 0.36326,0.61266 -0.0919,0.61027 -0.33516,-0.002 -1.02331,-0.83893 -2.14521,-2.60975 z m 2.12817,-1.03027 c -1.33871,-1.99839 -2.6269,-4.09588 -2.86264,-4.66108 -0.67191,-1.61093 -0.79138,-4.255295 -0.28229,-6.248395 0.58507,-2.29055 1.64034,-3.98544 4.6529,-7.47309 4.39518,-5.08833 5.25938,-6.24096 5.45299,-7.27302 0.16577,-0.88362 -0.0387,-2.32721 -0.56269,-3.973162 -0.13984,-0.439245 -0.0842,-0.595312 0.21233,-0.595312 0.48522,0 0.93184,1.193364 1.15397,3.083404 0.23654,2.01259 -0.59545,3.4926 -4.29047,7.63222 -4.99365,5.59451 -5.89703,7.16015 -6.12707,10.61867 -0.18815,2.828645 0.18485,3.875725 2.65392,7.450005 2.52286,3.65215 3.26932,5.09253 2.63149,5.07778 -0.10914,-0.003 -1.29374,-1.63963 -2.63244,-3.63802 z m 40.652665,1.62155 c -1.46604,-0.48697 -5.396795,-0.86318 -12.070865,-1.15531 -7.04513,-0.30837 -7.31966,-0.34705 -9.55356,-1.34628 -4.67917,-2.093 -6.98682,-7.04762 -5.33667,-11.458045 0.66879,-1.78749 2.66737,-3.71311 5.6964,-5.48843 5.60098,-3.28275 11.09648,-4.73138 18.06341,-4.76157 5.628895,-0.0244 5.316375,0.46382 -0.40626,0.63465 -4.10794,0.12263 -5.11246,0.24386 -7.82233,0.94402 -7.49526,1.93657 -13.71017,5.76476 -15.02794,9.25672 -1.40733,3.729285 0.67661,7.900905 5.04969,10.108425 2.11072,1.06549 3.24622,1.22383 11.2353,1.56668 6.43755,0.27628 10.295755,0.65135 10.966915,1.06615 0.18146,0.11215 0.28846,0.37069 0.23776,0.57452 -0.0759,0.30508 -0.2583,0.31542 -1.03185,0.0585 z m -0.78012,-4.85698 c -0.65484,-0.11066 -4.822025,-0.28517 -9.260415,-0.3878 -7.3057,-0.16892 -8.17661,-0.23701 -9.19801,-0.71912 -1.43557,-0.67761 -2.42277,-2.29017 -2.62975,-4.295615 -0.12699,-1.23039 -0.0404,-1.68255 0.55551,-2.90053 1.3571,-2.7738 5.31846,-5.73913 9.28788,-6.95256 2.2487,-0.68741 10.613795,-0.71415 12.104675,-0.0387 0.71084,0.32206 0.99219,0.61503 0.99219,1.0332 0,0.53693 -0.0371,0.55058 -0.46302,0.17041 -0.87067,-0.77712 -2.76108,-1.10257 -6.416135,-1.10458 -4.07101,-0.002 -5.82651,0.36343 -8.94454,1.86315 -2.22979,1.07248 -5.35193,3.92336 -6.00289,5.48133 -1.14903,2.750005 0.25422,5.802415 2.98706,6.497585 0.53909,0.13713 4.55203,0.31211 8.91766,0.38885 7.940495,0.13957 9.655635,0.29683 9.857985,0.9039 0.11799,0.35395 -0.0233,0.35873 -1.7882,0.0605 z m 13.49375,-1.93537 c 0,-0.56929 2.85744,-3.399705 7.28487,-7.215985 5.39323,-4.64876 6.08577,-5.77906 5.8977,-9.62566 -0.12405,-2.53709 -0.83475,-4.01088 -3.09431,-6.41676 -1.44601,-1.539651 -1.60093,-1.794854 -1.08957,-1.794854 1.13651,0 4.09708,3.851264 4.74814,6.176644 0.18921,0.67579 0.29271,2.09404 0.23884,3.27302 -0.13613,2.97978 -1.02684,4.36768 -5.12213,7.98125 -1.74625,1.54085 -4.18703,3.75847 -5.42396,4.928035 -3.23483,3.05869 -3.43958,3.21908 -3.43958,2.69431 z m -31.582025,-1.52455 c -0.57773,-0.45445 -0.69614,-0.76033 -0.69133,-1.785925 0.003,-0.68067 0.2276,-1.71383 0.49868,-2.29591 0.917,-1.96911 4.08686,-4.50889 7.43301,-5.95556 1.14687,-0.49583 2.05905,-0.65256 4.30501,-0.73968 2.51692,-0.0976 3.1083,-0.0299 5.062725,0.5794 2.08163,0.64902 3.64621,1.5221 3.31827,1.85168 -0.0805,0.0809 -1.04741,-0.20289 -2.14877,-0.63056 -4.302075,-1.6705 -7.560475,-1.64609 -11.167015,0.0836 -4.01271,1.92455 -6.51397,4.48109 -6.51397,6.65796 0,1.432025 0.49726,2.121355 1.3719,1.901835 0.36345,-0.0912 1.64336,-1.24117 2.84604,-2.557075 1.20207,-1.31522 2.71137,-2.69945 3.354,-3.07605 1.03997,-0.60946 1.39467,-0.67441 3.2264,-0.59079 1.90437,0.0869 2.31876,0.22111 5.5517,1.79739 3.380575,1.64827 3.492715,1.72967 3.463015,2.51354 -0.0192,0.507055 -0.0782,0.625195 -0.15771,0.31582 -0.084,-0.3268 -1.3511,-1.08124 -3.739615,-2.22656 -5.84932,-2.8048 -7.10656,-2.62372 -10.94531,1.5764 -2.91119,3.185225 -3.7531,3.613985 -5.06703,2.580445 z m 33.199445,-4.814145 c 0.96234,-0.90692 2.82437,-2.66097 4.13785,-3.8979 2.80127,-2.63801 3.52981,-3.88507 3.54022,-6.05986 0.016,-3.34697 -1.81363,-5.28861 -6.90304,-7.32561 -1.31585,-0.52666 -2.39245,-1.06413 -2.39245,-1.194379 0,-0.130248 0.0982,-0.236815 0.21824,-0.236815 0.53752,0 4.14982,1.363214 5.36533,2.024784 1.83218,0.99719 3.77133,3.16957 4.20184,4.70719 0.41007,1.46462 0.20497,4.01171 -0.4225,5.24706 -0.79286,1.56094 -8.27963,8.40263 -9.18017,8.38918 -0.17327,-0.003 0.47234,-0.74673 1.43468,-1.65365 z m -1.61742,-1.01623 c 0,-0.17158 0.89872,-1.18765 1.99717,-2.25795 2.15987,-2.10453 3.01582,-3.59234 3.02262,-5.25393 0.0104,-2.53389 -1.12308,-4.33363 -3.61498,-5.73997 -2.25238,-1.27117 -1.65435,-1.66684 0.71185,-0.47099 2.21326,1.11855 3.20534,2.70893 3.37928,5.41721 0.18853,2.93554 -0.19325,3.86776 -2.51255,6.13496 -2.13137,2.08351 -2.98339,2.70342 -2.98339,2.17067 z m -81.756245,-2.38381 c 0,-0.38009 0.241979,-0.9987 0.537732,-1.37469 0.892301,-1.13438 2.602031,-4.75673 3.861158,-8.18052 1.47195,-4.00248 2.40101,-5.759314 3.04567,-5.759314 0.42388,0 0.3901,0.143789 -0.28327,1.205574 -0.4205,0.66307 -1.26818,2.59783 -1.88372,4.29948 -1.39218,3.84864 -3.090216,7.4478 -4.330279,9.17848 -0.860217,1.20054 -0.947291,1.25854 -0.947291,0.63099 z m 81.757985,-2.1515 c 9.6e-4,-0.1819 0.2383,-0.68792 0.52742,-1.12448 0.66735,-1.00766 0.66735,-1.86669 0,-3.11182 -0.71634,-1.33653 -0.66598,-1.73917 0.12462,-0.99644 1.31625,1.23655 1.46452,3.2642 0.35364,4.83586 -0.54252,0.76755 -1.0086,0.95148 -1.00568,0.39688 z m 33.30051,-3.63916 c -6.15854,-0.71033 -9.91464,-2.9639 -12.20518,-7.3228 -1.10122,-2.095622 -1.13221,-2.201064 -0.64698,-2.201064 0.18797,0 0.66879,0.666806 1.0685,1.481794 0.85208,1.73736 2.90768,3.99987 4.64029,5.10735 0.67402,0.43084 2.17799,1.11883 3.34216,1.52887 2.08065,0.73284 2.21796,0.74553 8.06979,0.74553 5.58286,0 6.16706,-0.0473 9.39271,-0.7606 7.07549,-1.5646 10.52061,-3.12918 13.58977,-6.17173 1.07146,-1.06217 2.12189,-1.931214 2.33431,-1.931214 0.45047,0 -0.0794,0.750591 -1.85279,2.624794 -2.8124,2.97221 -8.83833,5.43099 -15.92614,6.49841 -3.35312,0.50497 -9.18592,0.70291 -11.80644,0.40066 z M 33.292745,84.258795 c 0,-0.98839 1.898904,-6.035624 2.270765,-6.035624 0.277908,0 0.265798,0.275122 -0.06114,1.389064 -0.453308,1.54449 -1.934039,5.22552 -2.102021,5.22552 -0.05918,0 -0.107601,-0.26053 -0.107601,-0.57896 z m 46.96354,-0.30679 c -2.68488,-0.89061 -5.88605,-3.01119 -7.10452,-4.70631 -1.07897,-1.501047 -0.34632,-1.246715 1.56847,0.54448 1.00244,0.93774 2.49753,1.97366 3.72308,2.57968 1.96242,0.97039 2.18672,1.01871 5.37005,1.15677 l 3.32209,0.14407 3.24457,-1.11768 c 6.77259,-2.33301 11.604615,-3.38634 12.703715,-2.76928 0.62288,0.3497 0.25852,0.45322 -2.7745,0.78826 -1.777185,0.19632 -3.746345,0.71163 -7.276035,1.90407 -4.79614,1.62028 -4.87018,1.63576 -8.279,1.73096 -2.38349,0.0666 -3.76454,-0.0117 -4.49792,-0.25502 z m 69.320825,-0.8635 c -1.16416,-0.20837 -2.9501,-0.77511 -3.96875,-1.25943 -2.63823,-1.25435 -5.49436,-3.605904 -4.37963,-3.605904 0.13781,0 1.00866,0.573794 1.93521,1.275104 3.41941,2.58814 6.61937,3.37051 12.87964,3.14898 6.73183,-0.23822 11.93482,-1.58763 14.52493,-3.767062 0.49755,-0.418659 1.06511,-0.66002 1.42678,-0.606752 0.51679,0.07611 0.36895,0.261027 -1.05975,1.325494 -1.97128,1.46873 -3.63879,2.13261 -7.12946,2.83845 -5.64228,1.14091 -10.3013,1.35411 -14.22897,0.65112 z m -65.469435,-1.71427 c -1.37206,-0.26904 -4.61624,-1.76843 -5.57118,-2.574863 -1.11149,-0.938643 -0.0692,-0.672841 2.53737,0.647103 3.85686,1.95305 6.50961,1.91376 13.27397,-0.19659 2.63767,-0.822904 3.66654,-1.02031 5.18303,-0.994451 l 1.892085,0.03226 -1.565975,0.228379 c -0.86128,0.125608 -3.1107,0.715392 -4.99871,1.310632 -5.4766,1.72662 -7.99124,2.0886 -10.75059,1.54753 z m 67.982985,-1.67673 c -0.65485,-0.18173 -1.60735,-0.55205 -2.11667,-0.822926 -0.74251,-0.39489 -0.82788,-0.513323 -0.43073,-0.597573 0.27243,-0.05779 0.98385,0.114813 1.58093,0.383565 1.57597,0.709354 9.54713,0.712604 12.11296,0.0049 0.96458,-0.266034 2.09567,-0.444627 2.51354,-0.396875 0.62551,0.07148 0.43251,0.192261 -1.09233,0.683549 -1.01864,0.3282 -2.68552,0.71279 -3.70416,0.85466 -2.53269,0.35271 -7.4157,0.29247 -8.86354,-0.10934 z M 33.292755,78.620046 c 0,-0.218282 0.115325,-0.396875 0.256279,-0.396875 0.140954,0 0.187747,0.178593 0.103984,0.396875 -0.195006,0.508179 -0.360263,0.508179 -0.360263,0 z"
       id="path1" /></g></svg>
