<?xml version="1.0" standalone="no"?>
 <!DOCTYPE svg PUBLIC "-//W3C//DTD SVG 1.1//EN" 
 "http://www.w3.org/Graphics/SVG/1.1/DTD/svg11.dtd"> 
<svg
  xmlns:svg="http://www.w3.org/2000/svg"
  xmlns="http://www.w3.org/2000/svg"
  xmlns:xlink="http://www.w3.org/1999/xlink"
  version="1.1"
  width="419.9890mm" height="297.0022mm" viewBox="0.0000 0.0000 419.9890 297.0022">
<title>SVG Image created as Controller-B_Silkscreen.svg date 2026/03/30 21:38:27 </title>
  <desc>Image generated by PCBNEW </desc>
<g style="fill:#000000; fill-opacity:1.0000;stroke:#000000; stroke-opacity:1.0000;
stroke-linecap:round; stroke-linejoin:round;"
 transform="translate(0 0) scale(1 1)">
<path style="fill:#000000; fill-opacity:1.0000; stroke:none;fill-rule:evenodd;"
d="M 185.2339,78.4337
185.1161,78.6861
185.0132,78.5832
184.5047,79.0916
184.0348,78.6217
184.0593,78.5691
184.3525,78.5691
184.5048,78.7215
184.5739,78.6524
184.3959,78.4743
184.3525,78.5691
184.0593,78.5691
184.1500,78.3743
184.6661,78.3743
184.7591,78.4672
184.8282,78.3982
184.7599,78.3299
184.6661,78.3743
184.1500,78.3743
184.1967,78.2739
184.4485,78.1566
184.5167,78.2249
184.5612,78.1309
184.8135,78.0132
Z" /> 
<path style="fill:#000000; fill-opacity:1.0000; stroke:none;fill-rule:evenodd;"
d="M 184.4059,77.9759
184.5238,77.7235
184.3031,77.5029
183.7947,78.0113
183.6097,77.8263
184.1182,77.3179
183.9331,77.1329
183.2396,77.8265
183.7946,78.3815
184.3030,77.8730
Z" /> 
<path style="fill:#000000; fill-opacity:1.0000; stroke:none;fill-rule:evenodd;"
d="M 183.3555,76.5553
183.0311,77.2477
182.8471,77.0637
182.6619,77.2488
183.1131,77.7000
183.4375,77.0075
183.6591,77.2291
183.7770,76.9767
Z" /> 
<path style="fill:#000000; fill-opacity:1.0000; stroke:none;fill-rule:evenodd;"
d="M 182.8271,76.0268
182.5026,76.7192
182.3186,76.5352
182.1335,76.7204
182.5846,77.1715
182.9090,76.4790
183.1306,76.7006
183.2485,76.4482
Z" /> 
<path style="fill:#000000; fill-opacity:1.0000; stroke:none;fill-rule:evenodd;"
d="M 182.6070,76.1770
182.7249,75.9246
182.2490,75.4487
182.0639,75.6339
182.3191,75.8891
182.2500,75.9582
182.0660,75.7742
181.8809,75.9593
182.0649,76.1433
181.9958,76.2124
181.7406,75.9572
181.5554,76.1423
181.9956,76.5825
182.5041,76.0741
Z" /> 
<path style="fill:#000000; fill-opacity:1.0000; stroke:none;fill-rule:evenodd;"
d="M 182.0976,75.2973
181.9797,75.5497
181.8768,75.4468
181.3684,75.9553
181.1834,75.7703
181.4376,75.5160
181.3812,75.4597
181.0350,75.6219
180.8352,75.4221
181.1814,75.2598
181.1270,75.2054
181.1515,75.1528
181.4447,75.1528
181.6227,75.3309
181.6918,75.2618
181.5395,75.1095
181.4447,75.1528
181.1515,75.1528
181.2442,74.9537
181.5921,74.7918
Z" /> 
<path style="fill:#000000; fill-opacity:1.0000; stroke:none;fill-rule:evenodd;"
d="M 106.6403,80.3759
106.4948,80.3759
106.4948,81.0950
106.2331,81.0950
106.2331,80.7355
106.1534,80.7355
106.0233,81.0950
105.7407,81.0950
105.8708,80.7355
105.7939,80.7355
105.6987,80.4746
105.6991,80.4736
105.9813,80.4736
106.2331,80.4736
106.2331,80.3759
106.0177,80.3759
105.9813,80.4736
105.6991,80.4736
105.8303,80.1141
106.5452,80.1141
Z" /> 
<path style="fill:#000000; fill-opacity:1.0000; stroke:none;fill-rule:evenodd;"
d="M 105.6428,80.3759
105.5477,80.1141
104.8747,80.1141
104.8747,80.3759
105.2357,80.3759
105.2357,80.4736
104.9755,80.4736
104.9755,80.7355
105.2357,80.7355
105.2357,81.0950
105.4973,81.0950
105.4973,80.3759
Z" /> 
<path style="fill:#000000; fill-opacity:1.0000; stroke:none;fill-rule:evenodd;"
d="M 103.9754,80.1141
103.9754,80.8332
103.6047,80.8332
103.6047,81.0950
104.2370,81.0950
104.2370,80.3759
104.3825,80.3759
104.2874,80.1141
Z" /> 
<path style="fill:#000000; fill-opacity:1.0000; stroke:none;fill-rule:evenodd;"
d="M 103.4614,80.3759
103.3145,80.3759
103.5761,81.0950
103.2936,81.0950
103.2460,80.9621
102.9801,80.9621
102.9801,81.0950
102.7185,81.0950
102.7185,80.7003
102.9801,80.7003
103.1509,80.7003
103.0319,80.3759
102.9801,80.3759
102.9801,80.7003
102.7185,80.7003
102.7185,80.1141
103.3649,80.1141
Z" /> 
<path style="fill:#000000; fill-opacity:1.0000; stroke:none;fill-rule:evenodd;"
d="M 102.5927,80.3759
102.4976,80.1141
102.1855,80.1141
102.1855,80.8332
101.9240,80.8332
101.9240,80.1141
101.6623,80.1141
101.6623,81.0950
102.4472,81.0950
102.4472,80.3759
Z" /> 
<path style="fill:#000000; fill-opacity:1.0000; stroke:none;fill-rule:evenodd;"
d="M 101.5366,80.3759
101.4415,80.1141
101.1294,80.1141
100.8679,80.5961
100.8679,80.1141
100.6062,80.1141
100.6062,81.0950
100.8679,81.0950
101.1294,80.6130
101.1294,81.0950
101.3911,81.0950
101.3911,80.3759
Z" /> 
<path style="fill:#000000; fill-opacity:1.0000; stroke:none;fill-rule:evenodd;"
d="M 100.4595,80.6046
100.2818,80.1141
99.7278,80.1141
99.7278,80.3759
100.0943,80.3759
100.1769,80.6046
100.0943,80.8332
99.7278,80.8332
99.7278,81.0950
100.2818,81.0950
Z" /> 
<path style="fill:#000000; fill-opacity:1.0000; stroke:none;fill-rule:evenodd;"
d="M 99.6295,80.3759
99.5344,80.1141
99.2224,80.1141
99.2224,80.4736
98.9608,80.4736
98.9608,80.1141
98.6992,80.1141
98.6992,81.0950
98.9608,81.0950
98.9608,80.7355
99.2224,80.7355
99.2224,81.0950
99.4840,81.0950
99.4840,80.3759
Z" /> 
<path style="fill:#000000; fill-opacity:1.0000; stroke:none;fill-rule:evenodd;"
d="M 98.2214,81.0950
97.9597,80.3759
98.1066,80.3759
98.0101,80.1141
97.4267,80.1141
97.4267,80.7741
97.1875,80.1141
96.7594,80.1141
96.7594,81.0950
97.0210,81.0950
97.0210,80.3944
97.2757,81.0950
97.6884,81.0950
97.6884,80.4070
97.9388,81.0950
Z" /> 
<path style="fill:#000000; fill-opacity:1.0000; stroke:none;fill-rule:evenodd;"
d="M 96.6122,80.6046
96.4345,81.0950
95.8805,81.0950
95.7014,80.6046
95.9840,80.6046
96.0679,80.8332
96.2470,80.8332
96.3296,80.6046
96.2470,80.3759
96.0679,80.3759
95.9840,80.6046
95.7014,80.6046
95.8805,80.1141
96.4345,80.1141
Z" /> 
<path style="fill:#000000; fill-opacity:1.0000; stroke:none;fill-rule:evenodd;"
d="M 95.6240,80.3759
95.4785,80.3759
95.4785,81.0950
94.8615,81.0950
94.6824,80.6046
94.9650,80.6046
95.0490,80.8332
95.2168,80.8332
95.2168,80.3759
95.0490,80.3759
94.9650,80.6046
94.6824,80.6046
94.8615,80.1141
95.5288,80.1141
Z" /> 
<path style="fill:#000000; fill-opacity:1.0000; stroke:none;fill-rule:evenodd;"
d="M 94.6050,80.3759
94.5098,80.1141
94.1978,80.1141
94.1978,80.8332
93.9362,80.8332
93.9362,80.1141
93.6746,80.1141
93.6746,81.0950
94.4595,81.0950
94.4595,80.3759
Z" /> 
<path style="fill:#000000; fill-opacity:1.0000; stroke:none;fill-rule:evenodd;"
d="M 93.1417,80.1141
93.1417,80.8332
92.7710,80.8332
92.7710,81.0950
93.4034,81.0950
93.4034,80.3759
93.5489,80.3759
93.4537,80.1141
Z" /> 
<path style="fill:#000000; fill-opacity:1.0000; stroke:none;fill-rule:evenodd;"
d="M 92.7009,80.3759
92.6057,80.1141
91.9328,80.1141
91.9328,80.3759
92.2937,80.3759
92.2937,80.4736
92.0335,80.4736
92.0335,80.7355
92.2937,80.7355
92.2937,80.8332
91.9328,80.8332
91.9328,81.0950
92.5554,81.0950
92.5554,80.3759
Z" /> 
</g>
<g style="fill:none; 
stroke:#000000; stroke-width:0.1000; stroke-opacity:1; 
stroke-linecap:round; stroke-linejoin:round;">
<g transform="rotate(-270.000000 95.3320 60.1620)">
<text x="95.3320" y="60.1620"
transform="scale(-1 1) translate(-190.664000 0)"
textLength="3.1000" font-size="1.3333" lengthAdjust="spacingAndGlyphs"
text-anchor="start" opacity="0" stroke-opacity="0">CH2</text>
</g>
<g class="stroked-text"><desc>CH2</desc>
<path d="M95.5548 59.2867
L95.5072 59.3343
" />
<path d="M95.5072 59.3343
L95.4596 59.4772
" />
<path d="M95.4596 59.4772
L95.4596 59.5724
" />
<path d="M95.4596 59.5724
L95.5072 59.7153
" />
<path d="M95.5072 59.7153
L95.6024 59.8105
" />
<path d="M95.6024 59.8105
L95.6977 59.8581
" />
<path d="M95.6977 59.8581
L95.8882 59.9057
" />
<path d="M95.8882 59.9057
L96.0310 59.9057
" />
<path d="M96.0310 59.9057
L96.2215 59.8581
" />
<path d="M96.2215 59.8581
L96.3167 59.8105
" />
<path d="M96.3167 59.8105
L96.4120 59.7153
" />
<path d="M96.4120 59.7153
L96.4596 59.5724
" />
<path d="M96.4596 59.5724
L96.4596 59.4772
" />
<path d="M96.4596 59.4772
L96.4120 59.3343
" />
<path d="M96.4120 59.3343
L96.3643 59.2867
" />
<path d="M95.4596 58.8581
L96.4596 58.8581
" />
<path d="M95.9834 58.8581
L95.9834 58.2867
" />
<path d="M95.4596 58.2867
L96.4596 58.2867
" />
<path d="M96.3643 57.8581
L96.4120 57.8105
" />
<path d="M96.4120 57.8105
L96.4596 57.7153
" />
<path d="M96.4596 57.7153
L96.4596 57.4772
" />
<path d="M96.4596 57.4772
L96.4120 57.3819
" />
<path d="M96.4120 57.3819
L96.3643 57.3343
" />
<path d="M96.3643 57.3343
L96.2691 57.2867
" />
<path d="M96.2691 57.2867
L96.1739 57.2867
" />
<path d="M96.1739 57.2867
L96.0310 57.3343
" />
<path d="M96.0310 57.3343
L95.4596 57.9057
" />
<path d="M95.4596 57.9057
L95.4596 57.2867
" />
</g><g transform="rotate(-270.000000 102.9520 60.1620)">
<text x="102.9520" y="60.1620"
transform="scale(-1 1) translate(-205.904000 0)"
textLength="2.7667" font-size="1.3333" lengthAdjust="spacingAndGlyphs"
text-anchor="start" opacity="0" stroke-opacity="0">ANT</text>
</g>
<g class="stroked-text"><desc>ANT</desc>
<path d="M103.3653 59.9057
L103.3653 59.4295
" />
<path d="M103.0796 60.0010
L104.0796 59.6676
" />
<path d="M104.0796 59.6676
L103.0796 59.3343
" />
<path d="M103.0796 59.0010
L104.0796 59.0010
" />
<path d="M104.0796 59.0010
L103.0796 58.4295
" />
<path d="M103.0796 58.4295
L104.0796 58.4295
" />
<path d="M104.0796 58.0962
L104.0796 57.5248
" />
<path d="M103.0796 57.8105
L104.0796 57.8105
" />
</g><g transform="rotate(-270.000000 100.4120 61.1780)">
<text x="100.4120" y="61.1780"
transform="scale(-1 1) translate(-200.824000 0)"
textLength="4.0048" font-size="1.3333" lengthAdjust="spacingAndGlyphs"
text-anchor="start" opacity="0" stroke-opacity="0">AGND</text>
</g>
<g class="stroked-text"><desc>AGND</desc>
<path d="M100.8253 60.9217
L100.8253 60.4455
" />
<path d="M100.5396 61.0170
L101.5396 60.6836
" />
<path d="M101.5396 60.6836
L100.5396 60.3503
" />
<path d="M101.4920 59.4932
L101.5396 59.5884
" />
<path d="M101.5396 59.5884
L101.5396 59.7313
" />
<path d="M101.5396 59.7313
L101.4920 59.8741
" />
<path d="M101.4920 59.8741
L101.3967 59.9694
" />
<path d="M101.3967 59.9694
L101.3015 60.0170
" />
<path d="M101.3015 60.0170
L101.1110 60.0646
" />
<path d="M101.1110 60.0646
L100.9682 60.0646
" />
<path d="M100.9682 60.0646
L100.7777 60.0170
" />
<path d="M100.7777 60.0170
L100.6824 59.9694
" />
<path d="M100.6824 59.9694
L100.5872 59.8741
" />
<path d="M100.5872 59.8741
L100.5396 59.7313
" />
<path d="M100.5396 59.7313
L100.5396 59.6360
" />
<path d="M100.5396 59.6360
L100.5872 59.4932
" />
<path d="M100.5872 59.4932
L100.6348 59.4455
" />
<path d="M100.6348 59.4455
L100.9682 59.4455
" />
<path d="M100.9682 59.4455
L100.9682 59.6360
" />
<path d="M100.5396 59.0170
L101.5396 59.0170
" />
<path d="M101.5396 59.0170
L100.5396 58.4455
" />
<path d="M100.5396 58.4455
L101.5396 58.4455
" />
<path d="M100.5396 57.9694
L101.5396 57.9694
" />
<path d="M101.5396 57.9694
L101.5396 57.7313
" />
<path d="M101.5396 57.7313
L101.4920 57.5884
" />
<path d="M101.4920 57.5884
L101.3967 57.4932
" />
<path d="M101.3967 57.4932
L101.3015 57.4455
" />
<path d="M101.3015 57.4455
L101.1110 57.3979
" />
<path d="M101.1110 57.3979
L100.9682 57.3979
" />
<path d="M100.9682 57.3979
L100.7777 57.4455
" />
<path d="M100.7777 57.4455
L100.6824 57.4932
" />
<path d="M100.6824 57.4932
L100.5872 57.5884
" />
<path d="M100.5872 57.5884
L100.5396 57.7313
" />
<path d="M100.5396 57.7313
L100.5396 57.9694
" />
</g><g transform="rotate(-270.000000 92.7920 74.3860)">
<text x="92.7920" y="74.3860"
transform="scale(-1 1) translate(-185.584000 0)"
textLength="3.1476" font-size="1.3333" lengthAdjust="spacingAndGlyphs"
text-anchor="start" opacity="0" stroke-opacity="0">GND</text>
</g>
<g class="stroked-text"><desc>GND</desc>
<path d="M93.8720 73.5583
L93.9196 73.6535
" />
<path d="M93.9196 73.6535
L93.9196 73.7964
" />
<path d="M93.9196 73.7964
L93.8720 73.9393
" />
<path d="M93.8720 73.9393
L93.7767 74.0345
" />
<path d="M93.7767 74.0345
L93.6815 74.0821
" />
<path d="M93.6815 74.0821
L93.4910 74.1297
" />
<path d="M93.4910 74.1297
L93.3482 74.1297
" />
<path d="M93.3482 74.1297
L93.1577 74.0821
" />
<path d="M93.1577 74.0821
L93.0624 74.0345
" />
<path d="M93.0624 74.0345
L92.9672 73.9393
" />
<path d="M92.9672 73.9393
L92.9196 73.7964
" />
<path d="M92.9196 73.7964
L92.9196 73.7012
" />
<path d="M92.9196 73.7012
L92.9672 73.5583
" />
<path d="M92.9672 73.5583
L93.0148 73.5107
" />
<path d="M93.0148 73.5107
L93.3482 73.5107
" />
<path d="M93.3482 73.5107
L93.3482 73.7012
" />
<path d="M92.9196 73.0821
L93.9196 73.0821
" />
<path d="M93.9196 73.0821
L92.9196 72.5107
" />
<path d="M92.9196 72.5107
L93.9196 72.5107
" />
<path d="M92.9196 72.0345
L93.9196 72.0345
" />
<path d="M93.9196 72.0345
L93.9196 71.7964
" />
<path d="M93.9196 71.7964
L93.8720 71.6535
" />
<path d="M93.8720 71.6535
L93.7767 71.5583
" />
<path d="M93.7767 71.5583
L93.6815 71.5107
" />
<path d="M93.6815 71.5107
L93.4910 71.4631
" />
<path d="M93.4910 71.4631
L93.3482 71.4631
" />
<path d="M93.3482 71.4631
L93.1577 71.5107
" />
<path d="M93.1577 71.5107
L93.0624 71.5583
" />
<path d="M93.0624 71.5583
L92.9672 71.6535
" />
<path d="M92.9672 71.6535
L92.9196 71.7964
" />
<path d="M92.9196 71.7964
L92.9196 72.0345
" />
</g><g transform="rotate(-270.000000 102.9520 74.3860)">
<text x="102.9520" y="74.3860"
transform="scale(-1 1) translate(-205.904000 0)"
textLength="4.3857" font-size="1.3333" lengthAdjust="spacingAndGlyphs"
text-anchor="start" opacity="0" stroke-opacity="0">VIDEO</text>
</g>
<g class="stroked-text"><desc>VIDEO</desc>
<path d="M104.0796 74.2250
L103.0796 73.8916
" />
<path d="M103.0796 73.8916
L104.0796 73.5583
" />
<path d="M103.0796 73.2250
L104.0796 73.2250
" />
<path d="M103.0796 72.7488
L104.0796 72.7488
" />
<path d="M104.0796 72.7488
L104.0796 72.5107
" />
<path d="M104.0796 72.5107
L104.0320 72.3678
" />
<path d="M104.0320 72.3678
L103.9367 72.2726
" />
<path d="M103.9367 72.2726
L103.8415 72.2250
" />
<path d="M103.8415 72.2250
L103.6510 72.1774
" />
<path d="M103.6510 72.1774
L103.5082 72.1774
" />
<path d="M103.5082 72.1774
L103.3177 72.2250
" />
<path d="M103.3177 72.2250
L103.2224 72.2726
" />
<path d="M103.2224 72.2726
L103.1272 72.3678
" />
<path d="M103.1272 72.3678
L103.0796 72.5107
" />
<path d="M103.0796 72.5107
L103.0796 72.7488
" />
<path d="M103.6034 71.7488
L103.6034 71.4154
" />
<path d="M103.0796 71.2726
L103.0796 71.7488
" />
<path d="M103.0796 71.7488
L104.0796 71.7488
" />
<path d="M104.0796 71.7488
L104.0796 71.2726
" />
<path d="M104.0796 70.6535
L104.0796 70.4631
" />
<path d="M104.0796 70.4631
L104.0320 70.3678
" />
<path d="M104.0320 70.3678
L103.9367 70.2726
" />
<path d="M103.9367 70.2726
L103.7462 70.2250
" />
<path d="M103.7462 70.2250
L103.4129 70.2250
" />
<path d="M103.4129 70.2250
L103.2224 70.2726
" />
<path d="M103.2224 70.2726
L103.1272 70.3678
" />
<path d="M103.1272 70.3678
L103.0796 70.4631
" />
<path d="M103.0796 70.4631
L103.0796 70.6535
" />
<path d="M103.0796 70.6535
L103.1272 70.7488
" />
<path d="M103.1272 70.7488
L103.2224 70.8440
" />
<path d="M103.2224 70.8440
L103.4129 70.8916
" />
<path d="M103.4129 70.8916
L103.7462 70.8916
" />
<path d="M103.7462 70.8916
L103.9367 70.8440
" />
<path d="M103.9367 70.8440
L104.0320 70.7488
" />
<path d="M104.0320 70.7488
L104.0796 70.6535
" />
</g><g transform="rotate(-270.000000 97.8720 74.3860)">
<text x="97.8720" y="74.3860"
transform="scale(-1 1) translate(-195.744000 0)"
textLength="3.1476" font-size="1.3333" lengthAdjust="spacingAndGlyphs"
text-anchor="start" opacity="0" stroke-opacity="0">GND</text>
</g>
<g class="stroked-text"><desc>GND</desc>
<path d="M98.9520 73.5583
L98.9996 73.6535
" />
<path d="M98.9996 73.6535
L98.9996 73.7964
" />
<path d="M98.9996 73.7964
L98.9520 73.9393
" />
<path d="M98.9520 73.9393
L98.8567 74.0345
" />
<path d="M98.8567 74.0345
L98.7615 74.0821
" />
<path d="M98.7615 74.0821
L98.5710 74.1297
" />
<path d="M98.5710 74.1297
L98.4282 74.1297
" />
<path d="M98.4282 74.1297
L98.2377 74.0821
" />
<path d="M98.2377 74.0821
L98.1424 74.0345
" />
<path d="M98.1424 74.0345
L98.0472 73.9393
" />
<path d="M98.0472 73.9393
L97.9996 73.7964
" />
<path d="M97.9996 73.7964
L97.9996 73.7012
" />
<path d="M97.9996 73.7012
L98.0472 73.5583
" />
<path d="M98.0472 73.5583
L98.0948 73.5107
" />
<path d="M98.0948 73.5107
L98.4282 73.5107
" />
<path d="M98.4282 73.5107
L98.4282 73.7012
" />
<path d="M97.9996 73.0821
L98.9996 73.0821
" />
<path d="M98.9996 73.0821
L97.9996 72.5107
" />
<path d="M97.9996 72.5107
L98.9996 72.5107
" />
<path d="M97.9996 72.0345
L98.9996 72.0345
" />
<path d="M98.9996 72.0345
L98.9996 71.7964
" />
<path d="M98.9996 71.7964
L98.9520 71.6535
" />
<path d="M98.9520 71.6535
L98.8567 71.5583
" />
<path d="M98.8567 71.5583
L98.7615 71.5107
" />
<path d="M98.7615 71.5107
L98.5710 71.4631
" />
<path d="M98.5710 71.4631
L98.4282 71.4631
" />
<path d="M98.4282 71.4631
L98.2377 71.5107
" />
<path d="M98.2377 71.5107
L98.1424 71.5583
" />
<path d="M98.1424 71.5583
L98.0472 71.6535
" />
<path d="M98.0472 71.6535
L97.9996 71.7964
" />
<path d="M97.9996 71.7964
L97.9996 72.0345
" />
</g><g transform="rotate(-270.000000 100.4120 74.3860)">
<text x="100.4120" y="74.3860"
transform="scale(-1 1) translate(-200.824000 0)"
textLength="4.5286" font-size="1.3333" lengthAdjust="spacingAndGlyphs"
text-anchor="start" opacity="0" stroke-opacity="0">AUDIO</text>
</g>
<g class="stroked-text"><desc>AUDIO</desc>
<path d="M100.8253 74.1297
L100.8253 73.6535
" />
<path d="M100.5396 74.2250
L101.5396 73.8916
" />
<path d="M101.5396 73.8916
L100.5396 73.5583
" />
<path d="M101.5396 73.2250
L100.7301 73.2250
" />
<path d="M100.7301 73.2250
L100.6348 73.1774
" />
<path d="M100.6348 73.1774
L100.5872 73.1297
" />
<path d="M100.5872 73.1297
L100.5396 73.0345
" />
<path d="M100.5396 73.0345
L100.5396 72.8440
" />
<path d="M100.5396 72.8440
L100.5872 72.7488
" />
<path d="M100.5872 72.7488
L100.6348 72.7012
" />
<path d="M100.6348 72.7012
L100.7301 72.6535
" />
<path d="M100.7301 72.6535
L101.5396 72.6535
" />
<path d="M100.5396 72.1774
L101.5396 72.1774
" />
<path d="M101.5396 72.1774
L101.5396 71.9393
" />
<path d="M101.5396 71.9393
L101.4920 71.7964
" />
<path d="M101.4920 71.7964
L101.3967 71.7012
" />
<path d="M101.3967 71.7012
L101.3015 71.6535
" />
<path d="M101.3015 71.6535
L101.1110 71.6059
" />
<path d="M101.1110 71.6059
L100.9682 71.6059
" />
<path d="M100.9682 71.6059
L100.7777 71.6535
" />
<path d="M100.7777 71.6535
L100.6824 71.7012
" />
<path d="M100.6824 71.7012
L100.5872 71.7964
" />
<path d="M100.5872 71.7964
L100.5396 71.9393
" />
<path d="M100.5396 71.9393
L100.5396 72.1774
" />
<path d="M100.5396 71.1774
L101.5396 71.1774
" />
<path d="M101.5396 70.5107
L101.5396 70.3202
" />
<path d="M101.5396 70.3202
L101.4920 70.2250
" />
<path d="M101.4920 70.2250
L101.3967 70.1297
" />
<path d="M101.3967 70.1297
L101.2062 70.0821
" />
<path d="M101.2062 70.0821
L100.8729 70.0821
" />
<path d="M100.8729 70.0821
L100.6824 70.1297
" />
<path d="M100.6824 70.1297
L100.5872 70.2250
" />
<path d="M100.5872 70.2250
L100.5396 70.3202
" />
<path d="M100.5396 70.3202
L100.5396 70.5107
" />
<path d="M100.5396 70.5107
L100.5872 70.6059
" />
<path d="M100.5872 70.6059
L100.6824 70.7012
" />
<path d="M100.6824 70.7012
L100.8729 70.7488
" />
<path d="M100.8729 70.7488
L101.2062 70.7488
" />
<path d="M101.2062 70.7488
L101.3967 70.7012
" />
<path d="M101.3967 70.7012
L101.4920 70.6059
" />
<path d="M101.4920 70.6059
L101.5396 70.5107
" />
</g><g transform="rotate(-270.000000 92.7920 60.1620)">
<text x="92.7920" y="60.1620"
transform="scale(-1 1) translate(-185.584000 0)"
textLength="3.1000" font-size="1.3333" lengthAdjust="spacingAndGlyphs"
text-anchor="start" opacity="0" stroke-opacity="0">CH1</text>
</g>
<g class="stroked-text"><desc>CH1</desc>
<path d="M93.0148 59.2867
L92.9672 59.3343
" />
<path d="M92.9672 59.3343
L92.9196 59.4772
" />
<path d="M92.9196 59.4772
L92.9196 59.5724
" />
<path d="M92.9196 59.5724
L92.9672 59.7153
" />
<path d="M92.9672 59.7153
L93.0624 59.8105
" />
<path d="M93.0624 59.8105
L93.1577 59.8581
" />
<path d="M93.1577 59.8581
L93.3482 59.9057
" />
<path d="M93.3482 59.9057
L93.4910 59.9057
" />
<path d="M93.4910 59.9057
L93.6815 59.8581
" />
<path d="M93.6815 59.8581
L93.7767 59.8105
" />
<path d="M93.7767 59.8105
L93.8720 59.7153
" />
<path d="M93.8720 59.7153
L93.9196 59.5724
" />
<path d="M93.9196 59.5724
L93.9196 59.4772
" />
<path d="M93.9196 59.4772
L93.8720 59.3343
" />
<path d="M93.8720 59.3343
L93.8243 59.2867
" />
<path d="M92.9196 58.8581
L93.9196 58.8581
" />
<path d="M93.4434 58.8581
L93.4434 58.2867
" />
<path d="M92.9196 58.2867
L93.9196 58.2867
" />
<path d="M92.9196 57.2867
L92.9196 57.8581
" />
<path d="M92.9196 57.5724
L93.9196 57.5724
" />
<path d="M93.9196 57.5724
L93.7767 57.6676
" />
<path d="M93.7767 57.6676
L93.6815 57.7629
" />
<path d="M93.6815 57.7629
L93.6339 57.8581
" />
</g><g transform="rotate(-270.000000 95.3320 74.3860)">
<text x="95.3320" y="74.3860"
transform="scale(-1 1) translate(-190.664000 0)"
textLength="2.9571" font-size="1.3333" lengthAdjust="spacingAndGlyphs"
text-anchor="start" opacity="0" stroke-opacity="0">VCC</text>
</g>
<g class="stroked-text"><desc>VCC</desc>
<path d="M96.4596 74.2250
L95.4596 73.8916
" />
<path d="M95.4596 73.8916
L96.4596 73.5583
" />
<path d="M95.5548 72.6535
L95.5072 72.7012
" />
<path d="M95.5072 72.7012
L95.4596 72.8440
" />
<path d="M95.4596 72.8440
L95.4596 72.9393
" />
<path d="M95.4596 72.9393
L95.5072 73.0821
" />
<path d="M95.5072 73.0821
L95.6024 73.1774
" />
<path d="M95.6024 73.1774
L95.6977 73.2250
" />
<path d="M95.6977 73.2250
L95.8882 73.2726
" />
<path d="M95.8882 73.2726
L96.0310 73.2726
" />
<path d="M96.0310 73.2726
L96.2215 73.2250
" />
<path d="M96.2215 73.2250
L96.3167 73.1774
" />
<path d="M96.3167 73.1774
L96.4120 73.0821
" />
<path d="M96.4120 73.0821
L96.4596 72.9393
" />
<path d="M96.4596 72.9393
L96.4596 72.8440
" />
<path d="M96.4596 72.8440
L96.4120 72.7012
" />
<path d="M96.4120 72.7012
L96.3643 72.6535
" />
<path d="M95.5548 71.6535
L95.5072 71.7012
" />
<path d="M95.5072 71.7012
L95.4596 71.8440
" />
<path d="M95.4596 71.8440
L95.4596 71.9393
" />
<path d="M95.4596 71.9393
L95.5072 72.0821
" />
<path d="M95.5072 72.0821
L95.6024 72.1774
" />
<path d="M95.6024 72.1774
L95.6977 72.2250
" />
<path d="M95.6977 72.2250
L95.8882 72.2726
" />
<path d="M95.8882 72.2726
L96.0310 72.2726
" />
<path d="M96.0310 72.2726
L96.2215 72.2250
" />
<path d="M96.2215 72.2250
L96.3167 72.1774
" />
<path d="M96.3167 72.1774
L96.4120 72.0821
" />
<path d="M96.4120 72.0821
L96.4596 71.9393
" />
<path d="M96.4596 71.9393
L96.4596 71.8440
" />
<path d="M96.4596 71.8440
L96.4120 71.7012
" />
<path d="M96.4120 71.7012
L96.3643 71.6535
" />
</g><g transform="rotate(-270.000000 105.4920 61.1780)">
<text x="105.4920" y="61.1780"
transform="scale(-1 1) translate(-210.984000 0)"
textLength="4.0048" font-size="1.3333" lengthAdjust="spacingAndGlyphs"
text-anchor="start" opacity="0" stroke-opacity="0">AGND</text>
</g>
<g class="stroked-text"><desc>AGND</desc>
<path d="M105.9053 60.9217
L105.9053 60.4455
" />
<path d="M105.6196 61.0170
L106.6196 60.6836
" />
<path d="M106.6196 60.6836
L105.6196 60.3503
" />
<path d="M106.5720 59.4932
L106.6196 59.5884
" />
<path d="M106.6196 59.5884
L106.6196 59.7313
" />
<path d="M106.6196 59.7313
L106.5720 59.8741
" />
<path d="M106.5720 59.8741
L106.4767 59.9694
" />
<path d="M106.4767 59.9694
L106.3815 60.0170
" />
<path d="M106.3815 60.0170
L106.1910 60.0646
" />
<path d="M106.1910 60.0646
L106.0482 60.0646
" />
<path d="M106.0482 60.0646
L105.8577 60.0170
" />
<path d="M105.8577 60.0170
L105.7624 59.9694
" />
<path d="M105.7624 59.9694
L105.6672 59.8741
" />
<path d="M105.6672 59.8741
L105.6196 59.7313
" />
<path d="M105.6196 59.7313
L105.6196 59.6360
" />
<path d="M105.6196 59.6360
L105.6672 59.4932
" />
<path d="M105.6672 59.4932
L105.7148 59.4455
" />
<path d="M105.7148 59.4455
L106.0482 59.4455
" />
<path d="M106.0482 59.4455
L106.0482 59.6360
" />
<path d="M105.6196 59.0170
L106.6196 59.0170
" />
<path d="M106.6196 59.0170
L105.6196 58.4455
" />
<path d="M105.6196 58.4455
L106.6196 58.4455
" />
<path d="M105.6196 57.9694
L106.6196 57.9694
" />
<path d="M106.6196 57.9694
L106.6196 57.7313
" />
<path d="M106.6196 57.7313
L106.5720 57.5884
" />
<path d="M106.5720 57.5884
L106.4767 57.4932
" />
<path d="M106.4767 57.4932
L106.3815 57.4455
" />
<path d="M106.3815 57.4455
L106.1910 57.3979
" />
<path d="M106.1910 57.3979
L106.0482 57.3979
" />
<path d="M106.0482 57.3979
L105.8577 57.4455
" />
<path d="M105.8577 57.4455
L105.7624 57.4932
" />
<path d="M105.7624 57.4932
L105.6672 57.5884
" />
<path d="M105.6672 57.5884
L105.6196 57.7313
" />
<path d="M105.6196 57.7313
L105.6196 57.9694
" />
</g><g transform="rotate(-270.000000 97.8720 60.1620)">
<text x="97.8720" y="60.1620"
transform="scale(-1 1) translate(-195.744000 0)"
textLength="3.1000" font-size="1.3333" lengthAdjust="spacingAndGlyphs"
text-anchor="start" opacity="0" stroke-opacity="0">CH3</text>
</g>
<g class="stroked-text"><desc>CH3</desc>
<path d="M98.0948 59.2867
L98.0472 59.3343
" />
<path d="M98.0472 59.3343
L97.9996 59.4772
" />
<path d="M97.9996 59.4772
L97.9996 59.5724
" />
<path d="M97.9996 59.5724
L98.0472 59.7153
" />
<path d="M98.0472 59.7153
L98.1424 59.8105
" />
<path d="M98.1424 59.8105
L98.2377 59.8581
" />
<path d="M98.2377 59.8581
L98.4282 59.9057
" />
<path d="M98.4282 59.9057
L98.5710 59.9057
" />
<path d="M98.5710 59.9057
L98.7615 59.8581
" />
<path d="M98.7615 59.8581
L98.8567 59.8105
" />
<path d="M98.8567 59.8105
L98.9520 59.7153
" />
<path d="M98.9520 59.7153
L98.9996 59.5724
" />
<path d="M98.9996 59.5724
L98.9996 59.4772
" />
<path d="M98.9996 59.4772
L98.9520 59.3343
" />
<path d="M98.9520 59.3343
L98.9043 59.2867
" />
<path d="M97.9996 58.8581
L98.9996 58.8581
" />
<path d="M98.5234 58.8581
L98.5234 58.2867
" />
<path d="M97.9996 58.2867
L98.9996 58.2867
" />
<path d="M98.9996 57.9057
L98.9996 57.2867
" />
<path d="M98.9996 57.2867
L98.6186 57.6200
" />
<path d="M98.6186 57.6200
L98.6186 57.4772
" />
<path d="M98.6186 57.4772
L98.5710 57.3819
" />
<path d="M98.5710 57.3819
L98.5234 57.3343
" />
<path d="M98.5234 57.3343
L98.4282 57.2867
" />
<path d="M98.4282 57.2867
L98.1901 57.2867
" />
<path d="M98.1901 57.2867
L98.0948 57.3343
" />
<path d="M98.0948 57.3343
L98.0472 57.3819
" />
<path d="M98.0472 57.3819
L97.9996 57.4772
" />
<path d="M97.9996 57.4772
L97.9996 57.7629
" />
<path d="M97.9996 57.7629
L98.0472 57.8581
" />
<path d="M98.0472 57.8581
L98.0948 57.9057
" />
</g><path style="fill:none; 
stroke:#000000; stroke-width:0.1000; stroke-opacity:1; 
stroke-linecap:round; stroke-linejoin:round;fill:none"
d="M 107.8800,76.7500
88.8800,76.7500
88.8800,54.7500
107.8800,54.7500
Z" /> 
</g>
<g style="fill:none; 
stroke:#000000; stroke-width:0.1200; stroke-opacity:1; 
stroke-linecap:round; stroke-linejoin:round;">
<path d="M204.5099 149.4417
L202.5583 147.4901
" />
<path d="M211.6163 138.4321
L202.5583 147.4901
" />
<path d="M213.5679 140.3837
L204.5099 149.4417
" />
<path d="M213.5679 140.3837
L211.6163 138.4321
" />
<path d="M214.4659 139.4857
L215.4417 138.5099
" />
<path d="M215.4417 138.5099
L214.4659 137.5341
" />
<path d="M205.3441 69.1367
L216.6752 100.2688
" />
<path d="M207.0313 65.7026
L205.7345 66.1746
" />
<path d="M207.5033 66.9994
L207.0313 65.7026
" />
<path d="M207.9376 68.1928
L205.3441 69.1367
" />
<path d="M207.9376 68.1928
L219.2688 99.3248
" />
<path d="M219.2688 99.3248
L216.6752 100.2688
" />
</g>
<g style="fill:none; 
stroke:#000000; stroke-width:0.2500; stroke-opacity:1; 
stroke-linecap:round; stroke-linejoin:round;">
<path d="M180.8860 73.2500
L187.2500 79.6140
" />
<path d="M182.5619 71.5742
L180.8860 73.2500
" />
<path d="M187.2500 66.8860
L185.5742 68.5619
" />
<path d="M187.2500 79.6140
L188.9258 77.9381
" />
<path d="M191.9381 74.9258
L193.6140 73.2500
" />
<path d="M193.6140 73.2500
L187.2500 66.8860
" />
<circle cx="187.2500" cy="78.2846" r="0.4600" /> 
</g>
<g style="fill:none; 
stroke:#000000; stroke-width:0.1200; stroke-opacity:1; 
stroke-linecap:round; stroke-linejoin:round;">
<path d="M166.4321 140.3837
L175.4901 149.4417
" />
<path d="M166.5099 136.5583
L165.5341 137.5341
" />
<path d="M167.4857 137.5341
L166.5099 136.5583
" />
<path d="M168.3837 138.4321
L166.4321 140.3837
" />
<path d="M168.3837 138.4321
L177.4417 147.4901
" />
<path d="M177.4417 147.4901
L175.4901 149.4417
" />
<path d="M163.3248 100.2688
L160.7312 99.3248
" />
<path d="M172.0624 68.1928
L160.7312 99.3248
" />
<path d="M174.6559 69.1367
L163.3248 100.2688
" />
<path d="M174.6559 69.1367
L172.0624 68.1928
" />
<path d="M175.0903 67.9433
L175.5623 66.6466
" />
<path d="M175.5623 66.6466
L174.2655 66.1746
" />
</g>
<g style="fill:none; 
stroke:#000000; stroke-width:1.6000; stroke-opacity:1; 
stroke-linecap:round; stroke-linejoin:round;">
<path d="M93.3800 77.9500
L93.3800 75.5500
" />
<path d="M95.9200 77.9500
L95.9200 75.5500
" />
<path d="M98.4600 77.9500
L98.4600 75.5500
" />
<path d="M101.0000 77.9500
L101.0000 75.5500
" />
<path d="M103.5400 77.9500
L103.5400 75.5500
" />
<path d="M93.3800 55.9500
L93.3800 53.5500
" />
<path d="M95.9200 55.9500
L95.9200 53.5500
" />
<path d="M98.4600 55.9500
L98.4600 53.5500
" />
<path d="M101.0000 55.9500
L101.0000 53.5500
" />
<path d="M103.5400 55.9500
L103.5400 53.5500
" />
<path d="M106.0800 55.9500
L106.0800 53.5500
" />
<path style="fill:#000000; fill-opacity:1.0000; stroke:none;fill-rule:evenodd;"
d="M 201.0700,87.0700
201.0700,85.3700
202.7700,85.3700
202.7700,87.0700
Z" /> 
</g>
<g style="fill:#000000; fill-opacity:1.0000; stroke:none;">
<circle cx="201.9200" cy="88.7600" r="0.8500" /> 
</g>
<g style="fill:#000000; fill-opacity:1.0000; stroke:none;">
<circle cx="201.9200" cy="91.3000" r="0.8500" /> 
</g>
<g style="fill:#000000; fill-opacity:1.0000; stroke:none;">
<circle cx="201.9200" cy="93.8400" r="0.8500" /> 
</g>
<g style="fill:#000000; fill-opacity:1.0000; stroke:none;">
<circle cx="201.9200" cy="96.3800" r="0.8500" /> 
</g>
<g style="fill:#000000; fill-opacity:1.0000; stroke:none;">
<circle cx="201.9200" cy="98.9200" r="0.8500" /> 
</g>
<g style="fill:#000000; fill-opacity:1.0000; stroke:none;">
<circle cx="201.9200" cy="101.4600" r="0.8500" /> 
</g>
<g style="fill:#000000; fill-opacity:1.0000; stroke:none;">
<circle cx="201.9200" cy="104.0000" r="0.8500" /> 
<path style="fill:#000000; fill-opacity:1.0000; stroke:none;fill-rule:evenodd;"
d="M 206.1500,87.0700
206.1500,85.3700
207.8500,85.3700
207.8500,87.0700
Z" /> 
</g>
<g style="fill:#000000; fill-opacity:1.0000; stroke:none;">
<circle cx="207.0000" cy="88.7600" r="0.8500" /> 
</g>
<g style="fill:#000000; fill-opacity:1.0000; stroke:none;">
<circle cx="207.0000" cy="91.3000" r="0.8500" /> 
</g>
<g style="fill:#000000; fill-opacity:1.0000; stroke:none;">
<circle cx="207.0000" cy="93.8400" r="0.8500" /> 
</g>
<g style="fill:#000000; fill-opacity:1.0000; stroke:none;">
<circle cx="207.0000" cy="96.3800" r="0.8500" /> 
</g>
<g style="fill:#000000; fill-opacity:1.0000; stroke:none;">
<circle cx="207.0000" cy="98.9200" r="0.8500" /> 
</g>
<g style="fill:#000000; fill-opacity:1.0000; stroke:none;">
<circle cx="207.0000" cy="101.4600" r="0.8500" /> 
</g>
<g style="fill:#000000; fill-opacity:1.0000; stroke:none;">
<circle cx="207.0000" cy="104.0000" r="0.8500" /> 
<path style="fill:#000000; fill-opacity:1.0000; stroke:none;fill-rule:evenodd;"
d="M 203.6100,87.0700
203.6100,85.3700
205.3100,85.3700
205.3100,87.0700
Z" /> 
</g>
<g style="fill:#000000; fill-opacity:1.0000; stroke:none;">
<circle cx="204.4600" cy="88.7600" r="0.8500" /> 
</g>
<g style="fill:#000000; fill-opacity:1.0000; stroke:none;">
<circle cx="204.4600" cy="91.3000" r="0.8500" /> 
</g>
<g style="fill:#000000; fill-opacity:1.0000; stroke:none;">
<circle cx="204.4600" cy="93.8400" r="0.8500" /> 
</g>
<g style="fill:#000000; fill-opacity:1.0000; stroke:none;">
<circle cx="204.4600" cy="96.3800" r="0.8500" /> 
</g>
<g style="fill:#000000; fill-opacity:1.0000; stroke:none;">
<circle cx="204.4600" cy="98.9200" r="0.8500" /> 
</g>
<g style="fill:#000000; fill-opacity:1.0000; stroke:none;">
<circle cx="204.4600" cy="101.4600" r="0.8500" /> 
</g>
<g style="fill:#000000; fill-opacity:1.0000; stroke:none;">
<circle cx="204.4600" cy="104.0000" r="0.8500" /> 
</g>
<g style="fill:#000000; fill-opacity:1.0000; stroke:none;">
<circle cx="85.4901" cy="147.4901" r="0.8500" /> 
</g>
<g style="fill:#000000; fill-opacity:1.0000; stroke:none;">
<circle cx="83.6941" cy="145.6941" r="0.8500" /> 
</g>
<g style="fill:#000000; fill-opacity:1.0000; stroke:none;">
<circle cx="81.8980" cy="143.8980" r="0.8500" /> 
</g>
<g style="fill:#000000; fill-opacity:1.0000; stroke:none;">
<circle cx="80.1020" cy="142.1020" r="0.8500" /> 
</g>
<g style="fill:#000000; fill-opacity:1.0000; stroke:none;">
<circle cx="78.3059" cy="140.3059" r="0.8500" /> 
<path style="fill:#000000; fill-opacity:1.0000; stroke:none;fill-rule:evenodd;"
d="M 76.5099,139.7120
75.3078,138.5099
76.5099,137.3078
77.7120,138.5099
Z" /> 
<path style="fill:#000000; fill-opacity:1.0000; stroke:none;fill-rule:evenodd;"
d="M 169.1500,110.5600
169.1500,108.8600
170.8500,108.8600
170.8500,110.5600
Z" /> 
</g>
<g style="fill:#000000; fill-opacity:1.0000; stroke:none;">
<circle cx="170.0000" cy="112.2500" r="0.8500" /> 
</g>
<g style="fill:#000000; fill-opacity:1.0000; stroke:none;">
<circle cx="170.0000" cy="114.7900" r="0.8500" /> 
<path style="fill:#000000; fill-opacity:1.0000; stroke:none;fill-rule:evenodd;"
d="M 205.3900,79.4000
205.3900,81.1000
203.6900,81.1000
203.6900,79.4000
Z" /> 
</g>
<g style="fill:#000000; fill-opacity:1.0000; stroke:none;">
<circle cx="202.0000" cy="80.2500" r="0.8500" /> 
</g>
<g style="fill:#000000; fill-opacity:1.0000; stroke:none;">
<circle cx="204.5400" cy="77.7100" r="0.8500" /> 
</g>
<g style="fill:#000000; fill-opacity:1.0000; stroke:none;">
<circle cx="202.0000" cy="77.7100" r="0.8500" /> 
<path style="fill:#000000; fill-opacity:1.0000; stroke:none;fill-rule:evenodd;"
d="M 207.7979,132.0000
209.0000,130.7979
210.2021,132.0000
209.0000,133.2021
Z" /> 
</g>
<g style="fill:#000000; fill-opacity:1.0000; stroke:none;">
<circle cx="210.7961" cy="133.7961" r="0.8500" /> 
</g>
<g style="fill:#000000; fill-opacity:1.0000; stroke:none;">
<circle cx="207.2039" cy="133.7961" r="0.8500" /> 
</g>
<g style="fill:#000000; fill-opacity:1.0000; stroke:none;">
<circle cx="209.0000" cy="135.5921" r="0.8500" /> 
</g>
<g style="fill:#000000; fill-opacity:1.0000; stroke:none;">
<circle cx="205.4079" cy="135.5921" r="0.8500" /> 
</g>
<g style="fill:#000000; fill-opacity:1.0000; stroke:none;">
<circle cx="207.2039" cy="137.3882" r="0.8500" /> 
</g>
<g style="fill:#000000; fill-opacity:1.0000; stroke:none;">
<circle cx="203.6118" cy="137.3882" r="0.8500" /> 
</g>
<g style="fill:#000000; fill-opacity:1.0000; stroke:none;">
<circle cx="205.4079" cy="139.1842" r="0.8500" /> 
</g>
<g style="fill:#000000; fill-opacity:1.0000; stroke:none;">
<circle cx="201.8158" cy="139.1842" r="0.8500" /> 
</g>
<g style="fill:#000000; fill-opacity:1.0000; stroke:none;">
<circle cx="203.6118" cy="140.9803" r="0.8500" /> 
</g>
<g style="fill:#000000; fill-opacity:1.0000; stroke:none;">
<circle cx="200.0197" cy="140.9803" r="0.8500" /> 
</g>
<g style="fill:#000000; fill-opacity:1.0000; stroke:none;">
<circle cx="201.8158" cy="142.7763" r="0.8500" /> 
</g>
<g style="fill:#000000; fill-opacity:1.0000; stroke:none;">
<circle cx="198.2237" cy="142.7763" r="0.8500" /> 
</g>
<g style="fill:#000000; fill-opacity:1.0000; stroke:none;">
<circle cx="200.0197" cy="144.5724" r="0.8500" /> 
<path style="fill:#000000; fill-opacity:1.0000; stroke:none;fill-rule:evenodd;"
d="M 115.0080,62.0418
115.5895,63.6393
113.9920,64.2207
113.4105,62.6232
Z" /> 
</g>
<g style="fill:#000000; fill-opacity:1.0000; stroke:none;">
<circle cx="112.1132" cy="64.0000" r="0.8500" /> 
</g>
<g style="fill:#000000; fill-opacity:1.0000; stroke:none;">
<circle cx="113.6313" cy="60.7445" r="0.8500" /> 
</g>
<g style="fill:#000000; fill-opacity:1.0000; stroke:none;">
<circle cx="111.2445" cy="61.6132" r="0.8500" /> 
</g>
<g style="fill:#000000; fill-opacity:1.0000; stroke:none;">
<circle cx="112.7625" cy="58.3576" r="0.8500" /> 
</g>
<g style="fill:#000000; fill-opacity:1.0000; stroke:none;">
<circle cx="110.3757" cy="59.2264" r="0.8500" /> 
</g>
<g style="fill:#000000; fill-opacity:1.0000; stroke:none;">
<circle cx="111.8938" cy="55.9708" r="0.8500" /> 
</g>
<g style="fill:#000000; fill-opacity:1.0000; stroke:none;">
<circle cx="109.5070" cy="56.8395" r="0.8500" /> 
<path style="fill:#000000; fill-opacity:1.0000; stroke:none;fill-rule:evenodd;"
d="M 122.2880,138.5099
123.4901,137.3078
124.6922,138.5099
123.4901,139.7120
Z" /> 
</g>
<g style="fill:#000000; fill-opacity:1.0000; stroke:none;">
<circle cx="121.6941" cy="140.3059" r="0.8500" /> 
</g>
<g style="fill:#000000; fill-opacity:1.0000; stroke:none;">
<circle cx="119.8980" cy="142.1020" r="0.8500" /> 
</g>
<g style="fill:#000000; fill-opacity:1.0000; stroke:none;">
<circle cx="118.1020" cy="143.8980" r="0.8500" /> 
</g>
<g style="fill:#000000; fill-opacity:1.0000; stroke:none;">
<circle cx="116.3059" cy="145.6941" r="0.8500" /> 
</g>
<g style="fill:#000000; fill-opacity:1.0000; stroke:none;">
<circle cx="114.5099" cy="147.4901" r="0.8500" /> 
<path style="fill:#000000; fill-opacity:1.0000; stroke:none;fill-rule:evenodd;"
d="M 86.1480,58.7344
86.7294,57.1369
88.3269,57.7183
87.7455,59.3158
Z" /> 
</g>
<g style="fill:#000000; fill-opacity:1.0000; stroke:none;">
<circle cx="86.3687" cy="60.6132" r="0.8500" /> 
</g>
<g style="fill:#000000; fill-opacity:1.0000; stroke:none;">
<circle cx="85.5000" cy="63.0000" r="0.8500" /> 
<path style="fill:#000000; fill-opacity:1.0000; stroke:none;fill-rule:evenodd;"
d="M 98.9880,152.1000
98.9690,152.1957
98.9148,152.2768
98.8337,152.3310
98.7380,152.3500
94.2380,152.3500
94.1423,152.3310
94.0612,152.2768
94.0070,152.1957
93.9880,152.1000
93.9880,147.6000
94.0070,147.5043
94.0612,147.4232
94.1423,147.3690
94.2380,147.3500
98.7380,147.3500
98.8337,147.3690
98.9148,147.4232
98.9690,147.5043
98.9880,147.6000
Z" /> 
</g>
<g style="fill:#000000; fill-opacity:1.0000; stroke:none;">
<circle cx="103.6000" cy="149.8500" r="2.5000" /> 
</g>
<g style="fill:#000000; fill-opacity:1.0000; stroke:none;">
<circle cx="73.5000" cy="113.1120" r="2.5000" /> 
<path style="fill:#000000; fill-opacity:1.0000; stroke:none;fill-rule:evenodd;"
d="M 71.2500,108.5000
71.1543,108.4810
71.0732,108.4268
71.0190,108.3457
71.0000,108.2500
71.0000,103.7500
71.0190,103.6543
71.0732,103.5732
71.1543,103.5190
71.2500,103.5000
75.7500,103.5000
75.8457,103.5190
75.9268,103.5732
75.9810,103.6543
76.0000,103.7500
76.0000,108.2500
75.9810,108.3457
75.9268,108.4268
75.8457,108.4810
75.7500,108.5000
Z" /> 
<path style="fill:#000000; fill-opacity:1.0000; stroke:none;fill-rule:evenodd;"
d="M 169.1500,119.5600
169.1500,117.8600
170.8500,117.8600
170.8500,119.5600
Z" /> 
</g>
<g style="fill:#000000; fill-opacity:1.0000; stroke:none;">
<circle cx="170.0000" cy="121.2500" r="0.8500" /> 
</g>
<g style="fill:#000000; fill-opacity:1.0000; stroke:none;">
<circle cx="170.0000" cy="123.7900" r="0.8500" /> 
<path style="fill:#000000; fill-opacity:1.0000; stroke:none;fill-rule:evenodd;"
d="M 162.8250,116.3250
163.6750,116.3250
163.6750,117.1750
162.8250,117.1750
Z" /> 
</g>
<g style="fill:#000000; fill-opacity:1.0000; stroke:none;">
<circle cx="162.2500" cy="116.7500" r="0.4250" /> 
<path style="fill:#000000; fill-opacity:1.0000; stroke:none;fill-rule:evenodd;"
d="M 115.6985,68.5608
115.1170,66.9633
116.7145,66.3819
117.2960,67.9794
Z" /> 
</g>
<g style="fill:#000000; fill-opacity:1.0000; stroke:none;">
<circle cx="117.0752" cy="69.8582" r="0.8500" /> 
</g>
<g style="fill:#000000; fill-opacity:1.0000; stroke:none;">
<circle cx="117.9440" cy="72.2450" r="0.8500" /> 
</g>
<g style="fill:#000000; fill-opacity:1.0000; stroke:none;">
<circle cx="118.8127" cy="74.6318" r="0.8500" /> 
</g>
<g style="fill:#000000; fill-opacity:1.0000; stroke:none;">
<circle cx="119.6814" cy="77.0186" r="0.8500" /> 
</g>
<g style="fill:#000000; fill-opacity:1.0000; stroke:none;">
<circle cx="120.5502" cy="79.4054" r="0.8500" /> 
</g>
<g style="fill:#000000; fill-opacity:1.0000; stroke:none;">
<circle cx="121.4189" cy="81.7923" r="0.8500" /> 
</g>
<g style="fill:#000000; fill-opacity:1.0000; stroke:none;">
<circle cx="122.2876" cy="84.1791" r="0.8500" /> 
</g>
<g style="fill:#000000; fill-opacity:1.0000; stroke:none;">
<circle cx="123.1563" cy="86.5659" r="0.8500" /> 
</g>
<g style="fill:#000000; fill-opacity:1.0000; stroke:none;">
<circle cx="124.0251" cy="88.9527" r="0.8500" /> 
</g>
<g style="fill:#000000; fill-opacity:1.0000; stroke:none;">
<circle cx="124.8938" cy="91.3395" r="0.8500" /> 
</g>
<g style="fill:#000000; fill-opacity:1.0000; stroke:none;">
<circle cx="125.7625" cy="93.7264" r="0.8500" /> 
</g>
<g style="fill:#000000; fill-opacity:1.0000; stroke:none;">
<circle cx="126.6313" cy="96.1132" r="0.8500" /> 
</g>
<g style="fill:#000000; fill-opacity:1.0000; stroke:none;">
<circle cx="127.5000" cy="98.5000" r="0.8500" /> 
<path style="fill:#000000; fill-opacity:1.0000; stroke:none;fill-rule:evenodd;"
d="M 181.3800,119.8100
181.3800,117.8100
183.3800,117.8100
183.3800,119.8100
Z" /> 
</g>
<g style="fill:#000000; fill-opacity:1.0000; stroke:none;">
<circle cx="184.9200" cy="118.8100" r="1.0000" /> 
</g>
<g style="fill:#000000; fill-opacity:1.0000; stroke:none;">
<circle cx="187.4600" cy="118.8100" r="1.0000" /> 
</g>
<g style="fill:#000000; fill-opacity:1.0000; stroke:none;">
<circle cx="190.0000" cy="118.8100" r="1.0000" /> 
</g>
<g style="fill:#000000; fill-opacity:1.0000; stroke:none;">
<circle cx="192.5400" cy="118.8100" r="1.0000" /> 
</g>
<g style="fill:#000000; fill-opacity:1.0000; stroke:none;">
<circle cx="195.0800" cy="118.8100" r="1.0000" /> 
</g>
<g style="fill:#000000; fill-opacity:1.0000; stroke:none;">
<circle cx="197.6200" cy="118.8100" r="1.0000" /> 
</g>
<g style="fill:#000000; fill-opacity:1.0000; stroke:none;">
<circle cx="197.6200" cy="111.1900" r="1.0000" /> 
</g>
<g style="fill:#000000; fill-opacity:1.0000; stroke:none;">
<circle cx="195.0800" cy="111.1900" r="1.0000" /> 
</g>
<g style="fill:#000000; fill-opacity:1.0000; stroke:none;">
<circle cx="192.5400" cy="111.1900" r="1.0000" /> 
</g>
<g style="fill:#000000; fill-opacity:1.0000; stroke:none;">
<circle cx="190.0000" cy="111.1900" r="1.0000" /> 
</g>
<g style="fill:#000000; fill-opacity:1.0000; stroke:none;">
<circle cx="187.4600" cy="111.1900" r="1.0000" /> 
</g>
<g style="fill:#000000; fill-opacity:1.0000; stroke:none;">
<circle cx="184.9200" cy="111.1900" r="1.0000" /> 
</g>
<g style="fill:#000000; fill-opacity:1.0000; stroke:none;">
<circle cx="182.3800" cy="111.1900" r="1.0000" /> 
</g>
<g style="fill:#000000; fill-opacity:1.0000; stroke:none;">
<circle cx="199.3900" cy="60.4000" r="0.5000" /> 
</g>
<g style="fill:#000000; fill-opacity:1.0000; stroke:none;">
<circle cx="191.3900" cy="60.4000" r="0.5000" /> 
<path style="fill:#000000; fill-opacity:1.0000; stroke:none;fill-rule:evenodd;"
d="M 82.7040,67.9794
83.2855,66.3819
84.8830,66.9633
84.3015,68.5608
Z" /> 
</g>
<g style="fill:#000000; fill-opacity:1.0000; stroke:none;">
<circle cx="82.9248" cy="69.8582" r="0.8500" /> 
</g>
<g style="fill:#000000; fill-opacity:1.0000; stroke:none;">
<circle cx="82.0560" cy="72.2450" r="0.8500" /> 
</g>
<g style="fill:#000000; fill-opacity:1.0000; stroke:none;">
<circle cx="81.1873" cy="74.6318" r="0.8500" /> 
</g>
<g style="fill:#000000; fill-opacity:1.0000; stroke:none;">
<circle cx="80.3186" cy="77.0186" r="0.8500" /> 
</g>
<g style="fill:#000000; fill-opacity:1.0000; stroke:none;">
<circle cx="79.4498" cy="79.4054" r="0.8500" /> 
</g>
<g style="fill:#000000; fill-opacity:1.0000; stroke:none;">
<circle cx="78.5811" cy="81.7923" r="0.8500" /> 
</g>
<g style="fill:#000000; fill-opacity:1.0000; stroke:none;">
<circle cx="77.7124" cy="84.1791" r="0.8500" /> 
</g>
<g style="fill:#000000; fill-opacity:1.0000; stroke:none;">
<circle cx="76.8437" cy="86.5659" r="0.8500" /> 
</g>
<g style="fill:#000000; fill-opacity:1.0000; stroke:none;">
<circle cx="75.9749" cy="88.9527" r="0.8500" /> 
</g>
<g style="fill:#000000; fill-opacity:1.0000; stroke:none;">
<circle cx="75.1062" cy="91.3395" r="0.8500" /> 
</g>
<g style="fill:#000000; fill-opacity:1.0000; stroke:none;">
<circle cx="74.2375" cy="93.7264" r="0.8500" /> 
</g>
<g style="fill:#000000; fill-opacity:1.0000; stroke:none;">
<circle cx="73.3687" cy="96.1132" r="0.8500" /> 
</g>
<g style="fill:#000000; fill-opacity:1.0000; stroke:none;">
<circle cx="72.5000" cy="98.5000" r="0.8500" /> 
</g>
<g style="fill:#000000; fill-opacity:1.0000; stroke:none;">
<circle cx="187.1100" cy="148.9600" r="0.3250" /> 
</g>
<g style="fill:#000000; fill-opacity:1.0000; stroke:none;">
<circle cx="192.8900" cy="148.9600" r="0.3250" /> 
</g>
<g style="fill:none; 
stroke:#000000; stroke-width:1.0000; stroke-opacity:1; 
stroke-linecap:round; stroke-linejoin:round;">
<path d="M185.6800 147.9100
L185.6800 149.0100
" />
<path d="M194.3200 147.9100
L194.3200 149.0100
" />
<path d="M185.6800 152.2100
L185.6800 153.0100
" />
<path d="M194.3200 152.2100
L194.3200 153.0100
" />
</g>
<g style="fill:#000000; fill-opacity:1.0000; stroke:none;">
<circle cx="88.5643" cy="50.8644" r="0.4500" /> 
</g>
<g style="fill:#000000; fill-opacity:1.0000; stroke:none;">
<circle cx="87.5382" cy="53.6835" r="0.4500" /> 
</g>
<g style="fill:#000000; fill-opacity:1.0000; stroke:none;">
<circle cx="126.5000" cy="113.1120" r="2.5000" /> 
<path style="fill:#000000; fill-opacity:1.0000; stroke:none;fill-rule:evenodd;"
d="M 128.7500,103.4120
128.8457,103.4310
128.9268,103.4852
128.9810,103.5663
129.0000,103.6620
129.0000,108.1620
128.9810,108.2577
128.9268,108.3388
128.8457,108.3930
128.7500,108.4120
124.2500,108.4120
124.1543,108.3930
124.0732,108.3388
124.0190,108.2577
124.0000,108.1620
124.0000,103.6620
124.0190,103.5663
124.0732,103.4852
124.1543,103.4310
124.2500,103.4120
Z" /> 
</g>
<g style="fill:#000000; fill-opacity:1.0000; stroke:none;">
<circle cx="100.9800" cy="45.5200" r="1.2500" /> 
</g>
<g style="fill:#000000; fill-opacity:1.0000; stroke:none;">
<circle cx="106.0200" cy="45.4800" r="1.2500" /> 
</g>
<g style="fill:#000000; fill-opacity:1.0000; stroke:none;">
<circle cx="105.9800" cy="50.5200" r="1.2500" /> 
</g>
<g style="fill:#000000; fill-opacity:1.0000; stroke:none;">
<circle cx="100.9800" cy="50.5200" r="1.2500" /> 
</g>
<g style="fill:#000000; fill-opacity:1.0000; stroke:none;">
<circle cx="103.5000" cy="48.0000" r="1.2500" /> 
<path style="fill:#000000; fill-opacity:1.0000; stroke:none;fill-rule:evenodd;"
d="M 217.1750,120.4750
216.3250,120.4750
216.3250,119.6250
217.1750,119.6250
Z" /> 
</g>
<g style="fill:#000000; fill-opacity:1.0000; stroke:none;">
<circle cx="217.7500" cy="120.0500" r="0.4250" /> 
</g>
<g style="fill:#000000; fill-opacity:1.0000; stroke:none;">
<circle cx="126.5000" cy="123.0000" r="2.5000" /> 
<path style="fill:#000000; fill-opacity:1.0000; stroke:none;fill-rule:evenodd;"
d="M 128.7500,127.6120
128.8457,127.6310
128.9268,127.6852
128.9810,127.7663
129.0000,127.8620
129.0000,132.3620
128.9810,132.4577
128.9268,132.5388
128.8457,132.5930
128.7500,132.6120
124.2500,132.6120
124.1543,132.5930
124.0732,132.5388
124.0190,132.4577
124.0000,132.3620
124.0000,127.8620
124.0190,127.7663
124.0732,127.6852
124.1543,127.6310
124.2500,127.6120
Z" /> 
<path style="fill:#000000; fill-opacity:1.0000; stroke:none;fill-rule:evenodd;"
d="M 209.1500,113.8600
209.1500,112.1600
210.8500,112.1600
210.8500,113.8600
Z" /> 
</g>
<g style="fill:#000000; fill-opacity:1.0000; stroke:none;">
<circle cx="210.0000" cy="115.5500" r="0.8500" /> 
</g>
<g style="fill:#000000; fill-opacity:1.0000; stroke:none;">
<circle cx="210.0000" cy="118.0900" r="0.8500" /> 
<path style="fill:#000000; fill-opacity:1.0000; stroke:none;fill-rule:evenodd;"
d="M 209.1500,122.8600
209.1500,121.1600
210.8500,121.1600
210.8500,122.8600
Z" /> 
</g>
<g style="fill:#000000; fill-opacity:1.0000; stroke:none;">
<circle cx="210.0000" cy="124.5500" r="0.8500" /> 
</g>
<g style="fill:#000000; fill-opacity:1.0000; stroke:none;">
<circle cx="210.0000" cy="127.0900" r="0.8500" /> 
</g>
<g style="fill:#000000; fill-opacity:1.0000; stroke:none;">
<circle cx="73.5000" cy="123.0000" r="2.5000" /> 
<path style="fill:#000000; fill-opacity:1.0000; stroke:none;fill-rule:evenodd;"
d="M 71.2500,132.7000
71.1543,132.6810
71.0732,132.6268
71.0190,132.5457
71.0000,132.4500
71.0000,127.9500
71.0190,127.8543
71.0732,127.7732
71.1543,127.7190
71.2500,127.7000
75.7500,127.7000
75.8457,127.7190
75.9268,127.7732
75.9810,127.8543
76.0000,127.9500
76.0000,132.4500
75.9810,132.5457
75.9268,132.6268
75.8457,132.6810
75.7500,132.7000
Z" /> 
<path style="fill:#000000; fill-opacity:1.0000; stroke:none;fill-rule:evenodd;"
d="M 214.6922,138.5099
213.4901,139.7120
212.2880,138.5099
213.4901,137.3078
Z" /> 
</g>
<g style="fill:#000000; fill-opacity:1.0000; stroke:none;">
<circle cx="211.6941" cy="140.3059" r="0.8500" /> 
</g>
<g style="fill:#000000; fill-opacity:1.0000; stroke:none;">
<circle cx="209.8980" cy="142.1020" r="0.8500" /> 
</g>
<g style="fill:#000000; fill-opacity:1.0000; stroke:none;">
<circle cx="208.1020" cy="143.8980" r="0.8500" /> 
</g>
<g style="fill:#000000; fill-opacity:1.0000; stroke:none;">
<circle cx="206.3059" cy="145.6941" r="0.8500" /> 
</g>
<g style="fill:#000000; fill-opacity:1.0000; stroke:none;">
<circle cx="204.5099" cy="147.4901" r="0.8500" /> 
<path style="fill:#000000; fill-opacity:1.0000; stroke:none;fill-rule:evenodd;"
d="M 206.7145,66.3819
207.2960,67.9794
205.6985,68.5608
205.1170,66.9633
Z" /> 
</g>
<g style="fill:#000000; fill-opacity:1.0000; stroke:none;">
<circle cx="207.0752" cy="69.8582" r="0.8500" /> 
</g>
<g style="fill:#000000; fill-opacity:1.0000; stroke:none;">
<circle cx="207.9440" cy="72.2450" r="0.8500" /> 
</g>
<g style="fill:#000000; fill-opacity:1.0000; stroke:none;">
<circle cx="208.8127" cy="74.6318" r="0.8500" /> 
</g>
<g style="fill:#000000; fill-opacity:1.0000; stroke:none;">
<circle cx="209.6814" cy="77.0186" r="0.8500" /> 
</g>
<g style="fill:#000000; fill-opacity:1.0000; stroke:none;">
<circle cx="210.5502" cy="79.4054" r="0.8500" /> 
</g>
<g style="fill:#000000; fill-opacity:1.0000; stroke:none;">
<circle cx="211.4189" cy="81.7923" r="0.8500" /> 
</g>
<g style="fill:#000000; fill-opacity:1.0000; stroke:none;">
<circle cx="212.2876" cy="84.1791" r="0.8500" /> 
</g>
<g style="fill:#000000; fill-opacity:1.0000; stroke:none;">
<circle cx="213.1563" cy="86.5659" r="0.8500" /> 
</g>
<g style="fill:#000000; fill-opacity:1.0000; stroke:none;">
<circle cx="214.0251" cy="88.9527" r="0.8500" /> 
</g>
<g style="fill:#000000; fill-opacity:1.0000; stroke:none;">
<circle cx="214.8938" cy="91.3395" r="0.8500" /> 
</g>
<g style="fill:#000000; fill-opacity:1.0000; stroke:none;">
<circle cx="215.7625" cy="93.7264" r="0.8500" /> 
</g>
<g style="fill:#000000; fill-opacity:1.0000; stroke:none;">
<circle cx="216.6313" cy="96.1132" r="0.8500" /> 
</g>
<g style="fill:#000000; fill-opacity:1.0000; stroke:none;">
<circle cx="217.5000" cy="98.5000" r="0.8500" /> 
<path style="fill:#000000; fill-opacity:1.0000; stroke:none;fill-rule:evenodd;"
d="M 189.3006,77.9876
188.1692,76.8562
190.8562,74.1692
191.9876,75.3006
Z" /> 
<path style="fill:#000000; fill-opacity:1.0000; stroke:none;fill-rule:evenodd;"
d="M 183.6438,72.3308
182.5124,71.1994
185.1994,68.5124
186.3308,69.6438
Z" /> 
<path style="fill:#000000; fill-opacity:1.0000; stroke:none;fill-rule:evenodd;"
d="M 166.5099,137.3078
167.7120,138.5099
166.5099,139.7120
165.3078,138.5099
Z" /> 
</g>
<g style="fill:#000000; fill-opacity:1.0000; stroke:none;">
<circle cx="168.3059" cy="140.3059" r="0.8500" /> 
</g>
<g style="fill:#000000; fill-opacity:1.0000; stroke:none;">
<circle cx="170.1020" cy="142.1020" r="0.8500" /> 
</g>
<g style="fill:#000000; fill-opacity:1.0000; stroke:none;">
<circle cx="171.8980" cy="143.8980" r="0.8500" /> 
</g>
<g style="fill:#000000; fill-opacity:1.0000; stroke:none;">
<circle cx="173.6941" cy="145.6941" r="0.8500" /> 
</g>
<g style="fill:#000000; fill-opacity:1.0000; stroke:none;">
<circle cx="175.4901" cy="147.4901" r="0.8500" /> 
<path style="fill:#000000; fill-opacity:1.0000; stroke:none;fill-rule:evenodd;"
d="M 174.8830,66.9633
174.3015,68.5608
172.7040,67.9794
173.2855,66.3819
Z" /> 
</g>
<g style="fill:#000000; fill-opacity:1.0000; stroke:none;">
<circle cx="172.9248" cy="69.8582" r="0.8500" /> 
</g>
<g style="fill:#000000; fill-opacity:1.0000; stroke:none;">
<circle cx="172.0560" cy="72.2450" r="0.8500" /> 
</g>
<g style="fill:#000000; fill-opacity:1.0000; stroke:none;">
<circle cx="171.1873" cy="74.6318" r="0.8500" /> 
</g>
<g style="fill:#000000; fill-opacity:1.0000; stroke:none;">
<circle cx="170.3186" cy="77.0186" r="0.8500" /> 
</g>
<g style="fill:#000000; fill-opacity:1.0000; stroke:none;">
<circle cx="169.4498" cy="79.4054" r="0.8500" /> 
</g>
<g style="fill:#000000; fill-opacity:1.0000; stroke:none;">
<circle cx="168.5811" cy="81.7923" r="0.8500" /> 
</g>
<g style="fill:#000000; fill-opacity:1.0000; stroke:none;">
<circle cx="167.7124" cy="84.1791" r="0.8500" /> 
</g>
<g style="fill:#000000; fill-opacity:1.0000; stroke:none;">
<circle cx="166.8437" cy="86.5659" r="0.8500" /> 
</g>
<g style="fill:#000000; fill-opacity:1.0000; stroke:none;">
<circle cx="165.9749" cy="88.9527" r="0.8500" /> 
</g>
<g style="fill:#000000; fill-opacity:1.0000; stroke:none;">
<circle cx="165.1062" cy="91.3395" r="0.8500" /> 
</g>
<g style="fill:#000000; fill-opacity:1.0000; stroke:none;">
<circle cx="164.2375" cy="93.7264" r="0.8500" /> 
</g>
<g style="fill:#000000; fill-opacity:1.0000; stroke:none;">
<circle cx="163.3687" cy="96.1132" r="0.8500" /> 
</g>
<g style="fill:#000000; fill-opacity:1.0000; stroke:none;">
<circle cx="162.5000" cy="98.5000" r="0.8500" /> 
</g>
<g style="fill:none; 
stroke:#000000; stroke-width:1.6000; stroke-opacity:1; 
stroke-linecap:round; stroke-linejoin:round;">
<path d="M93.3800 77.9500
L93.3800 75.5500
" />
<path d="M95.9200 77.9500
L95.9200 75.5500
" />
<path d="M98.4600 77.9500
L98.4600 75.5500
" />
<path d="M101.0000 77.9500
L101.0000 75.5500
" />
<path d="M103.5400 77.9500
L103.5400 75.5500
" />
<path d="M93.3800 55.9500
L93.3800 53.5500
" />
<path d="M95.9200 55.9500
L95.9200 53.5500
" />
<path d="M98.4600 55.9500
L98.4600 53.5500
" />
<path d="M101.0000 55.9500
L101.0000 53.5500
" />
<path d="M103.5400 55.9500
L103.5400 53.5500
" />
<path d="M106.0800 55.9500
L106.0800 53.5500
" />
<path style="fill:#000000; fill-opacity:1.0000; stroke:none;fill-rule:evenodd;"
d="M 189.3006,77.9876
188.1692,76.8562
190.8562,74.1692
191.9876,75.3006
Z" /> 
<path style="fill:#000000; fill-opacity:1.0000; stroke:none;fill-rule:evenodd;"
d="M 183.6438,72.3308
182.5124,71.1994
185.1994,68.5124
186.3308,69.6438
Z" /> 
<path style="fill:none; 
stroke:#000000; stroke-width:0.0500; stroke-opacity:1; 
stroke-linecap:round; stroke-linejoin:round;fill:none"
d="M 108.5400,79.4660
88.2200,79.4660
88.2200,52.0340
108.5400,52.0340
Z" /> 
</g>
<g style="fill:none; 
stroke:#000000; stroke-width:0.0500; stroke-opacity:1; 
stroke-linecap:round; stroke-linejoin:round;">
<path d="M202.0067 147.4901
L213.4901 136.0067
" />
<path d="M204.5099 149.9933
L202.0067 147.4901
" />
<path d="M213.4901 136.0067
L215.9933 138.5099
" />
<path d="M215.9933 138.5099
L204.5099 149.9933
" />
<path d="M203.9344 66.4041
L207.2610 65.1933
" />
<path d="M207.2610 65.1933
L219.7721 99.5673
" />
<path d="M216.4455 100.7780
L203.9344 66.4041
" />
<path d="M219.7721 99.5673
L216.4455 100.7780
" />
<path d="M164.0067 138.5099
L166.5099 136.0067
" />
<path d="M166.5099 136.0067
L177.9933 147.4901
" />
<path d="M175.4901 149.9933
L164.0067 138.5099
" />
<path d="M177.9933 147.4901
L175.4901 149.9933
" />
<path d="M160.2279 99.5673
L172.7390 65.1933
" />
<path d="M163.5545 100.7780
L160.2279 99.5673
" />
<path d="M172.7390 65.1933
L176.0656 66.4041
" />
<path d="M176.0656 66.4041
L163.5545 100.7780
" />
<path d="M190.9400 17.5908 A1.0000 1.0000 0.0 0 0 189.0600 17.5908" />
<path d="M129.1213 136.8787
L123.8750 142.1250
" />
<path d="M123.8750 142.1250
L119.8750 146.1250
" />
<path d="M164.0000 86.5000
L160.3023 96.6706
" />
<path d="M125.8952 86.2382
L123.5000 79.7500
" />
<path d="M119.8750 146.1250
L112.8787 153.1213
" />
<path d="M164.0000 86.5000
L174.5701 57.5256
" />
<path d="M110.8067 44.8387
L123.5000 79.7500
" />
<path d="M96.6762 41.5063 A2.0000 2.0000 0.0 0 0 98.6762 43.5000" />
<path d="M110.8068 44.8387 A2.0000 2.0000 0.0 0 0 108.9772 43.5242" />
<path d="M160.0000 134.7574 A3.0000 3.0000 0.0 0 0 160.8787 136.8787" />
<path d="M219.1213 136.8787 A3.0000 3.0000 0.0 0 0 220.0000 134.7574" />
<path d="M177.1213 153.1213 A3.0000 3.0000 0.0 0 0 179.2426 154.0000" />
<path d="M200.7574 154.0000 A3.0000 3.0000 0.0 0 0 202.8787 153.1213" />
<path d="M110.7574 154.0000 A3.0000 3.0000 0.0 0 0 112.8787 153.1213" />
<path d="M87.1213 153.1213 A3.0000 3.0000 0.0 0 0 89.2426 154.0000" />
<path d="M70.0000 134.7574 A3.0000 3.0000 0.0 0 0 70.8787 136.8787" />
<path d="M129.1213 136.8787 A3.0000 3.0000 0.0 0 0 130.0000 134.7574" />
<path d="M130.0000 98.3828
L130.0000 134.7574
" />
<path d="M70.0000 134.7574
L70.0000 98.3809
" />
<path d="M87.1213 153.1213
L70.8787 136.8787
" />
<path d="M130.0000 98.3828 A5.0000 5.0000 0.0 0 0 129.6977 96.6706" />
<path d="M70.3010 96.6722 A5.0000 5.0000 0.0 0 0 70.0000 98.3809" />
<path d="M220.0000 98.3828 A5.0000 5.0000 0.0 0 0 219.6977 96.6706" />
<path d="M160.3023 96.6706 A5.0000 5.0000 0.0 0 0 160.0000 98.3828" />
<path d="M70.3010 96.6722
L94.6999 29.5753
" />
<path d="M174.5701 57.5256
L189.0600 17.5908
" />
<path d="M160.0000 134.7574
L160.0000 98.3828
" />
<path d="M177.1213 153.1213
L160.8787 136.8787
" />
<path d="M200.7574 154.0000
L179.2426 154.0000
" />
<path d="M219.1213 136.8787
L202.8787 153.1213
" />
<path d="M220.0000 98.3828
L220.0000 134.7574
" />
<path d="M205.4299 57.5256
L219.6977 96.6706
" />
<path d="M190.9400 17.5908
L205.4299 57.5256
" />
<path d="M96.6397 29.9139 A1.0000 1.0000 0.0 0 0 94.6999 29.5753" />
<path d="M108.0000 43.5000
L108.9772 43.5242
" />
<path d="M98.6762 43.5000
L108.0000 43.5000
" />
<path d="M96.6397 29.9139
L96.6762 41.5063
" />
<path d="M110.7574 154.0000
L89.2426 154.0000
" />
<path d="M127.9476 91.8691
L129.6977 96.6706
" />
<path d="M126.9214 89.0536
L127.9476 91.8691
" />
<path d="M125.8952 86.2382
L126.9214 89.0536
" />
<circle cx="110.5000" cy="51.5000" r="1.0300" /> 
<circle cx="92.5000" cy="49.0000" r="1.0300" /> 
<circle cx="91.5000" cy="150.5000" r="1.0300" /> 
<circle cx="73.5300" cy="136.5000" r="1.0300" /> 
<circle cx="111.9700" cy="150.5000" r="1.0300" /> 
<circle cx="89.0300" cy="102.5000" r="1.0300" /> 
<circle cx="119.0000" cy="95.9700" r="1.0300" /> 
<circle cx="110.5014" cy="83.1883" r="1.0300" /> 
<circle cx="90.0000" cy="83.9700" r="1.0300" /> 
</g> 
</svg>
