<?xml version="1.0" encoding="UTF-8" standalone="no"?>
<!-- Created with Inkscape (http://www.inkscape.org/) -->

<svg
   width="210mm"
   height="297mm"
   viewBox="0 0 210 297"
   version="1.1"
   id="svg1"
   xml:space="preserve"
   inkscape:version="1.4.2 (f4327f4, 2025-05-13)"
   sodipodi:docname="F-done.svg"
   xmlns:inkscape="http://www.inkscape.org/namespaces/inkscape"
   xmlns:sodipodi="http://sodipodi.sourceforge.net/DTD/sodipodi-0.dtd"
   xmlns="http://www.w3.org/2000/svg"
   xmlns:svg="http://www.w3.org/2000/svg"><sodipodi:namedview
     id="namedview1"
     pagecolor="#ffffff"
     bordercolor="#000000"
     borderopacity="0.25"
     inkscape:showpageshadow="2"
     inkscape:pageopacity="0.0"
     inkscape:pagecheckerboard="0"
     inkscape:deskcolor="#d1d1d1"
     inkscape:document-units="mm"
     inkscape:zoom="0.71891835"
     inkscape:cx="396.42889"
     inkscape:cy="561.25984"
     inkscape:window-width="1920"
     inkscape:window-height="1009"
     inkscape:window-x="-8"
     inkscape:window-y="-8"
     inkscape:window-maximized="1"
     inkscape:current-layer="layer1" /><defs
     id="defs1" /><g
     inkscape:label="Layer 1"
     inkscape:groupmode="layer"
     id="layer1"><path
       style="fill:#000000"
       d="m 139.36082,224.80093 c 0,-0.1717 0.42569,-1.1575 0.94597,-2.19065 0.67145,-1.33331 1.02807,-1.79637 1.22886,-1.59558 0.20079,0.20079 0.0801,0.69727 -0.41573,1.71079 -0.69711,1.42484 -1.7591,2.67782 -1.7591,2.07544 z m 2.91041,0.10325 c 0,-0.0698 0.19463,-0.61337 0.43252,-1.2079 0.31047,-0.77594 0.51338,-1.0001 0.71909,-0.7944 0.2057,0.20571 0.14656,0.54656 -0.2096,1.20791 -0.42236,0.78427 -0.94201,1.22249 -0.94201,0.79439 z m 29.50104,-0.11879 c -1.28274,-0.30956 -1.98437,-0.79365 -1.98437,-1.3691 0,-0.53548 0.004,-0.53538 0.78863,0.0237 0.43375,0.30886 1.41602,0.78451 2.18281,1.05702 1.15926,0.41197 1.26043,0.49415 0.60043,0.48771 -0.43656,-0.004 -1.15093,-0.0939 -1.5875,-0.19931 z m 4.36563,0.0934 c 0,-0.0411 0.62508,-0.25997 1.38906,-0.48645 0.76399,-0.22647 2.87735,-1.24583 4.69636,-2.26525 1.81901,-1.01942 3.39658,-1.8546 3.50573,-1.85597 0.10914,-0.001 0.19843,0.16551 0.19843,0.37082 0,0.32042 -2.97113,2.08797 -6.08541,3.62025 -0.7681,0.37791 -3.70417,0.86666 -3.70417,0.6166 z m 7.67292,-0.65569 c 0.3638,-0.29243 0.98888,-0.70956 1.38906,-0.92695 0.62816,-0.34124 0.7276,-0.34304 0.7276,-0.0132 0,0.46029 -1.58264,1.48594 -2.28019,1.4777 -0.43469,-0.005 -0.41392,-0.0734 0.16353,-0.53758 z M 25.458999,224.02675 c 0.72832,-0.25185 2.92336,-1.34381 4.87788,-2.42657 4.09543,-2.26879 6.176,-2.94883 11.34265,-3.70737 4.06755,-0.59717 5.23618,-0.65482 5.47399,-0.27003 0.0899,0.14552 0.062,0.26458 -0.062,0.26458 -0.12404,0 -1.98119,0.24334 -4.12701,0.54075 -5.09198,0.70575 -7.89014,1.53847 -11.2891,3.35958 -1.52797,0.81866 -3.30432,1.76428 -3.94745,2.10137 -0.7412,0.38849 -1.61304,0.60973 -2.38125,0.60425 l -1.21193,-0.009 z m 6.03959,-0.005 c 0.73058,-0.80728 4.16581,-2.62866 6.26223,-3.32026 2.18868,-0.72204 7.88542,-1.75602 9.67483,-1.75602 1.83483,0 1.59275,0.45126 -0.35149,0.65521 -6.10428,0.64033 -11.31253,2.2348 -14.39127,4.4058 -0.38627,0.27238 -0.91074,0.49524 -1.16549,0.49524 -0.4306,0 -0.43262,-0.0338 -0.0288,-0.47997 z m 6.6591,-0.0264 c 1.622,-0.77922 4.64925,-1.30588 10.79509,-1.87806 6.48493,-0.60374 6.53512,-0.60589 6.53512,-0.27927 0,0.39901 -0.65571,0.50057 -6.08542,0.94258 -2.83765,0.231 -6.29047,0.65928 -7.67291,0.95172 -1.38245,0.29244 -2.9898,0.58565 -3.57188,0.65159 l -1.05833,0.11988 z m 13.75833,0.21971 c 1.16417,-0.11893 2.44409,-0.27871 2.84428,-0.35506 0.52763,-0.10068 0.7276,-0.0316 0.7276,0.25143 0,0.32194 -0.49794,0.3841 -2.84427,0.35506 l -2.84427,-0.0352 z m 29.13248,-0.13189 c -0.0883,-0.23018 -0.1606,-1.3594 -0.1606,-2.50936 0,-1.95475 0.0517,-2.1471 0.79373,-2.95493 l 0.79372,-0.86407 -0.44973,1.05834 c -0.30791,0.72459 -0.4501,1.78837 -0.45091,3.37343 -0.001,2.20239 -0.17222,2.81908 -0.52621,1.89659 z m 4.76726,-0.40831 c -0.4491,-2.24551 0.0516,-5.18001 1.31564,-7.71043 1.21407,-2.43042 3.8649,-6.64384 4.80951,-7.64459 0.5027,-0.53257 0.84186,-1.08502 0.75369,-1.22768 -0.23105,-0.37384 1.13167,-2.69881 1.58184,-2.69881 0.51662,0 -0.37978,1.73033 -3.53349,6.82071 -1.3775,2.22342 -2.87322,4.90232 -3.32383,5.95312 -0.73403,1.71175 -0.8205,2.19268 -0.83098,4.6219 -0.008,1.82471 -0.10904,2.71156 -0.30935,2.71198 -0.16372,3.5e-4 -0.37207,-0.37144 -0.46303,-0.8262 z m 3.84801,-0.0331 c -0.91274,-3.00705 -0.52482,-6.26514 1.14196,-9.59114 1.85645,-3.70447 7.338163,-10.85209 7.269143,-9.47826 -0.006,0.11981 -1.253443,1.88471 -2.772063,3.92201 -5.01834,6.73233 -6.0736,9.92885 -5.00057,15.14739 0.11008,0.53538 0.0722,0.8599 -0.10033,0.8599 -0.15243,0 -0.39459,-0.38696 -0.53814,-0.8599 z m 4.99001,0.34484 c -0.48554,-0.90725 -0.74141,-3.78567 -0.50693,-5.70265 0.2728,-2.23021 1.61682,-5.11643 3.797233,-8.15436 0.81671,-1.13791 2.03362,-2.89409 2.704238,-3.9026 0.67061,-1.00852 1.38042,-1.83367 1.57736,-1.83367 0.51179,0 0.45861,0.17233 -0.47806,1.54913 -6.434471,9.45795 -6.828631,10.21729 -7.024171,13.53212 -0.0907,1.5378 0.003,2.32676 0.41778,3.50573 0.43358,1.23333 0.46416,1.52136 0.16152,1.52136 -0.20532,0 -0.49736,-0.23178 -0.64897,-0.51506 z m 4.475283,-0.74171 c -1.06621,-1.68088 -1.572413,-3.49491 -1.572413,-5.63487 0,-1.49387 0.14298,-2.05138 0.920733,-3.59 1.37259,-2.71543 5.394468,-7.87404 5.418258,-6.94967 0.006,0.23544 -0.71765,1.36654 -1.60824,2.51355 -3.176798,4.09148 -3.959308,5.80224 -3.968468,8.67603 -0.005,1.68449 0.10402,2.08772 1.07108,3.9481 1.189108,2.28757 1.191238,2.29363 0.806638,2.29363 -0.14872,0 -0.629138,-0.56555 -1.067588,-1.25677 z m 16.603728,0.43729 c 0.15967,-0.15966 1.42018,-0.74499 2.80114,-1.30072 3.53803,-1.42378 4.3924,-2.01801 8.12689,-5.65238 4.85294,-4.72285 5.20098,-5.01883 5.68379,-4.83356 0.33517,0.12861 0.14335,0.4158 -0.89182,1.33517 -0.72536,0.64422 -2.1223,2.02302 -3.1043,3.064 -3.49964,3.7098 -7.19068,6.21916 -10.66582,7.25116 -1.72149,0.51123 -2.37013,0.55658 -1.94988,0.13633 z m -12.79507,-1.36333 c -1.37295,-1.53635 -1.73249,-2.32943 -1.74551,-3.85027 -0.0143,-1.66639 0.5338,-2.9858 1.8901,-4.55026 1.10089,-1.26984 1.036,-0.48578 -0.10848,1.31066 -0.78961,1.23943 -0.91926,1.66925 -0.91926,3.04744 0,1.30793 0.13228,1.79916 0.71574,2.6578 0.7098,1.04455 0.71727,1.04781 0.89967,0.39214 0.14778,-0.53124 0.1891,-0.4402 0.2103,0.46332 0.0298,1.27118 -0.17614,1.3868 -0.94256,0.52917 z m 69.95903,-1.24996 c -0.40018,-0.31591 -0.7276,-0.74434 -0.7276,-0.95206 0,-0.50786 0.16609,-0.47616 0.79375,0.15149 1.05391,1.05392 3.07957,0.58684 6.87531,-1.58529 1.87949,-1.07555 5.42052,-2.64804 5.96302,-2.64804 0.0694,0 0.12625,0.16936 0.12625,0.37636 0,0.20699 -0.44648,0.52017 -0.99218,0.69595 -0.54571,0.17577 -2.72459,1.21223 -4.84197,2.30324 -4.45246,2.29418 -5.95311,2.63999 -7.19658,1.65835 z m -150.746351,-0.0886 c 0,-0.23539 0.36951,-0.45777 0.93779,-0.56438 0.51578,-0.0968 2.62914,-1.0511 4.69635,-2.12074 2.06721,-1.06965 4.41341,-2.13967 5.21378,-2.37783 1.89979,-0.5653 10.32123,-2.02867 10.61825,-1.8451 0.60229,0.37223 -0.0573,0.57908 -3.67294,1.15181 -5.59826,0.88678 -7.09764,1.35735 -11.84011,3.7159 -4.44375,2.20999 -5.95312,2.7273 -5.95312,2.04034 z m 93.728641,-0.633 c -0.73795,-0.27394 -0.24398,-0.56595 1.25087,-0.73945 3.09348,-0.35904 5.92895,-2.15323 9.42727,-5.96529 2.44455,-2.66378 3.78548,-3.82084 4.08311,-3.52321 0.3343,0.3343 -7.15249,7.72993 -8.74197,8.63554 -1.6498,0.93997 -5.22729,1.8864 -6.01928,1.59241 z m -63.446391,-1.64587 c 0.37078,-0.59994 3.05525,-1.32792 3.05525,-0.82853 0,0.33715 -0.83822,0.69332 -2.25896,0.95985 -0.7405,0.13892 -0.9427,0.10557 -0.79629,-0.13132 z m -0.25235,-2.40205 c -0.14905,-0.24117 0.87595,-0.79326 1.47274,-0.79326 0.43427,0 0.26544,0.50087 -0.26441,0.78445 -0.64378,0.34453 -0.99924,0.34713 -1.20833,0.009 z m 6.35031,-1.05784 c 0.72164,-0.75323 1.45521,-1.04513 1.45521,-0.57906 0,0.45218 -1.10473,1.37281 -1.64731,1.37281 -0.53874,0 -0.52873,-0.0414 0.1921,-0.79375 z m 6.29272,-0.50524 c 0.32254,-0.7339 0.73317,-1.33718 0.9125,-1.34061 0.50676,-0.01 -0.50674,2.48391 -1.05226,2.58896 -0.39512,0.0761 -0.37899,-0.068 0.13976,-1.24835 z m 3.09999,1.17378 c 0,-0.466 1.22915,-2.52062 1.50793,-2.52062 0.46243,0 0.4394,0.14818 -0.23192,1.49237 -0.31683,0.6344 -0.73355,1.15346 -0.92604,1.15346 -0.19248,0 -0.34997,-0.0563 -0.34997,-0.12521 z m 47.889581,-0.1182 c 0.21828,-0.15271 0.70099,-0.27948 1.07268,-0.2817 1.06478,-0.006 2.73897,-1.25582 6.812,-5.08372 3.8652,-3.63258 6.47663,-5.53569 6.94852,-5.0638 0.16419,0.16419 -0.38384,0.6939 -1.5342,1.48292 -0.98429,0.67511 -3.21838,2.55747 -4.96463,4.18302 -5.11129,4.75799 -5.21248,4.82842 -7.10088,4.94246 -1.19155,0.072 -1.52355,0.0237 -1.23349,-0.17918 z m 24.73854,-2.40242 c -0.78065,-0.79257 -1.14123,-1.32292 -0.89945,-1.32292 0.4506,0 1.59755,1.13777 2.06706,2.05052 0.16842,0.32742 0.26779,0.59531 0.22082,0.59531 -0.047,0 -0.67177,-0.59531 -1.38843,-1.32291 z m -118.401041,0.50766 c 0,-0.58022 1.82776,-1.47517 3.43958,-1.68417 0.65485,-0.0849 3.685,-0.271 6.73368,-0.41353 4.62503,-0.21622 5.71683,-0.34512 6.5923,-0.77827 1.09883,-0.54365 1.7239,-0.48045 1.22256,0.12362 -0.71552,0.86215 -2.76002,1.19926 -8.86,1.46087 -5.88039,0.25219 -6.13667,0.2861 -7.60677,1.00646 -1.33649,0.65489 -1.52135,0.68952 -1.52135,0.28502 z m 33.88145,-0.12652 c 0.3499,-0.37246 0.67954,-0.54712 0.73253,-0.38815 0.18169,0.54505 -0.20176,1.06534 -0.78513,1.06534 h -0.58359 z m -6.98696,-0.56235 c -0.36089,-0.36088 -0.13173,-0.55493 1.04411,-0.88414 1.47745,-0.41366 3.01765,-1.7837 3.01765,-2.68426 0,-1.12082 -1.32473,-3.39213 -2.45669,-4.21212 -0.58426,-0.42324 -1.22302,-0.76952 -1.41947,-0.76952 -0.19644,0 -0.35717,-0.1786 -0.35717,-0.39688 0,-0.52725 0.34718,-0.50047 1.56475,0.12069 2.6546,1.35428 4.09093,5.15474 2.64357,6.99476 -0.8227,1.04589 -3.57405,2.29418 -4.03675,1.83147 z m 94.284681,-0.3472 c 0,-0.1451 -0.4353,-0.74564 -0.96734,-1.33454 -0.64489,-0.71381 -0.87913,-1.15891 -0.70275,-1.3353 0.27194,-0.27194 1.85378,1.2646 2.45131,2.38109 0.25488,0.47624 0.22134,0.55257 -0.24275,0.55257 -0.29616,0 -0.53847,-0.11871 -0.53847,-0.26382 z m 3.10493,-1.18276 c -0.39021,-0.79561 -1.14797,-1.93194 -1.68391,-2.52516 -0.76584,-0.8477 -0.90515,-1.1469 -0.65075,-1.39769 0.25325,-0.24967 0.40563,-0.20396 0.70026,0.21006 0.20712,0.29104 0.68958,0.87395 1.07214,1.29535 0.57114,0.62912 1.95524,3.27614 1.95524,3.73928 0,0.0686 -0.15379,0.12474 -0.34176,0.12474 -0.18796,0 -0.66101,-0.65096 -1.05122,-1.44658 z m 3.32364,-0.67008 c -0.80948,-1.66944 -0.93821,-2.11667 -0.60924,-2.11667 0.42139,0 2.11817,3.07723 2.11817,3.84147 0,0.88919 -0.54166,0.27004 -1.50893,-1.7248 z m 29.55476,1.78226 c 0.2848,-0.28684 1.27479,-0.45089 3.50573,-0.58093 2.72736,-0.15899 3.10885,-0.13018 3.10885,0.23476 0,0.30616 -0.26868,0.41599 -1.01768,0.41599 -0.55973,0 -2.13731,0.0742 -3.50573,0.16495 -2.21866,0.14708 -2.44507,0.12166 -2.09117,-0.23477 z m -63.76458,-0.19476 c 0,-0.14552 0.5135,-0.26459 1.14112,-0.26459 1.3112,0 1.54106,-0.20194 4.08417,-3.58827 2.45909,-3.27445 4.16059,-5.01165 6.32954,-6.46233 1.09079,-0.72957 2.11079,-1.32648 2.26667,-1.32648 0.46257,0 -0.62412,1.04953 -2.10597,2.03396 -1.59499,1.05959 -3.4218,2.99018 -5.69588,6.01943 -2.72071,3.6242 -2.99468,3.85286 -4.61635,3.85286 -0.77182,0 -1.4033,-0.11906 -1.4033,-0.26458 z m 44.63819,-2.63922 c -0.85994,-0.81169 -1.00144,-1.05323 -0.62,-1.05833 0.27183,-0.004 0.90105,0.35057 1.39827,0.78713 0.49722,0.43656 1.12951,0.79375 1.40509,0.79375 0.66226,0 1.34868,-0.7086 1.16077,-1.19828 -0.0933,-0.24306 0.0103,-0.38922 0.27583,-0.38922 0.58942,0 0.55,1.12794 -0.0587,1.67879 -0.26721,0.24182 -0.92336,0.43788 -1.46545,0.43788 -0.78091,0 -1.20941,-0.21503 -2.09583,-1.05172 z m 13.45825,-0.0123 c 0.30081,-0.3008 1.13359,-0.72348 1.85062,-0.93928 1.28428,-0.38651 1.29582,-0.38486 0.77467,0.11096 -0.29096,0.27683 -1.12374,0.6995 -1.85062,0.93928 l -1.3216,0.43597 z M 22.150399,209.34812 c 0,-0.67233 2.24137,-1.02783 7.80521,-1.23797 3.44379,-0.13007 5.54825,-0.32169 6.02645,-0.54873 0.54839,-0.26037 0.811,-0.27264 1.03527,-0.0484 0.70499,0.70499 -1.08063,0.9815 -10.36901,1.60563 -1.96453,0.132 -3.78024,0.32623 -4.0349,0.43162 -0.31939,0.13217 -0.46302,0.0695 -0.46302,-0.20217 z m 161.247961,-0.59729 c 0.69866,-0.52844 2.52912,-0.52235 2.52912,0.008 0,0.30774 -0.34169,0.39498 -1.52135,0.38846 -1.3953,-0.008 -1.4788,-0.0406 -1.00777,-0.39687 z M 43.177579,207.2924 c -0.4501,-0.72829 1.73336,-2.90564 2.8901,-2.88201 0.69027,0.0141 0.73623,0.0513 0.28819,0.23303 -0.68564,0.27816 -2.19415,1.81883 -2.39238,2.4434 -0.16989,0.53527 -0.52477,0.6281 -0.78591,0.20558 z m -20.97218,-0.74081 c 0.11258,-0.58567 1.59948,-0.79095 5.90661,-0.81545 2.28478,-0.013 3.93616,-0.15951 4.89479,-0.43429 2.27078,-0.6509 3.00473,-0.75945 2.79045,-0.41273 -0.55613,0.89983 -1.89742,1.17867 -6.63539,1.37941 -2.61938,0.11099 -5.27509,0.31867 -5.9016,0.46151 -0.99956,0.22791 -1.12878,0.20605 -1.05486,-0.17845 z m 155.107551,-0.18201 c 0.28247,-0.21366 0.8626,-0.38847 1.28917,-0.38847 0.6594,0 0.72624,0.0595 0.4462,0.39688 -0.18515,0.22308 -0.74968,0.39319 -1.28917,0.38846 -0.90129,-0.008 -0.92849,-0.0321 -0.4462,-0.39687 z m -61.63951,-0.91763 c 0.41239,-3.25012 5.3467,-10.00236 9.29402,-12.71819 1.37479,-0.94588 3.91045,-2.0819 4.66992,-2.0922 0.66929,-0.009 0.56957,0.54457 -0.1311,0.72779 -0.32676,0.0855 -1.51297,0.61527 -2.636,1.17736 -3.61387,1.8088 -7.46328,6.19581 -10.0469,11.45003 -1.21451,2.46991 -1.29097,2.56667 -1.14994,1.45521 z m 69.26186,0.88194 c -0.54236,-0.21694 -0.3768,-0.54686 0.34353,-0.68456 0.50583,-0.0967 0.65454,-0.0273 0.59531,0.27796 -0.088,0.45358 -0.44014,0.60608 -0.93884,0.4066 z M 74.860989,205.3858 c 0.0564,-0.1819 0.57237,-0.56467 1.14653,-0.85061 0.9286,-0.46245 1.71619,-0.52935 7.12934,-0.6056 3.73694,-0.0526 5.93225,0.007 5.68854,0.15538 -0.21828,0.1326 -2.83766,0.30496 -5.82083,0.38301 -4.72185,0.12354 -5.58949,0.21354 -6.70267,0.69523 -1.49585,0.64728 -1.57653,0.65975 -1.44091,0.22259 z m 91.355031,-0.99219 c -0.0993,-0.1606 0.28452,-0.26572 0.97658,-0.26749 0.62705,-0.002 1.61634,-0.0695 2.19842,-0.15092 0.99424,-0.13905 1.02723,-0.12285 0.54475,0.26749 -0.58142,0.47038 -3.45037,0.58678 -3.71975,0.15092 z m -47.04915,-0.19843 c -0.22504,-0.38219 0.31239,-1.27245 1.89565,-3.14017 1.90877,-2.25173 4.2664,-4.09046 6.78892,-5.29475 1.52845,-0.7297 1.99078,-0.84259 2.64583,-0.64608 0.51141,0.15342 0.6124,0.24621 0.28391,0.26086 -0.28041,0.0125 -1.4937,0.49895 -2.69619,1.08099 -1.64475,0.79611 -2.73097,1.58178 -4.38495,3.17166 l -2.1986,2.1134 2.24896,-1.49127 c 1.23693,-0.8202 2.96333,-1.828 3.83646,-2.23956 1.68329,-0.79344 5.31886,-1.81873 6.44902,-1.81873 1.25779,0 0.035,0.71187 -1.7408,1.01347 -3.23376,0.5492 -6.11657,2.03493 -10.21707,5.26566 -2.45843,1.93696 -2.70133,2.08085 -2.91114,1.72452 z m -97.016471,-0.93884 c 0,-0.28187 0.64559,-0.40931 2.71484,-0.53592 1.49316,-0.0914 3.30887,-0.34629 4.0349,-0.56651 0.72603,-0.22022 1.34982,-0.40169 1.3862,-0.40326 0.1696,-0.007 0.0414,0.77492 -0.14592,0.89072 -0.21492,0.13282 -3.31637,0.53735 -6.33637,0.82646 -1.31523,0.12591 -1.65365,0.0826 -1.65365,-0.21149 z m 158.220831,-0.23361 c 0,-0.21671 0.4964,-0.50421 1.19161,-0.69015 0.88919,-0.23782 1.59427,-0.72766 2.77813,-1.93005 1.15255,-1.17058 1.58651,-1.4759 1.58651,-1.11619 0,0.27233 -0.62508,1.09327 -1.38906,1.82432 -1.84817,1.76849 -2.02046,1.88235 -3.175,2.0981 -0.76341,0.14266 -0.99219,0.0998 -0.99219,-0.18603 z M 52.592329,201.80885 c -0.93772,-0.47573 -2.15811,-0.93744 -2.71198,-1.026 -0.61697,-0.0987 -1.00703,-0.3063 -1.00703,-0.53608 0,-0.45679 1.29261,-0.27072 3.32312,0.47834 1.66783,0.61527 2.31816,1.08007 2.19575,1.56933 -0.0741,0.29603 -0.4695,0.18935 -1.79986,-0.48559 z m 62.955991,0.66815 c 0,-0.56765 1.83327,-4.20645 4.32235,-8.57929 2.27521,-3.99709 4.79434,-8.99013 6.49159,-12.86662 0.49184,-1.12337 1.05569,-2.03748 1.25677,-2.03748 0.20059,0 0.3647,0.0351 0.3647,0.0781 0,0.043 -0.58126,1.39301 -1.29169,3.00012 -1.77268,4.01007 -3.57079,7.54643 -6.62655,13.03247 -1.42734,2.56251 -2.90628,5.27576 -3.28655,6.02944 -0.71172,1.41062 -1.23062,1.97702 -1.23062,1.34326 z m -38.232291,-0.91219 c -1.96501,-0.13011 -2.64311,-0.32247 -2.31024,-0.65533 0.43513,-0.43514 5.08836,-0.006 5.08836,0.46952 0,0.23748 -0.25905,0.3518 -0.7276,0.32109 -0.40019,-0.0262 -1.32292,-0.0871 -2.05052,-0.13528 z M 172.0432,200.9643 c -0.17665,-0.28583 0.89005,-0.80402 1.65508,-0.80402 0.38199,0 0.38808,0.0459 0.0489,0.36848 -0.54557,0.51889 -1.50148,0.76322 -1.704,0.43554 z m -27.12613,-0.81937 c -1.61583,-1.09499 -3.30063,-1.93937 -4.94058,-2.4761 -1.222,-0.39995 -2.39782,-1.21272 -1.75443,-1.21272 1.8019,0 8.28251,3.31365 8.28251,4.235 0,0.42224 -0.32181,0.31153 -1.5875,-0.54618 z m -122.766671,-0.0959 c 0,-0.20969 0.38016,-0.45766 0.8599,-0.5609 1.45133,-0.31234 3.95443,-1.58218 5.62239,-2.8523 1.15064,-0.87619 1.61141,-1.10174 1.67438,-0.81962 0.16429,0.73599 -3.0101,2.86614 -5.88216,3.94718 -2.0347,0.76586 -2.27451,0.79598 -2.27451,0.28564 z m 142.610421,-0.0431 c 0,-0.46723 0.56958,-0.38586 0.73311,0.10473 0.0576,0.17281 -0.0838,0.31419 -0.31419,0.31419 -0.23041,0 -0.41892,-0.18851 -0.41892,-0.41892 z M 53.391569,199.60592 c -0.35262,-0.14093 -1.51348,-0.38598 -2.57969,-0.54456 -2.62878,-0.39098 -2.54918,-0.87348 0.11196,-0.67866 2.46519,0.18048 3.79864,0.60215 3.59363,1.1364 -0.16545,0.43114 -0.24839,0.43753 -1.1259,0.0868 z m 123.660891,0.007 c -0.22471,-0.3636 -0.15721,-0.41264 0.87138,-0.633 1.06973,-0.22918 1.10338,-0.0171 0.0812,0.51152 -0.52781,0.27294 -0.83474,0.31208 -0.95254,0.12148 z m -31.73852,-1.63488 c -1.50484,-1.10596 -3.73996,-2.19696 -5.57008,-2.71886 -2.17286,-0.61964 -2.49651,-1.03132 -0.64938,-0.826 0.91951,0.1022 2.32886,0.5869 3.83645,1.31942 2.73997,1.33132 3.67266,2.01542 3.53709,2.59435 -0.0769,0.32863 -0.30349,0.25622 -1.15408,-0.36891 z m -92.141141,-1.99602 c -2.85873,-0.64092 -4.29948,-1.07926 -4.29948,-1.3081 0,-0.22227 0.21086,-0.29428 0.59531,-0.20332 5.50181,1.30174 9.56515,2.07877 11.70781,2.23888 l 2.64584,0.19771 -3.17501,0.0194 c -2.73357,0.0167 -3.77275,-0.11463 -7.47447,-0.94455 z m 24.20661,0.49062 c -2.33691,-0.14966 -3.23304,-0.60195 -1.51859,-0.76646 1.67194,-0.16044 4.23333,0.22624 4.23333,0.63908 0,0.2067 -0.0893,0.35332 -0.19844,0.32582 -0.10914,-0.0275 -1.24147,-0.1168 -2.5163,-0.19844 z m 105.373071,-0.53702 c 0,-0.45748 2.4834,-2.65413 3.00061,-2.65413 0.59397,0 -0.0471,0.88084 -1.41311,1.94165 -1.33697,1.03825 -1.5875,1.15069 -1.5875,0.71248 z M 56.435799,194.83953 c -2.33338,-0.30959 -7.56248,-2.05978 -7.56248,-2.53117 0,-0.19259 0.0473,-0.35016 0.1051,-0.35016 0.0578,0 1.57585,0.50255 3.37344,1.11679 l 3.26833,1.11678 4.0349,0.008 c 2.2192,0.004 4.0349,0.0875 4.0349,0.1851 -10e-6,0.48377 -4.77838,0.78345 -7.25419,0.45496 z m 59.118491,-0.12241 c -0.003,-0.3016 0.51974,-1.6285 1.16228,-2.94867 1.6077,-3.3032 2.35924,-5.48549 3.5749,-10.38058 1.11774,-4.50079 1.88312,-6.58129 2.68964,-7.31119 0.74592,-0.67504 0.67122,0.0545 -0.1574,1.537 -0.36839,0.65913 -1.23204,3.4614 -1.94692,6.31718 -0.70665,2.8229 -1.78216,6.32317 -2.39002,7.77838 -1.27361,3.04905 -2.92313,5.86597 -2.93248,5.00788 z m 31.58197,-0.41181 c -1.42306,-1.1454 -4.43104,-2.55596 -6.25304,-2.93229 -0.91145,-0.18826 -1.5224,-0.45247 -1.5224,-0.65838 0,-0.49678 0.57627,-0.42956 2.86376,0.33407 1.95036,0.65108 4.29388,1.81448 5.27105,2.61671 0.25528,0.20958 0.7618,0.6216 1.1256,0.91561 0.63455,0.51281 0.63872,0.53492 0.10253,0.54337 -0.30741,0.005 -1.02179,-0.36375 -1.5875,-0.81909 z m 2.80789,0.16643 c -0.59252,-0.63071 -0.59681,-0.66146 -0.0922,-0.66146 0.29104,0 0.8088,0.29766 1.15057,0.66146 0.59252,0.63071 0.59681,0.66146 0.0922,0.66146 -0.29104,0 -0.8088,-0.29766 -1.15057,-0.66146 z m 16.53646,0.39654 c -0.72761,-0.1094 -1.73964,-0.39209 -2.24896,-0.62822 l -0.92604,-0.42931 1.32291,0.11469 c 0.72761,0.0631 2.09683,0.2413 3.04271,0.39607 0.94589,0.15476 2.52347,0.20672 3.50573,0.11547 1.11035,-0.10315 1.78594,-0.0671 1.78594,0.0952 0,0.51384 -3.94113,0.7182 -6.48229,0.33613 z M 22.150399,193.94279 c 0,-0.23519 0.60971,-0.67341 1.46033,-1.04959 1.55928,-0.68959 5.05315,-3.0028 5.82707,-3.85797 0.55728,-0.61579 0.91468,-0.66409 0.91468,-0.12361 0,0.77228 -4.43716,3.86185 -7.21048,5.02061 -0.88433,0.3695 -0.9916,0.37064 -0.9916,0.0106 z m 55.20648,-2.7944 c -1.28722,-1.00981 -2.57305,-1.83603 -2.85741,-1.83603 -0.6634,0 -1.71613,0.54936 -3.84286,2.00539 -1.63507,1.11941 -2.86913,1.65114 -3.15909,1.36118 -0.1808,-0.1808 4.21537,-3.04526 5.66185,-3.68915 0.92836,-0.41326 1.28967,-0.45313 1.98438,-0.21898 1.10326,0.37184 4.9504,3.37793 4.9504,3.86816 0,0.59624 -0.25242,0.45878 -2.73727,-1.49057 z m 92.166441,1.68667 c -0.36381,-0.0602 -1.52467,-0.35896 -2.57969,-0.66397 -1.50438,-0.43492 -1.91823,-0.66188 -1.91823,-1.05198 0,-0.46565 0.0499,-0.47164 0.78063,-0.0937 1.17388,0.60704 3.92227,1.1891 5.63552,1.1935 1.17418,0.003 1.52135,0.0945 1.52135,0.40079 0,0.30695 -0.31472,0.38871 -1.38906,0.36084 -0.76399,-0.0198 -1.68672,-0.0853 -2.05052,-0.14544 z M 22.151029,192.16019 c 3.4e-4,-0.18386 0.66025,-0.67895 1.46646,-1.10021 1.67186,-0.87359 2.91501,-2.1919 5.08384,-5.39122 1.1622,-1.71439 1.53839,-2.1113 1.60203,-1.69025 0.1455,0.96271 -3.52556,5.95088 -5.18308,7.04266 -1.49328,0.9836 -2.97002,1.55009 -2.96925,1.13902 z M 145.9754,191.16445 c -1.09352,-0.72693 -1.13419,-0.79158 -0.4987,-0.79262 0.70023,-10e-4 2.0862,0.88974 2.0862,1.34099 0,0.40107 -0.33155,0.28654 -1.5875,-0.54837 z m -91.545831,-0.94251 c -2.91175,-0.62677 -5.41449,-1.57105 -5.51374,-2.08031 -0.0722,-0.37071 0.005,-0.41107 0.39688,-0.20666 1.0072,0.52574 5.33035,1.62118 7.43565,1.88413 2.15603,0.26929 4.9932,0.0764 6.81686,-0.46354 1.64617,-0.48735 2.94747,-1.35811 4.47115,-2.99186 0.86255,-0.92485 2.1119,-2.26527 2.77634,-2.97871 1.87523,-2.01351 3.39637,-2.39468 4.96877,-1.24509 0.85851,0.62766 4.3082,5.37437 4.31061,5.93131 0.003,0.72659 -0.32615,0.39689 -2.39844,-2.40148 -2.22658,-3.00674 -2.74926,-3.48728 -3.80178,-3.49523 -0.65393,-0.005 -1.30933,0.5432 -4.10104,3.42986 -3.61661,3.73962 -4.43514,4.26304 -7.42536,4.74817 -2.32458,0.37713 -5.84646,0.31918 -7.9359,-0.13059 z m -0.3933,-1.86574 c -2.33593,-0.5647 -5.16295,-1.93203 -5.16295,-2.49714 0,-0.4055 0.17949,-0.36733 1.41211,0.30029 6.99414,3.78818 14.6741,1.76427 17.68003,-4.65925 0.44082,-0.942 0.96886,-1.71274 1.17342,-1.71274 0.51392,0 0.49109,0.0947 -0.53598,2.2212 -2.54238,5.26404 -8.4322,7.83062 -14.56663,6.34764 z m -31.88587,-0.42834 c 0,-0.19657 0.54497,-0.88821 1.21104,-1.53697 1.85749,-1.80921 5.67676,-7.88551 6.62591,-10.54155 l 0.34191,-0.95677 0.0116,1.17397 c 0.01,0.9693 -0.27156,1.66123 -1.61256,3.96875 -2.94125,5.06116 -4.43133,6.98235 -6.24718,8.05467 -0.19775,0.11677 -0.33073,0.0516 -0.33073,-0.1621 z m 24.34167,-0.27074 c -0.67599,-0.20776 -0.79388,-0.31509 -0.4366,-0.3975 0.65495,-0.15108 2.23086,0.15763 2.42731,0.47549 0.20182,0.32656 -0.80241,0.28722 -1.99071,-0.078 z m 137.451041,-0.0931 c 0.29104,-0.22474 0.85659,-0.5812 1.25677,-0.79213 0.62143,-0.32754 0.7276,-0.32904 0.7276,-0.0103 0,0.49521 -1.15023,1.22999 -1.90892,1.21943 -0.59733,-0.008 -0.59824,-0.0133 -0.0755,-0.41704 z m -68.24406,-0.56673 c 0.0884,-0.40018 0.32771,-1.26338 0.53171,-1.91823 0.20399,-0.65484 0.96275,-3.72281 1.68612,-6.81771 0.72338,-3.0949 1.52394,-6.07146 1.77902,-6.61459 0.89407,-1.90361 3.43133,-4.03325 5.57585,-4.68006 1.13947,-0.34367 0.6276,0.50584 -0.66146,1.09778 -1.82793,0.83939 -3.37788,2.28064 -4.14938,3.85837 -0.37175,0.76024 -1.20373,3.64444 -1.84885,6.40934 -1.33171,5.70757 -2.43643,9.3927 -2.81571,9.3927 -0.14418,0 -0.18713,-0.32118 -0.0973,-0.7276 z m -28.196571,0.26952 c -0.50932,-0.0598 -1.02928,-0.20951 -1.15546,-0.33259 -0.12617,-0.12308 1.27281,-0.2181 3.10886,-0.21115 3.56024,0.0135 4.38755,0.2876 1.71196,0.56726 -1.65133,0.1726 -2.01627,0.17025 -3.66536,-0.0235 z m -32.80833,-2.4704 c -0.65484,-0.12358 -2.20266,-0.74155 -3.43958,-1.37327 -1.73105,-0.88409 -2.26947,-1.29055 -2.33801,-1.76503 l -0.0891,-0.61644 0.79568,0.56656 c 0.43761,0.31162 1.72784,1.01167 2.86717,1.55568 1.85481,0.88564 2.33263,0.99888 4.56786,1.08246 1.373,0.0514 2.93924,-0.0393 3.48053,-0.2015 1.12918,-0.33831 3.51495,-2.37631 4.09506,-3.49813 0.35727,-0.69087 1.17284,-1.06731 1.17284,-0.54133 0,0.39428 -1.70285,2.60897 -2.55281,3.32014 -1.53613,1.28528 -2.93815,1.74405 -5.2524,1.71871 -1.16417,-0.0128 -2.65245,-0.12428 -3.30729,-0.24785 z m 128.064221,-0.9941 c -0.003,-0.33842 0.47426,-1.43742 1.06111,-2.44224 0.58684,-1.00482 1.29281,-2.33528 1.56881,-2.95658 l 0.50181,-1.12964 0.0187,0.89465 c 0.0183,0.87661 -1.51833,4.13251 -2.63842,5.59036 l -0.50612,0.65874 z m -160.607971,-0.8657 c 0,-0.16992 0.76977,-1.01431 1.71061,-1.87642 1.19171,-1.09198 1.96869,-2.09169 2.56139,-3.29564 0.77524,-1.57474 0.84976,-1.94417 0.83937,-4.16097 -0.008,-1.79031 -0.13531,-2.67504 -0.48059,-3.35003 -0.73445,-1.43578 -2.95406,-4.56921 -3.83355,-5.41181 -0.43848,-0.42009 -0.79723,-1.00381 -0.79723,-1.29716 0,-1.17906 3.72516,3.35853 5.2978,6.4532 0.51178,1.0071 0.59928,1.56566 0.56767,3.6236 -0.0404,2.62822 -0.42008,3.95814 -1.64883,5.77517 -1.23243,1.82246 -4.21664,4.32784 -4.21664,3.54006 z m 30.41311,-1.17923 c -2.24354,-1.19705 -3.69019,-2.40061 -3.69019,-3.0701 0,-0.45786 0.16504,-0.38711 1.17889,0.50532 0.64839,0.57073 1.92831,1.44405 2.84427,1.94071 1.54499,0.83774 1.83751,0.90294 4.04663,0.90201 2.56677,-0.001 3.37958,-0.27573 4.68787,-1.58402 0.38946,-0.38947 0.91059,-0.66841 1.15806,-0.61988 0.3863,0.0758 0.34998,0.20695 -0.25678,0.92752 -1.23378,1.46523 -2.61188,1.93991 -5.60654,1.93117 -2.48941,-0.007 -2.72016,-0.0566 -4.36221,-0.93273 z m 25.54673,-1.24241 c -2.1215,-2.63629 -2.4095,-3.10886 -1.89462,-3.10886 0.50152,0 3.87853,4.18009 3.87853,4.80087 0,0.26994 -0.0511,0.4908 -0.11366,0.4908 -0.0625,0 -0.90413,-0.98226 -1.87025,-2.18281 z m 99.659261,-0.66473 c 0.0485,-0.11095 0.44538,-0.91462 0.88194,-1.78594 0.71507,-1.42719 0.79375,-1.83338 0.79375,-4.09777 0,-2.34815 -0.0566,-2.61338 -0.85989,-4.03089 -0.47295,-0.83454 -0.8599,-1.78108 -0.8599,-2.10343 0,-0.83875 0.33976,-0.40885 1.61205,2.0397 l 1.0965,2.11025 -0.16379,2.35778 c -0.20828,2.99804 -1.32473,5.68878 -2.36837,5.70796 -0.12127,0.002 -0.1808,-0.0867 -0.13229,-0.19766 z m 2.60173,0.11598 c 0,-0.0472 0.48781,-1.0284 1.08403,-2.18055 1.01915,-1.96947 1.07819,-2.2058 0.98657,-3.94917 -0.11277,-2.14578 -0.85286,-3.9051 -3.22279,-7.66116 -0.8215,-1.30198 -1.49362,-2.6712 -1.49361,-3.04271 3e-5,-0.5391 0.27721,-0.24812 1.37287,1.44119 0.75506,1.16417 1.94567,3.22177 2.6458,4.57244 1.23587,2.38421 1.27296,2.523 1.27276,4.7625 -1.9e-4,2.02471 -0.0994,2.51643 -0.81164,4.02196 -0.44629,0.94338 -0.95221,1.80476 -1.12428,1.91418 -0.32338,0.20565 -0.70971,0.27169 -0.70971,0.12132 z M 56.017069,179.53995 c -1.00445,-0.30665 -2.66468,-1.20956 -3.76146,-2.04567 -1.31579,-1.00306 -3.38535,-3.71723 -3.36987,-4.41948 0.0108,-0.48989 0.10582,-0.44254 0.7276,0.36256 3.60957,4.67381 7.25923,6.54238 9.75985,4.99691 1.21854,-0.7531 1.48317,-0.37782 0.40983,0.58121 -0.89958,0.80378 -2.2397,0.99041 -3.76595,0.52447 z m 85.063541,-1.51189 c -0.29104,-0.23076 -1.27331,-0.76394 -2.18282,-1.18485 -1.57687,-0.72975 -2.11937,-1.28918 -1.25016,-1.28918 0.5363,0 3.78826,1.6476 4.6236,2.34253 l 0.66146,0.55028 -0.66146,3.9e-4 c -0.3638,2.1e-4 -0.89958,-0.18841 -1.19062,-0.41917 z m 32.14687,0.2042 c 0,-0.1277 0.1786,-0.3804 0.39688,-0.56156 0.21828,-0.18116 0.39687,-0.49339 0.39687,-0.69386 0,-0.20046 0.1786,-0.36448 0.39688,-0.36448 0.51194,0 0.50576,0.52056 -0.015,1.26405 -0.4048,0.57793 -1.17562,0.81125 -1.17562,0.35585 z m -26.74294,-0.98459 c -1.85671,-1.99037 -5.94552,-4.66225 -8.2482,-5.3899 -0.54571,-0.17244 -0.99219,-0.47647 -0.99219,-0.67563 0,-0.67784 3.84217,0.90114 6.35,2.60958 1.61605,1.10093 3.96875,3.34474 3.96875,3.78507 0,0.54447 -0.36829,0.43206 -1.07836,-0.32912 z M 22.188749,174.23111 c -0.004,-2.47771 0.062,-3.14137 0.2616,-2.64583 0.50421,1.25192 0.5865,4.02858 0.14898,5.02708 -0.39261,0.89604 -0.40592,0.81887 -0.41058,-2.38125 z m 38.8554,2.6327 c 0,-0.29827 0.20495,-0.92335 0.45545,-1.38906 0.41423,-0.77012 0.46358,-0.7945 0.54522,-0.26936 0.0823,0.5295 -0.58228,2.20072 -0.87517,2.20072 -0.069,0 -0.1255,-0.24403 -0.1255,-0.5423 z m -6.89656,-0.97314 c -0.47628,-0.54245 -1.51163,-1.98715 -2.30079,-3.21043 -1.05848,-1.64079 -1.34667,-2.27865 -1.09873,-2.43188 0.2336,-0.14438 0.71711,0.41106 1.58554,1.82137 0.68719,1.116 1.73757,2.58314 2.33416,3.26032 0.59659,0.67717 1.08471,1.30225 1.08471,1.38906 0,0.47087 -0.84877,0.0327 -1.60489,-0.82844 z m 61.525491,-2.07786 c 0.0693,-0.86134 0.32695,-3.65295 0.57257,-6.20357 0.41981,-4.35951 0.41953,-4.97294 -0.005,-10.23328 -0.54367,-6.74122 -0.49902,-6.94797 1.77784,-8.23295 2.21707,-1.25124 2.61888,-2.41303 1.23678,-3.576 -0.43488,-0.36592 -1.44691,-0.85608 -2.24896,-1.08924 -1.64863,-0.47927 -1.81367,-0.87157 -0.79518,-1.89006 1.05683,-1.05684 2.7235,-1.682 4.49627,-1.68654 2.3949,-0.006 3.37676,0.84437 5.90146,5.11195 0.68326,1.15494 2.03353,3.01869 3.00061,4.14167 1.08822,1.26366 1.68279,2.16398 1.56013,2.36243 -0.32407,0.52436 -3.46213,-3.15154 -5.24888,-6.14849 -2.53334,-4.24924 -3.8094,-5.20481 -6.25339,-4.6828 -1.45328,0.31041 -3.5262,1.51359 -3.1567,1.83225 0.12541,0.10815 0.73926,0.34212 1.3641,0.51993 1.56222,0.44454 2.68097,1.51262 2.87719,2.74686 0.17359,1.09195 -0.16533,1.50652 -2.82264,3.45268 l -1.19063,0.87199 0.0555,2.23417 c 0.27982,11.27088 0.20038,14.94105 -0.39741,18.35916 -0.65849,3.76519 -0.91794,4.52134 -0.72392,2.10984 z m -35.803871,1.07373 c -0.0218,-0.14884 -0.45636,-0.90337 -0.96568,-1.67674 -1.06689,-1.61999 -1.27338,-2.55004 -0.38834,-1.74908 0.94485,0.85508 1.62155,2.18794 1.50443,2.96323 -0.0609,0.40326 -0.12861,0.61143 -0.15041,0.46259 z m 69.545771,-0.92851 c 0,-2.03455 1.68888,-3.98742 3.39374,-3.92422 0.73227,0.0272 0.8088,0.0661 0.31043,0.15817 -1.09378,0.20197 -2.86526,2.20835 -3.06773,3.47451 -0.20301,1.26959 -0.63644,1.46813 -0.63644,0.29154 z m 12.96557,0.30765 c 0.80091,-0.25638 1.78318,-0.68039 2.18282,-0.94224 0.65321,-0.42801 0.72661,-0.43254 0.72661,-0.0449 0,0.72371 -1.57172,1.48126 -3.04271,1.46653 l -1.32291,-0.0132 z M 60.943999,173.04049 c -0.0943,-0.43656 -0.059,-1.18135 0.0786,-1.65508 0.13754,-0.47373 0.3331,-1.81319 0.43459,-2.97656 0.13307,-1.52554 0.28563,-2.11524 0.54722,-2.11524 0.19949,0 0.36271,0.17499 0.36271,0.38887 0,0.74042 -0.84014,6.04045 -1.0454,6.59493 -0.18862,0.5095 -0.22072,0.48936 -0.37767,-0.23692 z m -30.81099,-0.92604 c -0.0764,-1.00491 -1.11581,-3.06485 -3.29231,-6.52473 -1.08383,-1.72291 -2.4655,-3.966 -3.07038,-4.98465 -0.60487,-1.01864 -1.24236,-2.05473 -1.41663,-2.30241 -0.17428,-0.24768 -0.23466,-0.53254 -0.13418,-0.63302 0.31228,-0.31228 0.97457,0.43654 2.10866,2.38419 0.60022,1.03079 1.94684,3.24338 2.99248,4.91687 2.77788,4.44581 3.07666,5.10824 2.96105,6.56499 -0.0541,0.68212 -0.12104,0.94256 -0.14869,0.57876 z m 25.62847,-0.78475 c -0.52934,-0.52935 -1.18525,-1.52799 -2.48226,-3.77931 -0.64141,-1.11334 -0.66992,-1.25608 -0.24987,-1.25065 0.30824,0.004 0.83632,0.65 1.50901,1.84603 1.11134,1.97591 2.07608,3.06294 2.49087,2.80659 0.24968,-0.15432 0.63936,-1.62993 0.96825,-3.66656 0.0984,-0.60915 0.30626,-0.99219 0.5385,-0.99219 0.39585,0 0.38556,0.1864 -0.16768,3.03927 -0.46013,2.37273 -1.46283,3.1408 -2.60682,1.99682 z m -16.76903,-1.02202 c -0.4848,-0.5357 -0.56144,-0.99605 -0.20274,-1.21775 0.12933,-0.0799 0.55211,0.27023 0.93951,0.77814 0.63709,0.83527 0.65646,0.92346 0.20274,0.92346 -0.2759,0 -0.69868,-0.21773 -0.93951,-0.48385 z m 1.72707,-1.24992 c -0.94558,-1.18639 -1.31484,-1.85352 -1.1696,-2.11305 0.15849,-0.2832 0.57874,0.0904 1.65897,1.47494 1.62574,2.08367 1.77857,2.37188 1.2578,2.37188 -0.20092,0 -0.98715,-0.7802 -1.74717,-1.73377 z m 5.90484,1.46919 c -0.0899,-0.14552 0.0816,-0.26459 0.38126,-0.26459 0.29963,0 0.54478,0.11907 0.54478,0.26459 0,0.14552 -0.17157,0.26458 -0.38126,0.26458 -0.20969,0 -0.45484,-0.11906 -0.54478,-0.26458 z m 32.9026,-0.17811 c -0.19187,-0.23119 -1.80962,-1.60683 -3.595,-3.05698 -1.78538,-1.45015 -3.24614,-2.68472 -3.24614,-2.74348 0,-0.0588 0.22354,-0.10685 0.49675,-0.10685 0.27322,0 1.37455,0.72803 2.4474,1.61784 5.00866,4.15414 4.92587,4.07459 4.57821,4.39935 -0.25615,0.23928 -0.41235,0.21409 -0.68122,-0.10988 z m 3.86454,-1.43124 c -0.72214,-0.73963 -2.672,-2.4958 -4.33303,-3.90261 -2.0674,-1.75098 -2.87784,-2.58546 -2.56918,-2.6454 0.55166,-0.10715 3.38227,2.16614 6.76858,5.43592 1.89111,1.82603 2.38951,2.44031 1.98571,2.44739 -0.30778,0.005 -1.10251,-0.56757 -1.85208,-1.3353 z m 2.39119,0.10205 c -0.7276,-0.67194 -2.8112,-2.46868 -4.63021,-3.99274 -1.94667,-1.63103 -3.3456,-3.00145 -3.40041,-3.33112 -0.0865,-0.52032 -0.0583,-0.53049 0.39688,-0.14329 0.26949,0.22924 2.31546,1.95532 4.54658,3.83573 2.23113,1.88041 4.43378,3.74315 4.89479,4.13941 l 0.83821,0.72049 -0.66146,-0.003 c -0.41598,-0.002 -1.15242,-0.45678 -1.98438,-1.22509 z m 75.456771,1.07275 c -0.0935,-0.0935 0.34855,-0.53997 0.98229,-0.99219 0.63374,-0.45222 1.58335,-1.3395 2.11024,-1.97173 0.85061,-1.02067 0.95719,-1.07998 0.95087,-0.52917 -0.008,0.70867 -1.00982,1.94692 -2.3991,2.96568 -0.96907,0.71061 -1.3416,0.8301 -1.6443,0.52741 z m -72.044821,-1.43188 c -0.85792,-0.59612 -3.76252,-2.77152 -6.45466,-4.83423 -3.73238,-2.85975 -4.91595,-3.90747 -4.98392,-4.41184 l -0.0891,-0.66146 0.88288,0.81829 c 0.76161,0.70588 6.01317,4.73322 10.66334,8.17754 1.31303,0.97254 1.89373,1.64317 1.64137,1.89554 -0.055,0.055 -0.80195,-0.38772 -1.65988,-0.98384 z m -44.89647,-1.47616 c -1.20478,-1.74036 -1.43061,-2.21366 -1.05623,-2.21366 0.61335,0 2.79843,3.18457 2.67734,3.90199 -0.0665,0.39418 -0.47123,-0.0273 -1.62111,-1.68833 z m 24.46067,1.75509 c 0,-0.3638 0.06,-0.51263 0.13346,-0.33073 0.0734,0.1819 0.0734,0.47956 0,0.66146 -0.0734,0.1819 -0.13346,0.0331 -0.13346,-0.33073 z m 28.43665,-0.80091 c 1.850293,-0.89753 3.197751,-2.26033 4.234611,-4.28282 l 0.717,-1.39856 -0.0567,-5.55625 c -0.0491,-4.80834 0.0142,-5.83108 0.46981,-7.59792 0.56446,-2.18885 1.31693,-3.89535 1.33584,-3.0295 0.006,0.2668 -0.25687,1.45742 -0.58377,2.64583 -0.54424,1.97851 -0.58833,2.64055 -0.52284,7.8493 l 0.0715,5.68854 -0.78276,1.64075 c -1.39364,2.92125 -3.635498,4.84992 -5.619901,4.83478 -0.84368,-0.006 -0.80842,-0.0444 0.73716,-0.79415 z m 2.466893,0.32401 c 1.277818,-0.88225 2.216998,-1.76844 3.223078,-3.04122 0.97854,-1.23794 1.02119,-1.26144 1.02119,-0.56259 0,1.07749 -3.05026,4.08612 -4.123088,4.06683 l -0.7717,-0.0139 z m -66.600293,-0.383 c -0.14609,-0.1819 -0.59081,-0.97833 -0.98826,-1.76984 -0.39746,-0.79151 -1.84384,-3.25782 -3.21418,-5.48069 -3.28108,-5.32231 -3.79301,-6.45143 -3.79625,-8.37302 -0.005,-2.90822 1.30108,-4.02502 4.49574,-3.84451 1.43927,0.0813 2.21782,0.31455 4.00297,1.19913 2.67117,1.32361 5.94888,3.72615 5.58285,4.09219 -0.16161,0.1616 -0.88178,-0.22205 -1.98674,-1.05839 -0.95329,-0.72154 -2.70975,-1.80065 -3.90325,-2.39801 -1.86684,-0.93439 -2.40784,-1.08613 -3.87231,-1.08613 -2.02551,0 -3.06319,0.46512 -3.52499,1.58002 -0.70945,1.71275 0.14589,3.90454 3.8065,9.75415 1.91663,3.06275 4.12612,7.08705 4.12734,7.51739 8.8e-4,0.31159 -0.43667,0.23224 -0.72942,-0.13229 z m 128.034201,-0.259 c 0.051,-0.21941 1.01539,-1.37698 2.14317,-2.57239 1.59628,-1.69198 2.05052,-2.04786 2.05052,-1.60649 0,0.58517 -2.17693,3.07578 -3.53143,4.04027 -0.58227,0.41461 -0.73372,0.44631 -0.66226,0.13861 z m -25.17506,-0.60089 c 0,-0.2415 0.24629,-0.39688 0.62906,-0.39688 0.34599,0 0.77728,0.1786 0.95844,0.39688 0.28247,0.34035 0.19289,0.39687 -0.62906,0.39687 -0.67556,0 -0.95844,-0.11714 -0.95844,-0.39687 z m 17.22786,-1.02226 c -0.23656,-0.28503 -0.24171,-0.43436 -0.0197,-0.57155 0.41011,-0.25346 0.81101,0.19521 0.55073,0.61635 -0.16868,0.27293 -0.27473,0.26399 -0.531,-0.0448 z m -90.782021,-0.80778 c 0,-0.20615 -0.14049,-0.42165 -0.31219,-0.47889 -0.3659,-0.12196 -0.0992,-0.99837 0.30388,-0.99837 0.15009,0 0.27289,0.41672 0.27289,0.92605 0,0.50932 -0.0595,0.92604 -0.13229,0.92604 -0.0728,0 -0.13229,-0.16867 -0.13229,-0.37483 z m -3.33038,-2.66788 c 0.0478,-1.16417 0.24735,-2.80796 0.44346,-3.65287 0.4292,-1.84921 0.4835,-1.79653 -2.50139,-2.42672 -2.73869,-0.57821 -5.54573,-1.90791 -7.23624,-3.42782 -1.36093,-1.22359 -3.25045,-4.37086 -3.25045,-5.41409 0,-0.98141 0.37678,-0.58782 1.18363,1.23643 1.59088,3.59692 4.75314,5.85697 9.77749,6.98792 l 2.53263,0.57008 -0.0121,1.87291 c -0.007,1.0301 -0.23977,2.88494 -0.51802,4.12187 l -0.50591,2.24896 z m 35.08386,1.67148 c 0.002,-0.19171 0.74606,-0.70575 1.65365,-1.14231 2.842883,-1.36747 3.233813,-2.50599 2.432803,-7.08521 -0.509763,-2.91422 -0.27603,-4.39292 1.3529,-8.55922 1.095598,-2.8022 1.171748,-3.16156 1.171748,-5.52952 0,-1.82716 -0.12091,-2.76838 -0.43408,-3.3793 -2.024748,-3.94963 -3.822391,-4.86666 -10.748741,-5.48322 -4.81678,-0.42878 -5.20987,-0.61361 -5.2173,-2.45316 -0.006,-1.5307 0.90126,-2.30437 2.69591,-2.2985 6.28489,0.0206 11.620993,1.6121 14.457301,4.31199 1.19404,1.13661 2.41798,3.30931 2.41238,4.28239 -0.004,0.7201 -0.0835,0.64646 -0.85557,-0.79375 -2.07673,-3.87408 -5.663081,-6.02904 -11.173441,-6.71389 -5.37547,-0.66809 -5.60913,-0.66562 -6.34184,0.0671 -0.36829,0.36829 -0.66962,0.91041 -0.66962,1.20471 0,0.97891 1.03659,1.31985 5.30968,1.74641 4.84273,0.48343 5.80081,0.70867 7.43616,1.74819 1.410963,0.89689 2.214253,1.86322 3.251611,3.91158 0.68543,1.35345 0.72041,1.59384 0.61592,4.23334 -0.10366,2.61873 -0.19139,2.99126 -1.36632,5.80231 -0.690548,1.65215 -1.323548,3.57812 -1.406668,4.27992 -0.0838,0.70798 0.0517,2.59294 0.30443,4.23428 0.52854,3.43226 0.4109,4.42988 -0.66722,5.65779 -1.087293,1.23835 -4.221053,2.69459 -4.213693,1.95808 z m 65.877771,-0.20596 c 0,-0.29303 1.0597,-1.33323 1.35823,-1.33323 0.11006,0 1.04011,-0.95325 2.06677,-2.11834 1.49505,-1.69663 1.86666,-1.99877 1.86666,-1.51769 0,0.70506 -2.74115,3.85391 -4.0697,4.675 -0.98888,0.61116 -1.22196,0.66729 -1.22196,0.29426 z m -34.52813,-1.17109 c -2.68535,-0.85707 -4.35764,-2.4504 -5.04177,-4.80372 -0.75005,-2.58008 0.0856,-4.61883 1.89326,-4.61883 0.87097,0 7.24955,2.99778 7.24955,3.40712 0,0.58265 -0.58382,0.39183 -3.59327,-1.17446 -1.8002,-0.93692 -3.44993,-1.7035 -3.66606,-1.7035 -0.70096,0 -1.47201,1.10138 -1.47044,2.10041 0.005,3.10767 2.29319,5.64627 5.63243,6.24846 0.56823,0.10248 0.9605,0.31079 0.90412,0.48013 -0.14339,0.4307 -0.70111,0.44952 -1.90782,0.0644 z m -90.516511,-0.76141 c -0.42061,-0.49896 -1.94502,-2.20536 -3.38758,-3.79199 -3.83981,-4.22328 -4.1816,-4.95254 -2.94604,-6.28573 0.7697,-0.83052 2.09475,-0.93443 3.39921,-0.26657 1.19965,0.6142 5.74155,5.12374 5.74155,5.70064 0,0.26423 -0.0472,0.48042 -0.10495,0.48042 -0.0577,0 -0.97483,-0.89711 -2.03803,-1.99359 -2.3349,-2.408 -4.46551,-4.09182 -5.17753,-4.09182 -0.79757,0 -1.77153,1.16911 -1.58582,1.90358 0.0848,0.33547 1.60271,2.2173 3.37308,4.18183 1.77038,1.96453 3.37639,3.75319 3.56892,3.97479 0.20331,0.23401 0.26032,0.54812 0.13599,0.74929 -0.15879,0.25692 -0.41155,0.11209 -0.9788,-0.56085 z m 51.22589,0.18784 c -3.29721,-0.70816 -8.46667,-3.86132 -8.46667,-5.16433 0,-0.41145 0.31301,-0.25379 1.65365,0.83289 1.97098,1.59763 5.3806,3.31393 7.44278,3.74648 0.87911,0.18439 1.4869,0.45178 1.4869,0.65414 0,0.40085 0.0847,0.40362 -2.11666,-0.0692 z m 7.03043,-0.61621 c -0.08,-0.12942 0.0397,-0.38896 0.26597,-0.57675 0.87643,-0.72738 1.20787,-1.92336 1.44896,-5.22843 0.33264,-4.56011 0.63614,-5.8277 1.84206,-7.69349 1.488813,-2.30348 1.830733,-3.0375 2.116263,-4.54311 0.48102,-2.5364 -0.54052,-5.037 -2.695393,-6.59798 -1.37454,-0.9957 -2.09571,-1.1864 -7.55915,-1.99882 -5.17585,-0.76966 -5.2807,-0.79621 -5.61553,-1.42185 -0.23958,-0.44765 -0.19201,-0.4554 0.76724,-0.12491 0.56246,0.19379 2.55276,0.54489 4.42288,0.78024 7.45298,0.93794 9.33029,1.80666 10.841953,5.01712 0.7396,1.57076 0.83762,3.96975 0.23229,5.68541 -0.21767,0.61696 -0.98436,2.14998 -1.703743,3.40671 -1.45309,2.53846 -1.50056,2.72941 -1.86862,7.51574 -0.19005,2.47156 -0.40284,3.65906 -0.79253,4.42293 -0.54502,1.06832 -1.44019,1.78187 -1.70265,1.35719 z m -49.43958,-2.14049 c -0.96279,-1.28961 -1.2833,-2.26789 -0.67678,-2.06572 0.16816,0.056 0.83403,0.83988 1.4797,1.74184 0.9769,1.36465 1.0905,1.63993 0.67678,1.63993 -0.2882,0 -0.91018,-0.55319 -1.4797,-1.31605 z m 116.227901,1.05146 c 0,-0.14552 0.11203,-0.26458 0.24896,-0.26458 0.13694,0 0.32256,0.11906 0.41249,0.26458 0.0899,0.14553 -0.0221,0.26459 -0.24896,0.26459 -0.22687,0 -0.41249,-0.11906 -0.41249,-0.26459 z m 24.5018,-1.11155 c -0.6621,-0.75688 -1.32272,-1.73914 -1.46805,-2.18281 -0.22619,-0.69051 -0.0367,-0.55983 1.31558,0.90745 0.86891,0.94277 1.57983,1.92503 1.57983,2.18281 0,0.25778 -0.0503,0.46869 -0.11177,0.46869 -0.0615,0 -0.65349,-0.61926 -1.31559,-1.37614 z m -21.68488,-0.36632 c 0.74641,-0.86066 1.60858,-1.79165 1.91593,-2.06886 0.54989,-0.49598 0.55881,-0.49583 0.55881,0.01 0,0.55714 -2.10473,2.73643 -3.1727,3.2851 -0.48768,0.25056 -0.30612,-0.0684 0.69796,-1.22618 z m -93.899741,-0.48238 c -0.81612,-1.67245 -0.98916,-2.81953 -0.34465,-2.28463 0.53064,0.44039 1.26908,2.46396 1.16129,3.18233 -0.071,0.47327 -0.23628,0.2916 -0.81664,-0.8977 z m 15.9127,-0.51471 c -2.52429,-1.0384 -3.91796,-2.2774 -5.1004,-4.53439 -0.70107,-1.33816 -0.88605,-2.25106 -0.45613,-2.25106 0.12972,0 0.41634,0.44648 0.63693,0.99219 0.95594,2.36478 2.97717,4.27117 5.63565,5.31543 1.21856,0.47866 1.86246,1.10764 1.12039,1.09443 -0.19403,-0.003 -1.02043,-0.28092 -1.83644,-0.6166 z m 76.528571,-0.63508 c 0.0532,-0.13806 0.95996,-1.18397 2.01498,-2.32424 1.55277,-1.67823 1.91823,-1.95967 1.91823,-1.47722 0,0.36671 -0.53787,1.13389 -1.39806,1.99407 -1.3377,1.3377 -2.73928,2.33693 -2.53515,1.80739 z M 45.765399,155.64414 c -1.07807,-1.08876 -1.56628,-1.76816 -1.42917,-1.98888 0.14672,-0.23618 0.73049,0.20572 1.97579,1.49563 0.97215,1.00697 1.76755,1.90196 1.76755,1.98887 0,0.51989 -0.88442,-0.0517 -2.31417,-1.49562 z m 45.37716,0.59531 c -0.35817,-1.22584 -0.22528,-5.51392 0.20262,-6.53802 0.2217,-0.53063 1.20397,-2.1525 2.18281,-3.60417 1.50824,-2.2368 1.7797,-2.81212 1.7797,-3.77185 0,-0.8966 -0.16532,-1.30615 -0.79375,-1.96636 -1.01795,-1.06943 -1.41027,-1.27252 -3.06412,-1.58616 -1.90499,-0.36128 -3.28012,-0.0704 -4.6652,0.98688 -0.65242,0.498 -1.24876,0.84292 -1.3252,0.76648 -0.31353,-0.31354 0.2477,-1.00385 1.43973,-1.77086 1.20405,-0.77475 1.37281,-0.80907 3.51402,-0.71468 3.69974,0.16311 5.55598,1.61678 5.55598,4.35105 0,1.35076 -0.33086,2.02395 -2.6751,5.44294 -1.28879,1.87965 -1.61013,3.00203 -1.79837,6.2814 -0.1047,1.82401 -0.22653,2.55659 -0.35312,2.12335 z m 43.984921,-0.41249 c 0,-0.22687 0.11906,-0.33891 0.26459,-0.24897 0.14552,0.0899 0.26458,0.27556 0.26458,0.41249 0,0.13693 -0.11906,0.24897 -0.26458,0.24897 -0.14553,0 -0.26459,-0.18562 -0.26459,-0.41249 z m 0.78845,-1.3137 c -0.18408,-0.2218 -0.26107,-0.47689 -0.17109,-0.56687 0.19217,-0.19216 0.97014,0.39962 0.97014,0.73796 0,0.36444 -0.43123,0.27212 -0.79905,-0.17109 z m -65.432941,-0.0597 c -0.0646,-0.10914 -0.20095,-0.70348 -0.30309,-1.32076 -0.17305,-1.04584 -0.13789,-1.1405 0.51587,-1.38906 0.38587,-0.14671 0.73814,-0.26674 0.78283,-0.26674 0.0447,0 0.15594,0.44648 0.24722,0.99219 0.0913,0.5457 0.23945,1.26007 0.32926,1.5875 0.1435,0.52316 0.0652,0.59531 -0.64571,0.59531 -0.44494,0 -0.86181,-0.0893 -0.92638,-0.19844 z m 2.89736,-0.62838 c -0.24241,-1.21206 -0.20159,-3.14193 0.0665,-3.14193 0.1275,0 0.29617,0.62508 0.37483,1.38906 0.0787,0.76399 0.22635,1.65695 0.3282,1.98438 0.13504,0.43406 0.0783,0.59531 -0.20946,0.59531 -0.23036,0 -0.46351,-0.34423 -0.56003,-0.82682 z m 1.94757,-0.24538 c -0.33307,-1.23692 -0.25011,-3.55801 0.12718,-3.55801 0.14065,0 0.2237,0.53578 0.18455,1.19063 -0.0392,0.65484 0.10838,1.69664 0.32784,2.3151 0.34029,0.95897 0.34383,1.12448 0.0241,1.12448 -0.21435,0 -0.4986,-0.45922 -0.66365,-1.0722 z m 109.318241,-0.11101 c -1.41066,-1.12142 -1.97463,-1.31499 -2.70009,-0.92673 -0.64754,0.34655 -0.91494,0.1945 -0.68979,-0.39224 0.10377,-0.27042 0.50154,-0.40829 1.17795,-0.40829 1.25219,0 3.49325,1.37392 3.49325,2.1416 0,0.27733 -0.0298,0.50308 -0.0661,0.50167 -0.0364,-0.001 -0.58321,-0.41362 -1.21518,-0.91601 z m -22.3858,0.41058 c -0.18052,-0.29209 2.48721,-2.91773 2.97279,-2.92588 0.5326,-0.009 -0.008,0.80066 -1.37524,2.06139 -1.29368,1.19247 -1.36949,1.23349 -1.59755,0.86449 z M 56.839369,152.64596 c -1.52144,-0.40915 -3.46814,-1.3897 -3.46814,-1.7469 0,-0.37185 0.89238,-0.23421 1.71979,0.26526 1.18621,0.71605 3.19494,1.19905 5.07384,1.22001 1.15202,0.0129 1.67299,0.12165 1.67301,0.34939 4e-5,0.4609 -3.16493,0.40533 -4.9985,-0.0878 z M 166.67892,151.4108 c 0.0606,-0.1819 0.33459,-0.37422 0.60894,-0.42739 0.43156,-0.0836 0.45099,-0.039 0.14412,0.33073 -0.41969,0.50569 -0.91021,0.56865 -0.75306,0.0967 z m 2.90922,0 c 0.0599,-0.1819 0.39155,-0.37193 0.73699,-0.42228 0.54836,-0.0799 0.58359,-0.038 0.27761,0.33073 -0.41436,0.49927 -1.17137,0.56758 -1.0146,0.0916 z m 2.11666,0 c 0.0599,-0.1819 0.39725,-0.36399 0.74966,-0.40465 0.62048,-0.0716 0.6245,-0.0611 0.12714,0.33073 -0.6219,0.48999 -1.02501,0.52398 -0.8768,0.0739 z m 12.76747,-1.15135 c -0.86064,-0.39171 -1.85453,-0.60778 -2.84427,-0.61835 -1.16871,-0.0125 -1.52135,-0.10823 -1.52135,-0.41311 0,-0.58333 2.05978,-0.51451 3.89378,0.13009 1.59083,0.55913 2.04615,0.8623 1.89067,1.25886 -0.0528,0.13454 -0.69122,-0.0263 -1.41883,-0.35749 z M 39.246509,149.99118 c -0.54877,-0.3729 -1.73263,-1.02 -2.63079,-1.438 -4.55646,-2.12054 -8.64411,-2.08044 -12.79852,0.12556 -1.39834,0.74252 -1.6668,0.81261 -1.6668,0.43515 0,-0.57498 1.4893,-1.40182 3.79818,-2.10871 2.51838,-0.77103 6.67077,-0.77485 8.97631,-0.008 2.771,0.92136 5.97313,3.01852 5.43326,3.55839 -0.0626,0.0626 -0.56287,-0.19123 -1.11164,-0.56413 z m 13.17223,0.11987 c -1.5855,-1.76486 -4.40831,-6.82538 -4.0924,-7.33654 0.15162,-0.24533 0.68477,0.48707 1.7386,2.38837 0.83596,1.5082 1.87045,3.19181 2.29888,3.74134 0.91774,1.17716 0.9652,2.22008 0.0549,1.20683 z m 121.073331,-0.0743 c 0,-0.21003 0.26199,-0.56538 0.58221,-0.78967 0.83266,-0.58322 1.15272,0.0534 0.34591,0.68801 -0.74168,0.58341 -0.92812,0.60383 -0.92812,0.10166 z m -43.1934,-3.93218 c -0.98235,-1.92013 -2.23576,-4.08647 -2.78535,-4.81407 -1.15786,-1.53289 -3.07332,-2.90696 -4.64733,-3.3338 -1.56178,-0.42353 -4.25997,-0.11379 -5.84588,0.67107 -1.42197,0.70372 -1.56967,0.7121 -1.32527,0.0752 0.50063,-1.30462 5.31212,-1.96402 8.20165,-1.12401 2.46564,0.71678 4.26074,2.74299 6.73995,7.60766 1.31813,2.58641 1.88928,3.9684 1.71292,4.14467 -0.17635,0.17625 -0.8602,-0.89977 -2.05069,-3.22672 z m -91.347231,2.04426 c -2.59696,-1.07748 -5.321,-1.86226 -9.525,-2.74409 -4.33189,-0.90867 -7.27604,-2.08039 -7.27604,-2.89575 0,-0.40735 0.22189,-0.35647 1.70873,0.39185 0.9398,0.473 2.87456,1.12064 4.29948,1.4392 6.1066,1.36523 8.15944,1.93102 10.41965,2.87181 2.15634,0.89756 2.81058,1.35836 2.17896,1.53469 -0.12005,0.0335 -0.93265,-0.23545 -1.80578,-0.59771 z m 34.79271,-0.0736 c 0,-0.26111 0.29095,-0.74807 0.64655,-1.08214 l 0.64655,-0.6074 -0.29015,0.94537 c -0.31469,1.02538 -1.00295,1.53605 -1.00295,0.74417 z m 99.788651,-0.0298 c 0.0504,-0.34544 0.24039,-0.67709 0.42229,-0.73699 0.47603,-0.15677 0.40772,0.60023 -0.0916,1.0146 -0.36869,0.30598 -0.41067,0.27075 -0.33073,-0.27761 z m -92.636641,-0.86157 c -0.009,-0.79135 0.85873,-2.42465 1.13922,-2.14416 0.30272,0.30273 0.19336,0.7152 -0.47912,1.80704 -0.62968,1.02235 -0.65213,1.03381 -0.6601,0.33712 z m 103.443821,0.28118 c -0.65484,-0.13737 -2.05383,-0.17889 -3.10885,-0.0923 -1.8374,0.15086 -2.62629,-0.14227 -1.32292,-0.49156 0.77806,-0.20851 5.06116,-0.21322 5.60076,-0.006 0.41217,0.15816 0.60648,0.92519 0.22008,0.86874 -0.10915,-0.0159 -0.73422,-0.14138 -1.38907,-0.27875 z M 22.150399,146.31757 c 0,-0.6299 0.12192,-0.92604 0.38126,-0.92604 0.59935,0 0.77053,0.52163 0.39899,1.21586 -0.48172,0.9001 -0.78025,0.78922 -0.78025,-0.28982 z m 138.509371,0.73696 c -1.22912,-0.29663 -2.24895,-0.94803 -2.24895,-1.43648 0,-0.47874 0.0454,-0.47338 0.81675,0.0963 0.63846,0.47154 1.1583,0.60121 2.38125,0.59395 1.66046,-0.01 2.00342,0.25238 0.88581,0.67729 -0.71007,0.26997 -0.96257,0.27946 -1.83486,0.0689 z m 21.5709,-1.203 c -3.32342,-0.68652 -4.28877,-1.02928 -3.92459,-1.39346 0.16747,-0.16746 6.89524,1.17735 7.37578,1.47435 0.17057,0.10541 0.26584,0.29601 0.21173,0.42355 -0.0541,0.12753 -1.70243,-0.0995 -3.66292,-0.50444 z M 52.777679,144.74075 c -1.6148,-1.23299 -3.63978,-3.58452 -3.63978,-4.22672 0,-0.37496 0.61181,0.12204 2.18281,1.77319 1.39131,1.46228 2.61454,2.48691 3.37344,2.82572 l 1.19062,0.53155 -0.95413,0.006 c -0.68672,0.004 -1.29014,-0.25074 -2.15296,-0.90955 z m 22.28939,-0.0497 c 0,-0.82286 1.12929,-3.53289 1.47219,-3.53289 0.37651,0 0.2341,0.69823 -0.57392,2.81402 -0.44417,1.16304 -0.89827,1.52645 -0.89827,0.71887 z m 2.38049,0.23742 c -0.001,-0.37122 1.444,-3.6376 1.6489,-3.72621 0.11217,-0.0485 0.21149,-0.82242 0.22071,-1.7198 0.014,-1.36524 0.0602,-1.52361 0.28273,-0.97013 0.14627,0.3638 0.18772,1.18908 0.0921,1.83397 -0.25809,1.74065 -1.45196,4.78061 -1.87747,4.78061 -0.20142,0 -0.36656,-0.0893 -0.36698,-0.19844 z m -36.32836,-0.71377 c -1.25667,-0.74582 -2.91266,-1.10336 -6.79797,-1.46775 -8.65991,-0.81219 -10.84791,-1.83587 -10.84791,-5.07535 0,-0.62239 0.56554,-2.92025 1.25677,-5.10636 1.21016,-3.82735 1.25666,-4.09249 1.25388,-7.14975 -0.003,-2.8564 -0.0714,-3.32148 -0.68578,-4.63472 -0.3756,-0.80284 -1.24482,-2.1496 -1.93162,-2.9928 -0.744,-0.91344 -1.2154,-1.74097 -1.1663,-2.04742 0.0652,-0.40712 0.33602,-0.19692 1.29905,1.00843 3.86636,4.83923 4.34602,8.66391 1.98263,15.80885 -1.22756,3.71112 -1.50579,5.71034 -0.94145,6.76482 0.68877,1.28698 3.50595,2.05941 10.04532,2.7543 2.25557,0.23968 4.39869,0.50335 4.7625,0.58593 1.08078,0.24532 3.175,1.46206 3.175,1.84466 0,0.46462 -0.19709,0.42352 -1.40412,-0.29284 z m 115.880501,0.20669 c -0.29665,-0.29665 -0.19682,-0.61736 0.19218,-0.61736 0.20272,0 0.4371,0.1786 0.52087,0.39688 0.15265,0.39781 -0.37313,0.56039 -0.71305,0.22048 z m 7.76112,-0.35277 c 0,-0.14553 0.17859,-0.26459 0.39687,-0.26459 0.21828,0 0.39688,0.11906 0.39688,0.26459 0,0.14552 -0.1786,0.26458 -0.39688,0.26458 -0.21828,0 -0.39687,-0.11906 -0.39687,-0.26458 z m 4.61065,-1.37851 c 0.54957,-1.46188 1.21018,-2.31557 1.21018,-1.56389 0,0.71226 -1.13738,3.20698 -1.46211,3.20698 -0.28424,0 -0.22809,-0.3662 0.25193,-1.64309 z m -95.971801,0.68125 c -0.22735,-0.22735 -0.2408,-1.22989 -0.0241,-1.79465 0.24376,-0.63523 0.89909,-0.5048 0.88836,0.1768 -0.0117,0.73936 -0.61442,1.8677 -0.86427,1.61785 z m 60.019121,-1.62496 c -1.11928,-2.54395 -4.10759,-5.52684 -6.83397,-6.82159 l -2.00055,-0.95006 -3.79037,0.11815 c -2.08471,0.065 -4.1178,0.20685 -4.51798,0.31527 -0.46672,0.12645 -0.7276,0.0945 -0.7276,-0.089 0,-0.68869 1.3007,-0.95187 5.1962,-1.05137 l 4.00559,-0.10231 2.3849,1.23175 c 2.95169,1.52449 5.14131,3.61017 6.49548,6.18717 0.90424,1.72076 1.22881,2.96437 0.76939,2.94791 -0.10914,-0.004 -0.55063,-0.80759 -0.98109,-1.78594 z m 6.84917,0.62132 c -0.10263,-0.4089 -0.0582,-0.84139 0.103,-1.00258 0.20159,-0.20159 0.33562,-0.0757 0.46396,0.43562 0.10263,0.4089 0.0582,0.84139 -0.103,1.00258 -0.20158,0.20159 -0.33562,0.0757 -0.46396,-0.43562 z m 25.61411,-0.26303 c 0.0382,-0.57083 0.22339,-1.0885 0.41164,-1.15037 0.25222,-0.0829 0.29504,0.0857 0.16273,0.641 -0.32021,1.34391 -0.64968,1.6361 -0.57437,0.50937 z m 16.46466,0.52282 c -2.81433,-0.43748 -4.79486,-1.11756 -5.28265,-1.81398 -0.61966,-0.8847 -0.46962,-1.06598 0.38097,-0.4603 0.94729,0.67452 4.04568,1.49449 6.5973,1.74592 1.32997,0.13105 1.88513,0.29257 1.88513,0.54844 0,0.43532 -0.67556,0.43153 -3.58075,-0.0201 z m -30.88694,-0.0419 c -0.24563,-0.24563 -0.21733,-1.66633 0.0466,-2.3411 0.17467,-0.44651 0.22426,-0.40627 0.3647,0.29593 0.18052,0.9026 -0.1099,2.3466 -0.41133,2.04517 z m -108.677061,-0.5076 c -0.96035,-1.15714 -3.08116,-1.61074 -9.16736,-1.96069 -4.68781,-0.26954 -5.36752,-0.47139 -6.43155,-1.9099 -0.88733,-1.19961 -0.85398,-2.91494 0.1355,-6.9711 0.65897,-2.70127 0.77526,-3.70794 0.77937,-6.74687 0.005,-3.37912 -0.0339,-3.64536 -0.71332,-4.9335 -0.85492,-1.62092 -3.72363,-5.24959 -4.60855,-5.82941 -0.34453,-0.22575 -0.62202,-0.66465 -0.61665,-0.97533 0.008,-0.44141 0.52347,-0.033 2.3598,1.86834 3.23636,3.35096 4.31454,5.50633 4.45606,8.90808 0.0831,1.99665 -0.0646,3.23285 -0.84899,7.10768 -0.52226,2.57986 -0.94911,5.02065 -0.94857,5.42396 0.001,0.87475 0.82393,2.30956 1.54592,2.69595 0.28429,0.15215 1.9873,0.40223 3.78447,0.55574 6.28985,0.53727 8.26253,0.80846 9.33267,1.28296 1.28649,0.57043 1.94192,1.26206 1.55894,1.64504 -0.17639,0.17639 -0.3823,0.12274 -0.61774,-0.16095 z m 16.32834,0.23391 c -0.24693,-0.24692 0.0515,-0.62455 0.49349,-0.62455 0.20969,0 0.38126,0.17859 0.38126,0.39687 0,0.39852 -0.55854,0.5439 -0.87475,0.22768 z m -4.29775,-0.46755 c -1.05629,-0.46009 -2.14706,-1.77907 -2.48878,-3.00949 -0.38707,-1.39373 -0.35544,-1.59026 0.37321,-2.31892 0.75818,-0.75818 2.52557,-0.93492 2.52557,-0.25255 0,0.25858 -0.25897,0.39687 -0.74318,0.39687 -1.20482,0 -1.7505,0.56237 -1.5446,1.59185 0.26385,1.31927 1.33296,2.53621 2.6801,3.05068 0.65735,0.25105 1.19518,0.55933 1.19518,0.68508 0,0.33655 -1.0722,0.25951 -1.9975,-0.14352 z m 16.45274,-0.6288 c -0.14527,-0.23506 0.33749,-2.7032 0.52874,-2.7032 0.0685,0 0.098,0.65484 0.0656,1.4552 -0.0539,1.33259 -0.26635,1.77867 -0.59432,1.248 z m 62.691281,-1.94231 c -1.69309,-2.93075 -5.14723,-6.37812 -7.56111,-7.5463 -3.0577,-1.47975 -4.14527,-1.74762 -7.01146,-1.72693 -1.4552,0.0105 -2.84722,0.0548 -3.09336,0.0985 -0.68322,0.12128 -0.59417,-0.42595 0.10119,-0.62179 0.33601,-0.0946 1.69971,-0.18393 3.03045,-0.19844 4.20224,-0.0458 7.83783,1.46853 11.2716,4.69497 1.83805,1.72707 4.29531,5.08966 4.59661,6.29012 0.36302,1.44639 -0.14356,1.07036 -1.33392,-0.99015 z m 8.12948,0.25218 c -0.29123,-0.76644 -0.46061,-1.63534 -0.37641,-1.9309 0.14081,-0.49426 0.16077,-0.48617 0.24869,0.10086 0.0526,0.35103 0.26321,0.80584 0.46805,1.01068 0.50472,0.50472 0.76389,1.63814 0.44704,1.95499 -0.16745,0.16746 -0.44355,-0.23077 -0.78737,-1.13563 z m 39.21045,0.4345 c -0.58208,-0.2097 -1.0838,-0.38307 -1.11494,-0.38526 -0.0311,-0.002 -0.35855,-0.44834 -0.7276,-0.99144 -0.88634,-1.30437 -0.88043,-2.91537 0.0248,-6.76736 0.49151,-2.09143 0.73337,-3.9834 0.82373,-6.44344 0.12155,-3.30954 0.0945,-3.55568 -0.54505,-4.95256 -0.37013,-0.80847 -1.03846,-2.00117 -1.48518,-2.65046 -1.09796,-1.59582 -1.09328,-2.49504 0.006,-1.21747 1.11255,1.2926 2.56926,4.35288 2.89669,6.08542 0.33283,1.76109 0.22708,2.72426 -0.98045,8.93053 -0.51681,2.65622 -0.86853,5.11287 -0.7816,5.45922 0.29151,1.16147 1.54892,2.21899 2.82744,2.37796 0.64487,0.0802 1.73804,0.21707 2.42926,0.3042 0.69123,0.0871 1.25677,0.27019 1.25677,0.4068 0,0.38608 -3.44788,0.26981 -4.63021,-0.15614 z m -113.222921,-0.7032 c -0.25697,-0.81321 -0.42522,-2.33187 -0.25834,-2.33187 0.36813,0 0.88448,0.94752 0.89264,1.63803 0.009,0.76379 -0.45262,1.26878 -0.6343,0.69384 z m -25.02187,-0.8885 c -1.27237,-0.64275 -4.15712,-1.32085 -6.74687,-1.58593 -2.51358,-0.25728 -4.26566,-0.83752 -4.87743,-1.61526 -0.74806,-0.951 -0.71388,-2.8094 0.11459,-6.22898 1.3211,-5.45303 0.77363,-8.00213 -3.10635,-14.46348 -1.35678,-2.25945 -2.05269,-4.06757 -2.05269,-5.33333 0,-1.05341 1.23004,-2.56886 3.97598,-4.89856 3.86201,-3.2766 5.52704,-5.925086 8.04584,-12.798156 1.83697,-5.01255 2.62151,-6.12638 4.29881,-6.10306 l 0.745,0.0104 -0.8444,0.36723 c -1.17546,0.5112 -1.98042,1.91848 -3.75805,6.57 -2.68123,7.01597 -3.97475,9.046456 -7.96326,12.500186 -4.52201,3.9157 -4.60448,4.43625 -1.54911,9.77832 3.19757,5.5907 3.49968,6.41275 3.50054,9.525 5.5e-4,2.01768 -0.17551,3.35205 -0.74158,5.62046 -1.27313,5.10183 -0.83018,5.70177 4.74127,6.42169 4.65345,0.6013 7.80521,1.61699 7.80521,2.51531 0,0.48469 -0.10827,0.46547 -1.5875,-0.28179 z m 132.909941,-0.1925 c -0.34316,-1.11284 -0.29546,-1.36305 1.09605,-5.74879 1.76312,-5.55701 1.79733,-8.43551 0.14032,-11.80643 -0.43797,-0.89098 -0.79631,-1.75418 -0.79631,-1.91823 0,-0.64531 0.47728,-0.23873 1.12521,0.95851 1.9743,3.64817 2.04011,7.63752 0.21494,13.03073 -0.61559,1.81901 -1.19872,4.02167 -1.29585,4.89479 l -0.17659,1.5875 z M 41.889979,135.72003 c -6.42632,-3.40644 -7.481,-5.41359 -8.138,-15.48735 -0.38203,-5.85771 -0.0264,-9.10964 1.49265,-13.6493 1.59167,-4.75663 6.23999,-13.965416 8.14387,-16.133816 1.71481,-1.95306 4.69677,-0.61494 4.68848,2.1039 -0.003,1.03848 -0.61174,2.3458 -3.49808,7.514406 -3.83213,6.86226 -5.40346,11.20955 -5.67125,15.69033 -0.23437,3.92139 0.62079,7.12699 2.51397,9.42375 0.99779,1.2105 3.21997,2.8713 5.13595,3.83848 1.45089,0.73241 1.78849,1.09392 1.30223,1.39445 -0.4238,0.26192 -4.66715,-2.36812 -6.14618,-3.80942 -2.583,-2.51711 -3.44723,-4.96283 -3.45905,-9.78893 -0.0138,-5.63211 1.02621,-8.62839 6.42853,-18.520826 2.85674,-5.2311 3.01179,-5.627 2.59648,-6.62965 -0.19972,-0.48216 -0.70476,-1.00012 -1.21019,-1.24115 -0.79624,-0.37969 -0.92407,-0.37653 -1.55767,0.0386 -0.98504,0.64543 -2.26687,2.76365 -5.05787,8.35811 -4.76797,9.557256 -5.76785,14.494766 -4.85373,23.968226 0.70603,7.31693 2.00315,9.38881 7.69455,12.29046 2.29465,1.16988 3.07889,1.6935 2.96824,1.98184 -0.0827,0.21554 -0.1674,0.37705 -0.18821,0.35892 -0.0208,-0.0181 -1.45394,-0.78359 -3.18472,-1.70104 z m 29.37638,0.42757 c -0.61166,-1.27035 -0.46075,-2.03209 0.20216,-1.02037 0.2541,0.3878 0.42358,1.0066 0.37663,1.37511 -0.0802,0.62946 -0.11524,0.60798 -0.57879,-0.35474 z m -7.11336,0.60204 c 0.18191,-0.0734 0.47956,-0.0734 0.66146,0 0.1819,0.0734 0.0331,0.13345 -0.33073,0.13345 -0.3638,0 -0.51263,-0.06 -0.33073,-0.13345 z M 184.39953,136.13 c -1.57574,-0.96073 -1.75737,-2.63472 -0.71605,-6.5995 1.18534,-4.51307 0.79958,-7.72496 -1.41578,-11.78793 -0.55542,-1.01864 -1.51874,-2.77741 -2.14071,-3.90837 -0.72646,-1.32094 -1.06693,-2.2198 -0.95207,-2.51354 0.14971,-0.38291 0.24499,-0.32819 0.58596,0.3365 0.22395,0.43656 1.16739,2.11298 2.09654,3.72538 2.76276,4.79434 3.12359,5.8455 3.12608,9.10691 0.002,2.15104 -0.16598,3.46824 -0.74262,5.83552 -0.70788,2.90602 -0.72409,3.10685 -0.32745,4.05613 0.28068,0.67176 0.67868,1.0974 1.21567,1.30009 0.43911,0.16575 0.79838,0.45385 0.79838,0.64022 0,0.48399 -0.52887,0.41773 -1.52795,-0.19141 z m -48.33097,-1.33605 c -2.83815,-3.72164 -8.69873,-7.74813 -12.90862,-8.86882 -0.79815,-0.21247 -2.66612,-0.37241 -4.37048,-0.37421 -3.04856,-0.003 -3.95667,-0.35291 -1.76855,-0.68103 1.56445,-0.23461 5.14563,0.063 6.9767,0.57981 3.50198,0.98838 8.31447,4.10425 11.31866,7.32832 1.85857,1.9946 2.23968,2.58401 1.96167,3.03384 -0.12643,0.20457 -0.54715,-0.14954 -1.20938,-1.01791 z m -62.682461,0.0804 c -0.071,-0.25466 -0.20613,-0.73091 -0.30024,-1.05833 -0.12496,-0.43471 -0.0606,-0.59531 0.23854,-0.59531 0.23187,0 0.47886,0.31578 0.5691,0.7276 0.0877,0.40018 0.20528,0.87643 0.26132,1.05834 0.056,0.1819 -0.0649,0.33073 -0.26885,0.33073 -0.20391,0 -0.42885,-0.20836 -0.49987,-0.46303 z m 3.13618,0.19844 c 0.0899,-0.14552 0.21602,-0.26458 0.28019,-0.26458 0.0642,0 0.11668,0.11906 0.11668,0.26458 0,0.14552 -0.12609,0.26459 -0.2802,0.26459 -0.15411,0 -0.20661,-0.11907 -0.11667,-0.26459 z m 97.408441,-2.50008 c -0.0932,-0.24274 -0.0576,-0.94038 0.0791,-1.55032 0.13664,-0.60993 0.30304,-2.45714 0.36978,-4.10489 0.11896,-2.93732 0.23568,-3.51019 0.63384,-3.11107 0.30082,0.30154 0.15864,5.17821 -0.20225,6.93749 -0.39718,1.93615 -0.64318,2.44711 -0.88045,1.82879 z m -72.00845,-1.37994 c -3.783198,-2.30744 -8.562051,-3.79128 -12.368061,-3.84029 -4.68774,-0.0604 -6.37602,0.5976 -7.0995,2.76686 -0.45455,1.36293 -0.77306,1.38363 -0.77306,0.0502 0,-1.05588 0.79953,-2.09775 2.13114,-2.77709 0.88718,-0.45261 1.5591,-0.52126 5.06822,-0.51787 4.77123,0.005 6.20362,0.28723 10.038363,1.98063 2.827508,1.24861 4.731248,2.39984 4.921968,2.9764 0.17444,0.52733 -0.22502,0.39435 -1.91907,-0.63888 z m -79.730491,-4.32206 c -0.004,-4.89098 0.0167,-5.10432 0.39569,-4.10104 0.30971,0.81988 0.36987,1.8035 0.267,4.36562 -0.073,1.81901 -0.25109,3.66448 -0.39568,4.10104 -0.19254,0.5813 -0.264,-0.58717 -0.26701,-4.36562 z m 114.459951,3.05901 c -2.011,-2.16983 -3.55881,-3.10323 -7.5196,-4.53465 -6.72582,-2.4307 -8.62165,-4.18004 -9.33579,-8.61447 -0.29809,-1.85094 -0.0296,-3.67058 0.77393,-5.24567 0.29671,-0.58161 2.05636,-2.68072 3.91033,-4.66469 7.01362,-7.505426 7.01174,-7.502376 7.14695,-11.617236 l 0.0956,-2.91041 -1.04689,-2.11667 c -0.57579,-1.16417 -1.47273,-2.70602 -1.9932,-3.42634 -0.52047,-0.72033 -0.89588,-1.36011 -0.83424,-1.42175 0.59358,-0.59359 3.3158,3.43013 4.14147,6.12152 0.44457,1.44915 0.53,2.2792 0.43571,4.23333 -0.17959,3.72165 -0.38199,4.03728 -7.68654,11.986686 -3.77256,4.1056 -4.29127,5.0508 -4.26637,7.77426 0.0413,4.51859 2.81357,7.42903 8.68388,9.11673 2.88534,0.82953 5.64412,2.42649 7.73606,4.47813 1.06623,1.04569 1.9386,2.10556 1.9386,2.35528 0,0.24971 -0.0893,0.44407 -0.19844,0.43191 -0.10914,-0.0122 -1.0008,-0.88784 -1.98148,-1.94596 z m -80.310731,1.14604 c 0.0856,-0.24528 0.45151,-0.34261 1.09363,-0.29092 2.17833,0.17535 6.21461,-0.99376 7.20354,-2.08651 0.25121,-0.27759 0.70618,-0.49975 1.01105,-0.49369 0.90139,0.0179 -1.22958,1.72611 -2.99037,2.3971 -1.86789,0.7118 -6.52281,1.06105 -6.31785,0.47402 z m 83.805921,-4.08977 c -2.14963,-2.18059 -4.15981,-3.51547 -8.89582,-5.90737 -2.64029,-1.33347 -4.02483,-2.20168 -4.69635,-2.94498 -0.88185,-0.9761 -0.95227,-1.1778 -0.95227,-2.72771 0,-2.10973 0.43221,-2.78891 4.68785,-7.36665 4.7399,-5.09865 6.14397,-7.86891 6.15449,-12.142936 0.007,-2.83954 -0.44113,-4.39851 -2.25735,-7.85323 -0.99922,-1.90065 -1.31033,-2.71198 -1.03994,-2.71198 0.87311,0 3.32366,5.09819 3.86641,8.04376 0.45562,2.47279 -0.0489,6.07197 -1.19094,8.495746 -0.95838,2.03403 -2.19768,3.65688 -5.86767,7.68366 -3.42183,3.7545 -3.92693,4.57558 -3.7547,6.1036 0.19789,1.75564 1.20409,2.62041 5.89765,5.06866 2.19024,1.14248 4.63213,2.50859 5.42641,3.03581 1.94862,1.29342 4.48196,3.80443 4.48196,4.44246 0,0.28488 -0.0332,0.51796 -0.0738,0.51796 -0.0406,0 -0.84426,-0.78156 -1.78594,-1.7368 z m -39.5992,-0.42508 c -4.793251,-1.9301 -5.685921,-2.06154 -14.037421,-2.06686 -5.88254,-0.004 -7.2099,-0.0705 -7.2099,-0.36263 0,-0.26825 0.31872,-0.32741 1.27099,-0.23591 0.69904,0.0672 3.12259,-0.0123 5.38568,-0.17656 4.76111,-0.34561 8.02273,-0.0885 11.43453,0.90154 3.156571,0.91593 6.944871,2.73035 6.514631,3.1202 -0.0725,0.0657 -1.58386,-0.46518 -3.35851,-1.17978 z m -52.705401,-0.56375 c -2.29378,-2.83519 -3.63251,-7.22612 -3.35578,-11.00677 0.21735,-2.96954 0.81068,-5.17461 3.21063,-11.93218 3.32044,-9.349396 3.5772,-10.893046 2.26643,-13.626036 -0.8938,-1.86362 -2.20489,-3.20192 -3.63684,-3.71234 l -1.02532,-0.36547 1.22057,-0.0116 c 1.13032,-0.0108 1.31265,0.0868 2.46611,1.31997 2.27883,2.43626 2.88362,4.73068 2.13451,8.09779 -0.2537,1.14034 -1.45219,4.88926 -2.6633,8.330926 -2.54296,7.22644 -2.93479,8.62807 -3.17124,11.34386 -0.35895,4.1229 0.83408,8.31847 3.14822,11.07149 0.8521,1.0137 1.04619,1.65659 0.48754,1.61486 -0.10055,-0.008 -0.58724,-0.51353 -1.08153,-1.12448 z m 19.19467,-0.0525 c 0.0958,-0.72761 0.18559,-2.30519 0.19953,-3.50573 0.0181,-1.55635 0.12026,-2.18281 0.35607,-2.18281 0.58665,0 0.42443,4.67722 -0.20647,5.95312 l -0.52332,1.05833 z m 74.363251,-0.46302 c -1.82194,-2.26024 -3.61628,-4.90058 -4.71631,-6.93995 l -1.12641,-2.0883 -0.11136,-3.58874 c -0.126,-4.06092 0.12686,-5.16276 2.07317,-9.03377 1.82194,-3.62366 3.14473,-4.620266 4.69303,-3.5358 0.77975,0.54616 0.78077,2.09511 0.003,4.96799 -0.45734,1.68987 -0.58454,2.8815 -0.58368,5.46805 9.8e-4,2.95283 0.0778,3.50921 0.71707,5.19138 0.74236,1.95354 0.88195,2.74612 0.48365,2.74612 -0.32597,0 -1.28838,-2.69028 -1.75104,-4.8948 -0.60229,-2.8698 -0.50012,-4.97309 0.41226,-8.48704 0.44558,-1.71611 0.74143,-3.39403 0.65743,-3.7287 -0.23307,-0.92864 -1.34123,-1.0912 -2.16898,-0.31817 -0.89476,0.83559 -3.14191,5.48667 -3.69082,7.63912 -0.62307,2.44328 -0.37397,6.3779 0.52859,8.34937 0.61982,1.35385 3.26993,5.38092 5.34418,8.12094 1.23031,1.6252 0.53623,1.74538 -0.76404,0.1323 z m -87.102971,0.59531 c 0.0899,-0.14552 0.21603,-0.26458 0.2802,-0.26458 0.0642,0 0.11668,0.11906 0.11668,0.26458 0,0.14552 -0.12609,0.26458 -0.2802,0.26458 -0.15411,0 -0.20661,-0.11906 -0.11668,-0.26458 z m 16.88523,-1.93435 c -1.16319,-1.73582 -2.20085,-3.4679 -2.20085,-3.6737 0,-0.11703 0.17617,-0.21278 0.3915,-0.21278 0.21532,0 0.65852,0.50601 0.98489,1.12447 0.65632,1.24375 1.55827,3.4374 1.45555,3.54011 -0.0361,0.0361 -0.32011,-0.31402 -0.63109,-0.7781 z m 31.533521,0.44793 c -1.95893,-0.72336 -6.837181,-1.38139 -13.493741,-1.82018 -6.66439,-0.4393 -10.20375,-0.92129 -10.87869,-1.48144 -0.51917,-0.43087 -0.45436,-0.85979 0.0969,-0.64142 1.38587,0.54897 4.71795,0.9748 11.45998,1.46453 9.236183,0.67091 14.006171,1.54009 14.006171,2.55219 0,0.19492 -0.0298,0.34602 -0.0661,0.33576 -0.0364,-0.0102 -0.54239,-0.1945 -1.12448,-0.40944 z m 42.53069,-1.22556 c -0.57239,-0.90951 -1.18104,-1.91869 -1.35255,-2.24262 -0.28189,-0.5324 -0.26093,-0.57014 0.21818,-0.39291 0.41893,0.15498 2.92139,3.73724 2.92139,4.18196 0,0.059 -0.16792,0.10722 -0.37315,0.10722 -0.20524,0 -0.84148,-0.74415 -1.41387,-1.65365 z m 3.2289,0.30442 c -0.37604,-0.74207 -0.62409,-1.40884 -0.55123,-1.4817 0.26277,-0.26277 0.71909,0.24656 1.3678,1.52673 0.52799,1.04195 0.58108,1.3042 0.26401,1.3042 -0.21828,0 -0.70454,-0.60716 -1.08058,-1.34923 z m 6.04822,-0.0398 c -0.76002,-1.17429 -3.4569,-5.90004 -3.40087,-5.95935 0.29392,-0.31114 1.12281,0.5663 2.03443,2.15361 2.45248,4.27019 2.3887,4.13647 1.9729,4.13647 -0.21583,0 -0.48873,-0.14883 -0.60646,-0.33073 z m 11.29532,-0.19013 c 0,-0.35429 0.12692,-0.47216 0.39687,-0.36857 0.21829,0.0838 0.39688,0.31815 0.39688,0.52086 0,0.20272 -0.17859,0.36857 -0.39688,0.36857 -0.21837,0 -0.39687,-0.23426 -0.39687,-0.52086 z m -8.30607,-2.01432 c -0.23773,-0.61953 -0.19476,-1.43357 0.0757,-1.43357 0.28661,0 0.55747,0.65329 0.55747,1.34456 0,0.61326 -0.40987,0.67088 -0.63315,0.089 z M 49.836089,120.11151 c -0.8608,-2.52631 -1.06199,-5.548 -0.58566,-8.79605 0.53254,-3.63137 1.33481,-6.44533 3.97596,-13.945796 2.4701,-7.01471 2.64425,-8.14796 1.56727,-10.19855 -0.41687,-0.79372 -0.79831,-1.53241 -0.84765,-1.64155 -0.0493,-0.10914 0.0964,-0.19844 0.32384,-0.19844 0.48973,0 1.33512,1.56111 1.76074,3.25139 0.416,1.65209 0.12409,2.86981 -2.29671,9.5809 -1.10233,3.055936 -2.424,7.163586 -2.93705,9.128116 -0.81943,3.13769 -0.93674,3.98998 -0.96514,7.01146 -0.0254,2.70582 0.0703,3.73397 0.44893,4.81954 0.32549,0.93331 0.40154,1.52243 0.23495,1.8201 -0.19814,0.35406 -0.33103,0.19151 -0.67948,-0.83112 z m 22.90264,0.35627 c -0.17462,-0.17462 -0.31691,-0.62111 -0.31618,-0.99219 l 10e-4,-0.67468 0.65063,0.79375 c 0.35784,0.43656 0.65491,0.88304 0.66014,0.99218 0.0149,0.31113 -0.64456,0.23228 -0.9959,-0.11906 z m 3.65653,-0.20181 c -0.15286,-0.28562 -0.44173,-0.45646 -0.64193,-0.37964 -0.70797,0.27167 -3.30952,-2.31594 -3.32329,-3.30549 -0.008,-0.56301 0.11459,-0.49237 1.11347,0.64242 0.61725,0.70123 1.80307,1.71499 2.63515,2.25279 1.41009,0.91138 1.66474,1.30923 0.83799,1.30923 -0.1889,0 -0.46853,-0.23369 -0.62139,-0.51931 z m 26.056181,0.22934 c -0.58208,-0.12601 -4.511608,-0.34336 -8.732291,-0.48299 -8.59037,-0.28418 -10.85319,-0.61026 -13.75729,-1.98242 -5.32494,-2.516 -8.30949,-6.64634 -8.02299,-11.1031 0.26861,-4.17859 3.27218,-7.227156 10.57349,-10.731906 6.64522,-3.18981 14.54748,-5.30752 19.805051,-5.30752 2.26965,0 1.96499,0.43256 -0.46128,0.65493 -5.644241,0.5173 -11.405711,1.97323 -16.553821,4.18315 -6.72554,2.88706 -10.31173,5.450876 -11.8053,8.439746 -2.31857,4.63989 0.35191,10.03627 6.46485,13.06383 2.83501,1.4041 4.66194,1.6759 14.02292,2.08625 8.042941,0.35257 9.921871,0.5796 9.921871,1.19887 0,0.30112 0.0242,0.30144 -1.45521,-0.0188 z m -47.691141,-2.96935 c -0.32743,-0.48096 -0.59532,-1.01219 -0.59532,-1.18052 0,-0.57518 0.66077,-0.0502 1.26467,1.00481 0.75246,1.3145 0.20394,1.45849 -0.66935,0.17571 z m 5.16286,-0.5246 c -1.39415,-2.09974 -2.11053,-3.62465 -1.92723,-4.10233 0.1172,-0.30542 0.43259,0.0589 1.1103,1.28243 0.52063,0.93997 1.28871,2.20673 1.70684,2.81503 0.86125,1.25295 0.90527,1.40754 0.40083,1.40754 -0.19768,0 -0.77851,-0.6312 -1.29074,-1.40267 z m 43.547051,1.12499 c -0.52084,-0.52084 -4.923878,-1.00996 -11.803561,-1.31122 -3.9626,-0.17352 -7.31186,-0.4496 -8.23738,-0.67901 -5.78392,-1.43369 -9.1832,-6.56239 -7.70949,-11.63179 1.35253,-4.652536 10.72791,-9.646216 20.06498,-10.687366 4.027513,-0.44909 8.121891,-0.30793 8.121891,0.28003 0,0.12648 -1.71081,0.22996 -3.8018,0.22996 -5.974351,0 -10.896541,1.12602 -15.909661,3.63956 -4.74082,2.377006 -7.20481,4.559086 -7.93872,7.030436 -0.47205,1.58954 -0.47373,1.63988 -0.11142,3.32927 0.43142,2.01166 2.06763,4.34008 3.85186,5.48144 2.80209,1.79248 3.59208,1.94504 12.24429,2.36465 10.340721,0.5015 12.015351,0.78515 11.620951,1.96833 -0.0657,0.19702 -0.18497,0.19267 -0.39194,-0.0143 z m 82.27468,-1.17753 c 0.001,-0.87312 0.0509,-1.19841 0.10976,-0.72286 0.0589,0.47555 0.0577,1.18992 -0.003,1.5875 -0.0604,0.39757 -0.10855,0.008 -0.10706,-0.86464 z M 60.858889,114.16171 c -1.56643,-2.41146 -2.01658,-3.58039 -1.71269,-4.44741 0.23741,-0.67732 0.25849,-0.65666 0.57755,0.56621 0.18212,0.69805 0.79829,1.99196 1.36926,2.87536 0.57479,0.88931 1.00221,1.854 0.95765,2.16142 -0.0632,0.43569 -0.31972,0.18691 -1.19177,-1.15558 z m 83.433401,-1.25304 c -0.73707,-4.45877 0.74765,-9.1796 3.86854,-12.30048 1.97402,-1.974026 2.36646,-1.569516 0.47991,0.49466 -2.72017,2.97629 -3.72367,5.65443 -3.72367,9.93765 0,2.63314 -0.33349,3.63032 -0.62478,1.86817 z m -44.883558,-0.0728 c -1.52797,-0.10328 -5.402033,-0.20238 -8.609043,-0.22021 -5.48654,-0.0305 -5.90051,-0.0676 -7.00932,-0.62773 -1.861,-0.94015 -3.1386,-3.40332 -2.81132,-5.42012 0.59748,-3.68182 5.68763,-7.894336 10.8362,-8.967846 1.09462,-0.22824 3.33425,-0.3963 5.33532,-0.40036 4.509861,-0.009 6.756081,0.49306 6.756081,1.51054 0,0.25801 -0.32925,0.19877 -1.25677,-0.22611 -1.12614,-0.51586 -1.69681,-0.57509 -5.490101,-0.56988 -3.87658,0.005 -4.41172,0.0655 -6.35,0.7135 -5.0851,1.700106 -9.1415,5.546356 -9.12232,8.649726 0.0116,1.87542 1.25837,3.66942 3.0369,4.3698 0.29104,0.11461 4.3987,0.30714 9.12812,0.42785 8.473991,0.21626 10.054171,0.34257 10.054171,0.80364 0,0.24934 -0.20475,0.2474 -4.497918,-0.0428 z m -46.371643,-1.90628 c -0.17919,-2.44355 0.20775,-6.40828 0.86127,-8.82469 0.27955,-1.03366 1.28751,-3.670956 2.23991,-5.860656 2.64656,-6.0848 2.96943,-7.8997 1.86382,-10.4769 -0.16602,-0.38698 -0.10832,-0.47024 0.27476,-0.39647 0.69077,0.13303 0.99115,1.56965 0.84919,4.06133 -0.10907,1.9144 -0.3006,2.52851 -2.0042,6.42641 -2.76631,6.329416 -3.00065,7.195046 -3.13091,11.565246 -0.12176,4.08502 -0.26892,5.42396 -0.59613,5.42396 -0.11938,0 -0.28035,-0.8632 -0.35771,-1.91823 z m 62.808841,-0.26458 c 0.42644,-0.80277 2.81029,-3.08531 7.11635,-6.81392 5.23314,-4.531376 5.86812,-5.522716 5.86812,-9.161516 0,-1.92554 -0.0939,-2.34957 -0.82312,-3.71548 -0.99268,-1.85953 -2.65873,-3.85273 -4.08233,-4.88398 -1.023,-0.74106 -1.0309,-0.75895 -0.33521,-0.75895 1.38019,0 4.66803,3.75212 5.59833,6.38886 0.21591,0.61196 0.40573,2.07852 0.42182,3.25901 0.0459,3.36715 -0.83693,4.79877 -5.43907,8.820276 -1.61368,1.41009 -4.09355,3.66568 -5.51083,5.01241 -2.57768,2.44938 -3.42829,3.00958 -2.81406,1.85329 z m -52.811101,-0.13229 c -0.43921,-1.11372 -0.60136,-3.19725 -0.35436,-4.55343 0.41545,-2.28101 1.35247,-3.77866 4.23962,-6.776196 5.41034,-5.61721 8.13728,-7.13632 9.21051,-5.13096 0.45593,0.85192 0.16734,1.51629 -1.58679,3.65292 -3.16812,3.858936 -4.3506,6.756236 -4.36325,10.690816 l -0.008,2.5795 -0.79828,1.9e-4 c -0.75894,1.7e-4 -0.83542,-0.10432 -1.55142,-2.11945 -0.82583,-2.32426 -1.0411,-2.59336 -1.6622,-2.07789 -0.32707,0.27144 -0.38343,0.66575 -0.26168,1.8306 0.0854,0.81654 0.23135,1.68315 0.32446,1.92577 0.11136,0.2902 0.0343,0.44115 -0.22504,0.44115 -0.50773,0 -0.71251,-0.79723 -0.71701,-2.79136 -0.004,-1.78053 0.27427,-2.23572 1.36684,-2.23572 0.79239,0 1.38304,0.87018 2.06528,3.0427 0.57642,1.83553 0.7344,1.58103 0.8481,-1.36619 0.0892,-2.31149 0.24347,-3.18909 0.79613,-4.5284 0.93527,-2.26653 2.10358,-4.136406 3.937,-6.301186 1.40767,-1.66208 1.51291,-1.87139 1.18397,-2.35484 -0.507,-0.74516 -1.33014,-0.56773 -2.90837,0.6269 -4.02402,3.04596 -7.81812,7.112716 -8.61797,9.237286 -0.57538,1.52835 -0.72204,4.7996 -0.26865,5.99213 0.19906,0.52356 0.1753,0.67868 -0.10398,0.67868 -0.19911,0 -0.44419,-0.20836 -0.54462,-0.46302 z m 21.28538,-0.77842 c -0.91526,-0.62635 -1.0424,-0.87021 -1.04701,-2.00821 -0.009,-2.22288 1.57549,-4.31653 4.95873,-6.55216 2.70261,-1.785866 4.8482,-2.446406 7.99371,-2.460956 2.100503,-0.01 2.883163,0.11257 4.644351,0.72566 1.16497,0.40554 2.34588,0.903876 2.62423,1.107406 1.02411,0.74885 0.11677,0.67252 -2.28316,-0.19207 -2.175238,-0.783646 -2.773638,-0.887596 -5.109621,-0.887596 -2.26595,0 -2.88435,0.10049 -4.30709,0.699916 -3.29564,1.38852 -6.05427,3.43199 -7.22502,5.35197 -1.02857,1.6868 -0.34848,4.19141 1.02015,3.75702 0.2784,-0.0884 1.5903,-1.33268 2.91535,-2.76516 2.97077,-3.21165 3.62207,-3.55532 6.50071,-3.43019 2.01332,0.0875 2.3749,0.20072 5.527671,1.73074 3.16544,1.53616 3.37155,1.68289 3.34275,2.37973 -0.0169,0.40845 -0.0821,0.54988 -0.14501,0.3143 -0.0645,-0.24156 -1.63744,-1.15293 -3.60733,-2.09007 -5.823761,-2.77055 -7.253651,-2.55929 -11.090311,1.63853 -1.93904,2.12158 -3.17525,3.12883 -3.84007,3.12883 -0.12036,0 -0.51323,-0.20146 -0.87303,-0.44769 z m 96.577971,-3.12713 c 0.36505,-1.03507 5.0293,-5.39723 5.0293,-4.70356 0,0.45355 -0.50698,0.99381 -4.04316,4.30855 -1.22652,1.14971 -1.25655,1.16174 -0.98614,0.39501 z m -62.96861,-2.4588 c 5.17673,-4.738486 6.2947,-5.997836 6.76711,-7.622866 0.49184,-1.69189 0.3702,-3.0565 -0.40854,-4.58294 -0.93459,-1.83195 -2.30214,-2.74706 -7.5492,-5.0516 -1.96147,-0.86149 -0.93952,-0.95261 1.40687,-0.12543 5.41387,1.90855 7.68647,4.52972 7.3999,8.53489 -0.16693,2.33306 -0.65694,3.22598 -3.08776,5.626606 -2.3303,2.30137 -6.29279,5.55742 -6.73764,5.53645 -0.16736,-0.008 0.82681,-1.04969 2.20926,-2.31511 z m -95.776361,-0.38253 c 0.001,-0.18189 0.8668,-0.82306 1.9228,-1.4248 2.5338,-1.44385 4.64868,-3.192816 6.29239,-5.203716 1.57554,-1.92748 3.84304,-6.36949 4.88234,-9.56441 0.41945,-1.28944 0.88239,-2.26175 1.07688,-2.26175 0.79692,0 -1.57203,6.35567 -3.63754,9.75917 -2.10977,3.47644 -5.07893,6.324586 -8.42793,8.084436 -1.99452,1.04809 -2.11294,1.0824 -2.10894,0.61107 z m 93.680631,-0.39687 c 0.19267,-0.25466 1.08349,-1.17911 1.9796,-2.05434 2.09628,-2.047436 2.76196,-3.341206 2.76196,-5.367976 0,-2.34605 -0.75909,-3.58497 -3.18104,-5.19183 -2.1658,-1.43691 -2.12947,-1.90948 0.0625,-0.81247 2.80395,1.40332 3.63285,2.78416 3.64193,6.06704 0.008,2.77744 -0.53476,3.87206 -3.02199,6.098116 -1.84523,1.65147 -3.05114,2.32969 -2.24292,1.26146 z m 61.54768,-1.02739 c -0.0921,-0.0921 0.33452,-0.52304 0.94809,-0.9576 2.62724,-1.860726 5.07831,-4.674176 6.7113,-7.703546 0.7956,-1.47593 0.8751,-1.55019 0.88056,-0.82263 0.0126,1.67319 -3.37295,6.21954 -6.43232,8.637826 -1.24539,0.98443 -1.76186,1.19173 -2.10763,0.84595 z M 61.311679,100.8447 c 0.45627,-0.63534 2.07611,-2.570106 3.59965,-4.299476 3.76319,-4.27161 4.3349,-5.16424 4.3349,-6.76816 0,-0.70629 -0.23812,-1.96167 -0.52916,-2.78973 -0.62947,-1.79094 -0.61637,-1.65621 -0.16102,-1.65621 0.52901,0 1.25816,1.98455 1.41398,3.84849 0.18431,2.20475 -0.48344,3.40988 -4.16815,7.52254 -1.62674,1.81568 -3.27342,3.747896 -3.65929,4.293826 -0.38586,0.54592 -0.91732,0.99513 -1.18103,0.99824 -0.40834,0.005 -0.3564,-0.1657 0.35012,-1.14952 z m -3.02911,-0.21987 c 0.10147,-0.3197 1.18455,-2.373526 2.40684,-4.564056 2.91824,-5.2299 3.49293,-7.29661 2.74965,-9.88827 -0.21502,-0.74972 -0.18827,-0.86285 0.18688,-0.79061 0.5858,0.11282 0.9375,1.82685 0.74013,3.60706 -0.23037,2.07787 -0.99858,4.0257 -2.77112,7.02635 -0.86984,1.4725 -1.85563,3.24245 -2.19064,3.93322 -0.62181,1.282106 -1.47782,1.798206 -1.12174,0.676306 z m 113.102361,-0.47116 c -0.22609,-0.13973 0.39048,-0.589436 1.84724,-1.347326 4.94718,-2.5738 9.71553,-7.07055 11.89883,-11.22106 0.77989,-1.48261 0.79648,-1.49563 0.79648,-0.62518 0,1.83336 -3.98484,6.74037 -7.77897,9.5792 -1.76728,1.32231 -5.07018,3.34416 -6.00335,3.674926 -0.23148,0.082 -0.57358,0.0548 -0.76023,-0.0606 z m -55.83661,-0.677876 c 0,-0.0786 0.23812,-0.6096 0.52916,-1.18009 0.67186,-1.31694 0.66753,-2.13111 -0.0185,-3.47576 -0.62254,-1.22028 -0.50145,-1.59982 0.28371,-0.88926 1.20309,1.08878 1.32344,3.61943 0.23776,4.99964 -0.49005,0.623 -1.03217,0.90949 -1.03217,0.54547 z m -93.390061,-1.21793 c 0.004,-0.19747 0.90391,-0.95435 1.99909,-1.68195 3.54708,-2.35658 7.84905,-7.10666 9.25011,-10.21366 0.25573,-0.56712 0.62548,-1.03113 0.82166,-1.03113 0.47845,0 0.46412,0.0698 -0.34139,1.66244 -1.8218,3.60209 -5.18601,7.35459 -8.88634,9.91199 -2.3262,1.6077 -2.85422,1.85885 -2.84313,1.35231 z m 140.534401,-1.2303 c -0.23162,-0.15963 0.25604,-0.29692 1.45521,-0.40967 6.59684,-0.62028 13.58029,-4.6963 16.75253,-9.77792 0.50932,-0.81588 1.08761,-1.48914 1.28508,-1.49614 0.4668,-0.0165 0.27038,0.47331 -0.89198,2.22448 -2.77302,4.17774 -6.67306,6.94689 -12.29935,8.73293 -2.35954,0.74903 -5.70847,1.13503 -6.30149,0.72632 z m -14.99747,-1.56675 c -5.27916,-0.73008 -9.18795,-3.44396 -11.35184,-7.88161 -1.06545,-2.185 -1.083,-2.24853 -0.62056,-2.24695 0.18191,6.3e-4 0.78457,0.88518 1.33925,1.96568 1.22045,2.37737 2.63401,4.0338 4.42089,5.18043 1.94447,1.24777 5.17231,2.28364 7.79728,2.5023 1.23946,0.10325 2.18627,0.29601 2.10442,0.42845 -0.14678,0.23749 -2.14365,0.26548 -3.68944,0.0517 z m 11.24479,-0.30503 c 0,-0.15927 0.26789,-0.34517 0.59531,-0.41312 0.32743,-0.0679 1.84547,-0.37949 3.37344,-0.69232 3.83892,-0.78596 6.64086,-1.70257 9.11118,-2.98059 2.18861,-1.13228 5.18608,-3.68462 5.8618,-4.99133 0.23212,-0.44886 0.60162,-0.7473 0.92526,-0.7473 0.49353,0 0.46545,0.10215 -0.33421,1.21565 -2.33525,3.25179 -5.50056,5.33508 -10.53694,6.93505 -3.95628,1.25683 -8.99584,2.19461 -8.99584,1.67396 z M 22.150399,93.180894 c 0,-0.19378 0.58086,-0.72871 1.29081,-1.18873 1.51112,-0.97918 4.10511,-3.67749 5.21009,-5.41962 0.42633,-0.67216 0.93671,-1.22645 1.13418,-1.23176 0.48233,-0.013 0.26596,0.48479 -1.0044,2.31071 -1.54981,2.22757 -2.32847,3.04367 -4.32959,4.53779 -1.87404,1.39924 -2.30109,1.58327 -2.30109,0.99161 z m 58.41074,-1.46861 c -3.03668,-1.00185 -6.4116,-3.52436 -7.4803,-5.59098 -0.60888,-1.17746 0.18279,-1.06974 0.92141,0.12538 0.7757,1.2551 2.87714,2.8738 5.26082,4.05231 1.93319,0.95578 2.09219,0.98783 5.31455,1.07147 l 3.32174,0.0862 5.29059,-1.7709 c 4.01461,-1.3438 5.911123,-1.83977 7.863461,-2.05644 2.43596,-0.27034 3.39565,-0.15114 2.62378,0.32591 -0.19054,0.11775 -1.30802,0.29429 -2.48329,0.39231 -1.584728,0.13216 -3.509971,0.63086 -7.451111,1.9301 -5.17722,1.70672 -5.39614,1.75427 -8.48926,1.84357 -2.58053,0.0745 -3.45911,-0.002 -4.69239,-0.40895 z m 73.595421,-0.39739 c -0.0843,-0.0884 -1.15583,-0.20743 -2.38125,-0.26458 -3.84847,-0.17946 -7.43583,-1.7638 -9.79922,-4.32778 -1.56354,-1.69624 -0.83905,-1.79014 0.92676,-0.12012 1.53498,1.45172 3.69705,2.65196 6.12909,3.40246 2.50236,0.77221 10.31942,0.63669 14.40596,-0.24975 4.05204,-0.87895 5.78579,-1.57276 7.81317,-3.12666 1.80093,-1.38034 3.04576,-1.81512 2.08357,-0.72773 -1.21797,1.37645 -3.66432,2.88409 -5.74778,3.54226 -3.56278,1.12548 -12.90097,2.42703 -13.4303,1.8719 z M 22.150399,89.977804 c 0,-0.24691 0.69267,-1.12553 1.53926,-1.95249 0.8466,-0.82696 1.71367,-1.78517 1.92683,-2.12936 0.22985,-0.37115 0.57761,-0.58648 0.8546,-0.52917 0.3848,0.0796 0.2435,0.37156 -0.80234,1.65779 -1.62893,2.00335 -3.51835,3.58928 -3.51835,2.95323 z m 63.36771,-0.69826 c -0.87313,-0.10144 -2.10663,-0.37584 -2.74112,-0.60977 -1.42826,-0.52658 -3.99849,-2.07055 -4.65565,-2.79671 -0.83466,-0.92228 0.13975,-0.66566 1.87676,0.49428 2.75501,1.83972 4.08343,2.24951 7.2398,2.23332 2.53941,-0.013 3.13051,-0.1221 6.87917,-1.26929 4.752553,-1.45442 7.080561,-1.98922 8.687151,-1.99566 1.39563,-0.006 1.41605,0.61957 0.0237,0.72627 -2.07861,0.15928 -4.400378,0.66684 -7.561091,1.65292 -4.79072,1.49461 -7.12577,1.86938 -9.74874,1.56464 z m 67.437931,-1.65678 c -1.33749,-0.3437 -3.62656,-1.52324 -3.93987,-2.0302 -0.32331,-0.52311 0.70654,-0.24153 2.18876,0.59845 1.44415,0.81842 1.67299,0.86438 4.74378,0.95285 3.9191,0.1129 7.34114,-0.30868 9.49432,-1.16966 0.88455,-0.35369 1.89658,-0.63337 2.24896,-0.6215 1.02233,0.0344 -2.2806,1.51047 -4.41501,1.97302 -2.59232,0.56178 -8.61606,0.73515 -10.32094,0.29704 z m -67.834811,-2.02706 c -0.52243,-0.10996 1.14968,-0.19252 3.83646,-0.18941 3.4224,0.004 4.27858,0.0599 3.04271,0.19883 -2.19646,0.24689 -5.68417,0.24212 -6.87917,-0.009 z"
       id="path1" /></g></svg>
